<svg width="45" height="45" viewBox="0 0 45 45" fill="none" xmlns="http://www.w3.org/2000/svg">
<g filter="url(#filter0_ii_5644_10551)">
<path fill-rule="evenodd" clip-rule="evenodd" d="M9.17681 3C7.42231 3 6 4.4223 6 6.17681V39.5333C6 41.2878 7.42231 42.7101 9.17681 42.7101H34.9884C36.7429 42.7101 38.1652 41.2878 38.1652 39.5333V12.9269L28.2383 3H9.17681Z" fill="#576A95"/>
</g>
<g filter="url(#filter1_dd_5644_10551)">
<path d="M24.8117 27.7996V33.1922C24.8116 33.3694 24.7766 33.5447 24.7087 33.7083C24.6408 33.8719 24.5413 34.0205 24.4158 34.1455C24.1624 34.3984 23.8189 34.5404 23.4608 34.5404H20.7025C20.3444 34.5405 20.001 34.3985 19.7474 34.1458C19.6219 34.0206 19.5224 33.872 19.4545 33.7083C19.3865 33.5447 19.3516 33.3692 19.3516 33.192V27.7996H24.8117V27.7996ZM23.4608 30.889H20.7025V33.5968H23.4608V30.889ZM24.7665 22.407V25.1147H22.0536V22.407H24.7665V22.407ZM22.0873 3.39746V6.12753H24.8117V8.85761H22.0871V11.3854H24.8117V14.1155H22.0873V16.812H24.8117V19.5086H22.0873V22.2049H19.3516V19.5084H22.0759V16.8118H19.3516V14.1155H22.0759V11.3854H19.3516V8.65533H22.0759V6.12753H19.3516V3.39746H22.0873Z" fill="white"/>
</g>
<path d="M37.2334 11.9971L29.168 11.9971L38.1648 20.9939V12.9278L37.2334 11.9971Z" fill="url(#paint0_linear_5644_10551)"/>
<path d="M31.4133 12.9277L38.1641 12.9277L28.2365 3.0002L28.2365 9.75092C28.2365 11.5054 29.6588 12.9277 31.4133 12.9277Z" fill="#BBC3D4"/>
<defs>
<filter id="filter0_ii_5644_10551" x="6" y="2.80145" width="32.166" height="40.1071" filterUnits="userSpaceOnUse" color-interpolation-filters="sRGB">
<feFlood flood-opacity="0" result="BackgroundImageFix"/>
<feBlend mode="normal" in="SourceGraphic" in2="BackgroundImageFix" result="shape"/>
<feColorMatrix in="SourceAlpha" type="matrix" values="0 0 0 0 0 0 0 0 0 0 0 0 0 0 0 0 0 0 127 0" result="hardAlpha"/>
<feOffset dy="-0.397101"/>
<feGaussianBlur stdDeviation="0.0992754"/>
<feComposite in2="hardAlpha" operator="arithmetic" k2="-1" k3="1"/>
<feColorMatrix type="matrix" values="0 0 0 0 0 0 0 0 0 0 0 0 0 0 0 0 0 0 0.3 0"/>
<feBlend mode="normal" in2="shape" result="effect1_innerShadow_5644_10551"/>
<feColorMatrix in="SourceAlpha" type="matrix" values="0 0 0 0 0 0 0 0 0 0 0 0 0 0 0 0 0 0 127 0" result="hardAlpha"/>
<feOffset dy="0.397101"/>
<feGaussianBlur stdDeviation="0.0992754"/>
<feComposite in2="hardAlpha" operator="arithmetic" k2="-1" k3="1"/>
<feColorMatrix type="matrix" values="0 0 0 0 1 0 0 0 0 1 0 0 0 0 1 0 0 0 0.3 0"/>
<feBlend mode="normal" in2="effect1_innerShadow_5644_10551" result="effect2_innerShadow_5644_10551"/>
</filter>
<filter id="filter1_dd_5644_10551" x="19.153" y="3.19891" width="7.24789" height="33.3266" filterUnits="userSpaceOnUse" color-interpolation-filters="sRGB">
<feFlood flood-opacity="0" result="BackgroundImageFix"/>
<feColorMatrix in="SourceAlpha" type="matrix" values="0 0 0 0 0 0 0 0 0 0 0 0 0 0 0 0 0 0 127 0" result="hardAlpha"/>
<feOffset dx="0.794203" dy="1.1913"/>
<feGaussianBlur stdDeviation="0.397101"/>
<feColorMatrix type="matrix" values="0 0 0 0 0 0 0 0 0 0 0 0 0 0 0 0 0 0 0.1 0"/>
<feBlend mode="normal" in2="BackgroundImageFix" result="effect1_dropShadow_5644_10551"/>
<feColorMatrix in="SourceAlpha" type="matrix" values="0 0 0 0 0 0 0 0 0 0 0 0 0 0 0 0 0 0 127 0" result="hardAlpha"/>
<feOffset/>
<feGaussianBlur stdDeviation="0.0992754"/>
<feColorMatrix type="matrix" values="0 0 0 0 0 0 0 0 0 0 0 0 0 0 0 0 0 0 0.4 0"/>
<feBlend mode="normal" in2="effect1_dropShadow_5644_10551" result="effect2_dropShadow_5644_10551"/>
<feBlend mode="normal" in="SourceGraphic" in2="effect2_dropShadow_5644_10551" result="shape"/>
</filter>
<linearGradient id="paint0_linear_5644_10551" x1="31.1845" y1="9.98054" x2="40.1813" y2="18.9774" gradientUnits="userSpaceOnUse">
<stop stop-opacity="0.2"/>
<stop offset="1" stop-opacity="0"/>
</linearGradient>
</defs>
</svg>
