<svg width="45" height="45" viewBox="0 0 45 45" fill="none" xmlns="http://www.w3.org/2000/svg">
<g filter="url(#filter0_ii_5644_10487)">
<path fill-rule="evenodd" clip-rule="evenodd" d="M9.17681 3C7.42231 3 6 4.4223 6 6.17681V39.5333C6 41.2878 7.42231 42.7101 9.17681 42.7101H34.9884C36.7429 42.7101 38.1652 41.2878 38.1652 39.5333V12.9269L28.2383 3H9.17681Z" fill="#4876F9"/>
</g>
<g filter="url(#filter1_dd_5644_10487)">
<path d="M19.0724 32.7829L22.0626 21.8212H22.1177L25.0895 32.7829H26.7588L30.5194 19.6289H28.8317L25.9517 30.6644H25.8783L22.9065 19.6289H21.2739L18.2837 30.6644H18.2102L15.3303 19.6289H13.6426L17.4031 32.7829H19.0724Z" fill="white"/>
</g>
<path d="M37.2334 11.9971L29.168 11.9971L38.1648 20.9939V12.9278L37.2334 11.9971Z" fill="url(#paint0_linear_5644_10487)"/>
<path d="M31.4133 12.9277L38.1641 12.9277L28.2365 3.0002L28.2365 9.75092C28.2365 11.5054 29.6588 12.9277 31.4133 12.9277Z" fill="#B5C8FC"/>
<defs>
<filter id="filter0_ii_5644_10487" x="6" y="2.80145" width="32.166" height="40.1071" filterUnits="userSpaceOnUse" color-interpolation-filters="sRGB">
<feFlood flood-opacity="0" result="BackgroundImageFix"/>
<feBlend mode="normal" in="SourceGraphic" in2="BackgroundImageFix" result="shape"/>
<feColorMatrix in="SourceAlpha" type="matrix" values="0 0 0 0 0 0 0 0 0 0 0 0 0 0 0 0 0 0 127 0" result="hardAlpha"/>
<feOffset dy="-0.397101"/>
<feGaussianBlur stdDeviation="0.0992754"/>
<feComposite in2="hardAlpha" operator="arithmetic" k2="-1" k3="1"/>
<feColorMatrix type="matrix" values="0 0 0 0 0 0 0 0 0 0 0 0 0 0 0 0 0 0 0.3 0"/>
<feBlend mode="normal" in2="shape" result="effect1_innerShadow_5644_10487"/>
<feColorMatrix in="SourceAlpha" type="matrix" values="0 0 0 0 0 0 0 0 0 0 0 0 0 0 0 0 0 0 127 0" result="hardAlpha"/>
<feOffset dy="0.397101"/>
<feGaussianBlur stdDeviation="0.0992754"/>
<feComposite in2="hardAlpha" operator="arithmetic" k2="-1" k3="1"/>
<feColorMatrix type="matrix" values="0 0 0 0 1 0 0 0 0 1 0 0 0 0 1 0 0 0 0.3 0"/>
<feBlend mode="normal" in2="effect1_innerShadow_5644_10487" result="effect2_innerShadow_5644_10487"/>
</filter>
<filter id="filter1_dd_5644_10487" x="13.444" y="19.4304" width="18.6639" height="15.3384" filterUnits="userSpaceOnUse" color-interpolation-filters="sRGB">
<feFlood flood-opacity="0" result="BackgroundImageFix"/>
<feColorMatrix in="SourceAlpha" type="matrix" values="0 0 0 0 0 0 0 0 0 0 0 0 0 0 0 0 0 0 127 0" result="hardAlpha"/>
<feOffset dx="0.794203" dy="1.1913"/>
<feGaussianBlur stdDeviation="0.397101"/>
<feColorMatrix type="matrix" values="0 0 0 0 0 0 0 0 0 0 0 0 0 0 0 0 0 0 0.1 0"/>
<feBlend mode="normal" in2="BackgroundImageFix" result="effect1_dropShadow_5644_10487"/>
<feColorMatrix in="SourceAlpha" type="matrix" values="0 0 0 0 0 0 0 0 0 0 0 0 0 0 0 0 0 0 127 0" result="hardAlpha"/>
<feOffset/>
<feGaussianBlur stdDeviation="0.0992754"/>
<feColorMatrix type="matrix" values="0 0 0 0 0 0 0 0 0 0 0 0 0 0 0 0 0 0 0.4 0"/>
<feBlend mode="normal" in2="effect1_dropShadow_5644_10487" result="effect2_dropShadow_5644_10487"/>
<feBlend mode="normal" in="SourceGraphic" in2="effect2_dropShadow_5644_10487" result="shape"/>
</filter>
<linearGradient id="paint0_linear_5644_10487" x1="31.1845" y1="9.98054" x2="40.1813" y2="18.9774" gradientUnits="userSpaceOnUse">
<stop stop-opacity="0.2"/>
<stop offset="1" stop-opacity="0"/>
</linearGradient>
</defs>
</svg>
