<svg width="45" height="45" viewBox="0 0 45 45" fill="none" xmlns="http://www.w3.org/2000/svg">
<path d="M4 12.9122H37.1458C39.2744 12.9122 41 14.3719 41 16.1724V32.4733C41 34.2739 39.2744 35.7335 37.1458 35.7335H22.5H7.85417C5.72557 35.7335 4 34.2739 4 32.4733V12.9122Z" fill="#FBBC1A"/>
<path d="M4 17.8025V31.1693C4 32.9698 5.72557 34.4295 7.85417 34.4295H37.1458C39.2744 34.4295 41 32.9698 41 31.1693V17.4765C41 15.6759 39.2744 14.2163 37.1458 14.2163H20.9583V15.8464C20.9583 16.9267 19.923 17.8025 18.6458 17.8025H4Z" fill="url(#paint0_linear_5644_10553)"/>
<path d="M4 11.6081C4 10.1677 5.38046 9 7.08333 9H17.875C19.5779 9 20.9583 10.1677 20.9583 11.6081V12.9122H4V11.6081Z" fill="#FBBC1A"/>
<defs>
<linearGradient id="paint0_linear_5644_10553" x1="4" y1="9" x2="48.2885" y2="40.3712" gradientUnits="userSpaceOnUse">
<stop stop-color="#FFE69C"/>
<stop offset="1" stop-color="#FFC937"/>
</linearGradient>
</defs>
</svg>
