<svg width="45" height="45" viewBox="0 0 45 45" fill="none" xmlns="http://www.w3.org/2000/svg">
<g filter="url(#filter0_ii_5644_10527)">
<path fill-rule="evenodd" clip-rule="evenodd" d="M9.17681 3C7.42231 3 6 4.4223 6 6.17681V39.5333C6 41.2878 7.42231 42.7101 9.17681 42.7101H34.9884C36.7429 42.7101 38.1652 41.2878 38.1652 39.5333V12.9269L28.2383 3H9.17681Z" fill="#F6AD00"/>
</g>
<g filter="url(#filter1_dd_5644_10527)">
<path d="M13.0885 31.7768L16.7068 26.4587C16.7531 26.3905 16.8139 26.3333 16.8847 26.2912C16.9556 26.2492 17.0348 26.2232 17.1169 26.2151C17.1989 26.207 17.2817 26.2171 17.3594 26.2445C17.4371 26.272 17.5078 26.3162 17.5665 26.374L19.9578 28.7169L25.2045 20.4932C25.2565 20.4116 25.3286 20.3447 25.4139 20.2991C25.4992 20.2536 25.5949 20.2307 25.6916 20.2329C25.7883 20.2351 25.8828 20.2622 25.966 20.3115C26.0492 20.3609 26.1183 20.4309 26.1665 20.5148L32.6854 31.8123C32.7349 31.8979 32.761 31.9949 32.7611 32.0938C32.7611 32.1926 32.7351 32.2897 32.6857 32.3753C32.6363 32.4608 32.5652 32.5319 32.4795 32.5813C32.3939 32.6306 32.2968 32.6565 32.198 32.6564H13.5538C13.4514 32.6566 13.3508 32.6289 13.263 32.5761C13.1752 32.5234 13.1035 32.4477 13.0556 32.3571C13.0077 32.2666 12.9854 32.1647 12.9911 32.0624C12.9969 31.9602 13.0304 31.8614 13.0882 31.7768H13.0885Z" fill="white"/>
<path d="M14.1721 19.735C14.1721 20.4873 14.4709 21.2088 15.0029 21.7407C15.5348 22.2727 16.2563 22.5715 17.0086 22.5715C17.7609 22.5715 18.4824 22.2727 19.0143 21.7407C19.5463 21.2088 19.8451 20.4873 19.8451 19.735C19.8451 18.9827 19.5463 18.2612 19.0143 17.7292C18.4824 17.1973 17.7609 16.8984 17.0086 16.8984C16.2563 16.8984 15.5348 17.1973 15.0029 17.7292C14.4709 18.2612 14.1721 18.9827 14.1721 19.735Z" fill="white"/>
</g>
<path d="M37.2334 11.9971L29.168 11.9971L38.1648 20.9939V12.9278L37.2334 11.9971Z" fill="url(#paint0_linear_5644_10527)"/>
<path d="M31.4133 12.9277L38.1641 12.9277L28.2365 3.0002L28.2365 9.75092C28.2365 11.5054 29.6588 12.9277 31.4133 12.9277Z" fill="#FBDE99"/>
<defs>
<filter id="filter0_ii_5644_10527" x="6" y="2.80145" width="32.166" height="40.1071" filterUnits="userSpaceOnUse" color-interpolation-filters="sRGB">
<feFlood flood-opacity="0" result="BackgroundImageFix"/>
<feBlend mode="normal" in="SourceGraphic" in2="BackgroundImageFix" result="shape"/>
<feColorMatrix in="SourceAlpha" type="matrix" values="0 0 0 0 0 0 0 0 0 0 0 0 0 0 0 0 0 0 127 0" result="hardAlpha"/>
<feOffset dy="-0.397101"/>
<feGaussianBlur stdDeviation="0.0992754"/>
<feComposite in2="hardAlpha" operator="arithmetic" k2="-1" k3="1"/>
<feColorMatrix type="matrix" values="0 0 0 0 0 0 0 0 0 0 0 0 0 0 0 0 0 0 0.3 0"/>
<feBlend mode="normal" in2="shape" result="effect1_innerShadow_5644_10527"/>
<feColorMatrix in="SourceAlpha" type="matrix" values="0 0 0 0 0 0 0 0 0 0 0 0 0 0 0 0 0 0 127 0" result="hardAlpha"/>
<feOffset dy="0.397101"/>
<feGaussianBlur stdDeviation="0.0992754"/>
<feComposite in2="hardAlpha" operator="arithmetic" k2="-1" k3="1"/>
<feColorMatrix type="matrix" values="0 0 0 0 1 0 0 0 0 1 0 0 0 0 1 0 0 0 0.3 0"/>
<feBlend mode="normal" in2="effect1_innerShadow_5644_10527" result="effect2_innerShadow_5644_10527"/>
</filter>
<filter id="filter1_dd_5644_10527" x="12.7917" y="16.6999" width="21.5584" height="17.9419" filterUnits="userSpaceOnUse" color-interpolation-filters="sRGB">
<feFlood flood-opacity="0" result="BackgroundImageFix"/>
<feColorMatrix in="SourceAlpha" type="matrix" values="0 0 0 0 0 0 0 0 0 0 0 0 0 0 0 0 0 0 127 0" result="hardAlpha"/>
<feOffset dx="0.794203" dy="1.1913"/>
<feGaussianBlur stdDeviation="0.397101"/>
<feColorMatrix type="matrix" values="0 0 0 0 0 0 0 0 0 0 0 0 0 0 0 0 0 0 0.1 0"/>
<feBlend mode="normal" in2="BackgroundImageFix" result="effect1_dropShadow_5644_10527"/>
<feColorMatrix in="SourceAlpha" type="matrix" values="0 0 0 0 0 0 0 0 0 0 0 0 0 0 0 0 0 0 127 0" result="hardAlpha"/>
<feOffset/>
<feGaussianBlur stdDeviation="0.0992754"/>
<feColorMatrix type="matrix" values="0 0 0 0 0 0 0 0 0 0 0 0 0 0 0 0 0 0 0.4 0"/>
<feBlend mode="normal" in2="effect1_dropShadow_5644_10527" result="effect2_dropShadow_5644_10527"/>
<feBlend mode="normal" in="SourceGraphic" in2="effect2_dropShadow_5644_10527" result="shape"/>
</filter>
<linearGradient id="paint0_linear_5644_10527" x1="31.1845" y1="9.98054" x2="40.1813" y2="18.9774" gradientUnits="userSpaceOnUse">
<stop stop-opacity="0.2"/>
<stop offset="1" stop-opacity="0"/>
</linearGradient>
</defs>
</svg>
