<svg width="45" height="45" viewBox="0 0 45 45" fill="none" xmlns="http://www.w3.org/2000/svg">
<g filter="url(#filter0_ii_5644_10550)">
<path fill-rule="evenodd" clip-rule="evenodd" d="M9.17681 3C7.42231 3 6 4.4223 6 6.17681V39.5333C6 41.2878 7.42231 42.7101 9.17681 42.7101H34.9884C36.7429 42.7101 38.1652 41.2878 38.1652 39.5333V12.9269L28.2383 3H9.17681Z" fill="#4876F9"/>
</g>
<g filter="url(#filter1_dd_5644_10550)">
<path d="M20.9507 22.4583C21.6482 22.4583 22.3054 22.608 22.9268 22.9053C23.3927 23.1252 23.8133 23.4245 24.1921 23.8013C24.5614 24.1677 24.8645 24.5952 25.088 25.065C24.789 25.3643 24.4291 25.512 24.0084 25.512C23.8571 25.5111 23.7066 25.4888 23.5614 25.4458C23.3066 25.0328 22.9588 24.6851 22.5459 24.4304C22.0669 24.1357 21.5151 23.9808 20.9527 23.9834C20.5549 23.9834 20.1685 24.0591 19.7952 24.2108C19.4196 24.3639 19.0788 24.5913 18.7932 24.8794L16.501 27.1717C16.2128 27.4572 15.9853 27.7981 15.8321 28.1738C15.6821 28.5413 15.6049 28.9343 15.6048 29.3311C15.6048 29.729 15.6807 30.1154 15.8321 30.4887C15.9841 30.865 16.2117 31.2061 16.501 31.4909C16.7864 31.7792 17.1273 32.0067 17.5032 32.1595C17.8705 32.3092 18.2646 32.3868 18.6624 32.3868C19.0603 32.3868 19.4467 32.3111 19.82 32.1595C20.1956 32.0064 20.5364 31.779 20.8219 31.4909L22.4267 29.8863C22.9363 30.0246 23.4629 30.0948 24.0084 30.0948C24.0955 30.0948 24.2186 30.0908 24.3777 30.0834C24.3175 30.1499 24.2563 30.2155 24.1941 30.2802L21.9018 32.5725C21.4605 33.014 20.9604 33.3473 20.3995 33.5747C19.2847 34.0297 18.0357 34.029 16.9214 33.5727C16.3587 33.3432 15.8479 33.0031 15.4191 32.5725C14.9778 32.1312 14.6445 31.6311 14.4172 31.0722C14.1918 30.5201 14.0759 29.9294 14.0762 29.3331C14.0762 28.7365 14.1916 28.1453 14.4172 27.5941C14.6445 27.0352 14.9778 26.5351 15.4191 26.0938L17.7114 23.8015C17.7551 23.7578 17.8213 23.6973 17.9084 23.6159C18.3264 23.2426 18.8102 22.9503 19.335 22.7539C19.8518 22.5603 20.3989 22.4602 20.9507 22.4586V22.4583ZM26.2987 17.1123C26.8956 17.1123 27.4865 17.228 28.0378 17.4533C28.5967 17.6787 29.0968 18.0142 29.54 18.4555C29.9816 18.8968 30.3169 19.3969 30.5422 19.9558C30.7677 20.5078 30.8829 21.0986 30.8813 21.6949C30.8813 22.2915 30.7659 22.8713 30.5385 23.4339C30.3095 23.9963 29.9693 24.5066 29.5383 24.9342L27.246 27.2265C27.2024 27.2719 27.1361 27.3327 27.049 27.4121C26.6316 27.7862 26.1477 28.0786 25.6224 28.2741C25.1054 28.4693 24.5573 28.5694 24.0047 28.5695C23.3208 28.5719 22.6452 28.4191 22.0289 28.1227C21.5628 27.9028 21.1421 27.6035 20.7631 27.2268C20.3938 26.8603 20.0907 26.4328 19.8672 25.963C20.1647 25.6637 20.5249 25.516 20.947 25.516C21.0949 25.516 21.2446 25.5386 21.3943 25.5823C21.6483 25.9951 21.9953 26.3428 22.4076 26.5976C22.8867 26.8922 23.4386 27.047 24.001 27.0446C24.3986 27.0446 24.7853 26.9689 25.1583 26.8172C25.5342 26.6646 25.8752 26.4372 26.1605 26.1486L28.4527 23.8564C28.7415 23.5713 28.969 23.2302 29.1214 22.8542C29.271 22.4868 29.3487 22.0947 29.3487 21.6969C29.3487 21.299 29.273 20.9126 29.1214 20.5393C28.9688 20.1634 28.7413 19.8224 28.4527 19.5371C28.1673 19.2488 27.8264 19.0213 27.4506 18.8685C27.083 18.7187 26.6899 18.6415 26.293 18.6412C25.8952 18.6412 25.5087 18.7169 25.1357 18.8685C24.7597 19.0211 24.4188 19.2486 24.1335 19.5371L22.527 21.1417C22.0114 21.0022 21.4794 20.9321 20.9453 20.9332C20.8579 20.9332 20.7348 20.9372 20.5757 20.9446C20.6363 20.8783 20.6971 20.8121 20.7614 20.7478L23.0536 18.4555C23.4813 18.0245 23.9916 17.6843 24.5539 17.4553C25.1206 17.226 25.7001 17.1103 26.2987 17.1123V17.1123Z" fill="white"/>
</g>
<path d="M37.2334 11.9971L29.168 11.9971L38.1648 20.9939V12.9278L37.2334 11.9971Z" fill="url(#paint0_linear_5644_10550)"/>
<path d="M31.4133 12.9277L38.1641 12.9277L28.2365 3.0002L28.2365 9.75092C28.2365 11.5054 29.6588 12.9277 31.4133 12.9277Z" fill="#B5C8FC"/>
<defs>
<filter id="filter0_ii_5644_10550" x="6" y="2.80145" width="32.166" height="40.1071" filterUnits="userSpaceOnUse" color-interpolation-filters="sRGB">
<feFlood flood-opacity="0" result="BackgroundImageFix"/>
<feBlend mode="normal" in="SourceGraphic" in2="BackgroundImageFix" result="shape"/>
<feColorMatrix in="SourceAlpha" type="matrix" values="0 0 0 0 0 0 0 0 0 0 0 0 0 0 0 0 0 0 127 0" result="hardAlpha"/>
<feOffset dy="-0.397101"/>
<feGaussianBlur stdDeviation="0.0992754"/>
<feComposite in2="hardAlpha" operator="arithmetic" k2="-1" k3="1"/>
<feColorMatrix type="matrix" values="0 0 0 0 0 0 0 0 0 0 0 0 0 0 0 0 0 0 0.3 0"/>
<feBlend mode="normal" in2="shape" result="effect1_innerShadow_5644_10550"/>
<feColorMatrix in="SourceAlpha" type="matrix" values="0 0 0 0 0 0 0 0 0 0 0 0 0 0 0 0 0 0 127 0" result="hardAlpha"/>
<feOffset dy="0.397101"/>
<feGaussianBlur stdDeviation="0.0992754"/>
<feComposite in2="hardAlpha" operator="arithmetic" k2="-1" k3="1"/>
<feColorMatrix type="matrix" values="0 0 0 0 1 0 0 0 0 1 0 0 0 0 1 0 0 0 0.3 0"/>
<feBlend mode="normal" in2="effect1_innerShadow_5644_10550" result="effect2_innerShadow_5644_10550"/>
</filter>
<filter id="filter1_dd_5644_10550" x="13.8776" y="16.9138" width="18.5916" height="18.9868" filterUnits="userSpaceOnUse" color-interpolation-filters="sRGB">
<feFlood flood-opacity="0" result="BackgroundImageFix"/>
<feColorMatrix in="SourceAlpha" type="matrix" values="0 0 0 0 0 0 0 0 0 0 0 0 0 0 0 0 0 0 127 0" result="hardAlpha"/>
<feOffset dx="0.794203" dy="1.1913"/>
<feGaussianBlur stdDeviation="0.397101"/>
<feColorMatrix type="matrix" values="0 0 0 0 0 0 0 0 0 0 0 0 0 0 0 0 0 0 0.1 0"/>
<feBlend mode="normal" in2="BackgroundImageFix" result="effect1_dropShadow_5644_10550"/>
<feColorMatrix in="SourceAlpha" type="matrix" values="0 0 0 0 0 0 0 0 0 0 0 0 0 0 0 0 0 0 127 0" result="hardAlpha"/>
<feOffset/>
<feGaussianBlur stdDeviation="0.0992754"/>
<feColorMatrix type="matrix" values="0 0 0 0 0 0 0 0 0 0 0 0 0 0 0 0 0 0 0.4 0"/>
<feBlend mode="normal" in2="effect1_dropShadow_5644_10550" result="effect2_dropShadow_5644_10550"/>
<feBlend mode="normal" in="SourceGraphic" in2="effect2_dropShadow_5644_10550" result="shape"/>
</filter>
<linearGradient id="paint0_linear_5644_10550" x1="31.1845" y1="9.98054" x2="40.1813" y2="18.9774" gradientUnits="userSpaceOnUse">
<stop stop-opacity="0.2"/>
<stop offset="1" stop-opacity="0"/>
</linearGradient>
</defs>
</svg>
