<svg width="45" height="45" viewBox="0 0 45 45" fill="none" xmlns="http://www.w3.org/2000/svg">
<g filter="url(#filter0_ii_5644_10542)">
<path fill-rule="evenodd" clip-rule="evenodd" d="M9.17681 3C7.42231 3 6 4.4223 6 6.17681V39.5333C6 41.2878 7.42231 42.7101 9.17681 42.7101H34.9884C36.7429 42.7101 38.1652 41.2878 38.1652 39.5333V12.9269L28.2383 3H9.17681Z" fill="#CCCCCC"/>
</g>
<g filter="url(#filter1_dd_5644_10542)">
<path d="M17.1191 22.3593C17.1191 21.3665 17.3177 20.5723 17.5162 20.0759C17.7148 19.5796 18.1119 19.0832 18.6083 18.6861C19.1046 18.1897 19.601 17.8919 20.296 17.6933C20.8916 17.4948 21.4873 17.3955 22.1822 17.3955C23.572 17.3955 24.6641 17.7926 25.6568 18.5868C26.5503 19.381 27.0467 20.3738 27.0467 21.6643C27.0467 22.26 26.8481 22.7564 26.6496 23.2528C26.451 23.7491 25.9546 24.3448 25.1604 25.0397C24.3662 25.7346 24.0684 26.231 23.7706 26.5288C23.4728 26.8267 23.3735 27.2238 23.1749 27.6209C22.9764 28.018 23.0757 28.3158 23.0757 29.3086H21.0902C21.0902 28.3158 21.1894 27.8194 21.2887 27.323C21.388 26.8267 21.5865 26.4296 21.8844 26.0325C22.1822 25.6354 22.48 25.139 23.1749 24.4441C23.8699 23.7491 24.3662 23.2528 24.5648 22.9549C24.7633 22.6571 24.9619 22.1607 24.9619 21.4658C24.9619 20.7709 24.6641 20.2745 24.1677 19.7781C23.6713 19.2817 22.9764 18.9839 22.0829 18.9839C20.0974 18.9839 19.1046 20.3738 19.1046 22.3593H17.1191V22.3593ZM23.0757 33.2796H21.0902V31.2941H23.0757V33.2796Z" fill="white"/>
</g>
<path d="M37.2334 11.9971L29.168 11.9971L38.1648 20.9939V12.9278L37.2334 11.9971Z" fill="url(#paint0_linear_5644_10542)"/>
<path d="M31.4133 12.9277L38.1641 12.9277L28.2365 3.0002L28.2365 9.75092C28.2365 11.5054 29.6588 12.9277 31.4133 12.9277Z" fill="#EAEAEA"/>
<defs>
<filter id="filter0_ii_5644_10542" x="6" y="2.80145" width="32.166" height="40.1071" filterUnits="userSpaceOnUse" color-interpolation-filters="sRGB">
<feFlood flood-opacity="0" result="BackgroundImageFix"/>
<feBlend mode="normal" in="SourceGraphic" in2="BackgroundImageFix" result="shape"/>
<feColorMatrix in="SourceAlpha" type="matrix" values="0 0 0 0 0 0 0 0 0 0 0 0 0 0 0 0 0 0 127 0" result="hardAlpha"/>
<feOffset dy="-0.397101"/>
<feGaussianBlur stdDeviation="0.0992754"/>
<feComposite in2="hardAlpha" operator="arithmetic" k2="-1" k3="1"/>
<feColorMatrix type="matrix" values="0 0 0 0 0 0 0 0 0 0 0 0 0 0 0 0 0 0 0.3 0"/>
<feBlend mode="normal" in2="shape" result="effect1_innerShadow_5644_10542"/>
<feColorMatrix in="SourceAlpha" type="matrix" values="0 0 0 0 0 0 0 0 0 0 0 0 0 0 0 0 0 0 127 0" result="hardAlpha"/>
<feOffset dy="0.397101"/>
<feGaussianBlur stdDeviation="0.0992754"/>
<feComposite in2="hardAlpha" operator="arithmetic" k2="-1" k3="1"/>
<feColorMatrix type="matrix" values="0 0 0 0 1 0 0 0 0 1 0 0 0 0 1 0 0 0 0.3 0"/>
<feBlend mode="normal" in2="effect1_innerShadow_5644_10542" result="effect2_innerShadow_5644_10542"/>
</filter>
<filter id="filter1_dd_5644_10542" x="16.9206" y="17.197" width="11.7147" height="18.0678" filterUnits="userSpaceOnUse" color-interpolation-filters="sRGB">
<feFlood flood-opacity="0" result="BackgroundImageFix"/>
<feColorMatrix in="SourceAlpha" type="matrix" values="0 0 0 0 0 0 0 0 0 0 0 0 0 0 0 0 0 0 127 0" result="hardAlpha"/>
<feOffset dx="0.794203" dy="1.1913"/>
<feGaussianBlur stdDeviation="0.397101"/>
<feColorMatrix type="matrix" values="0 0 0 0 0 0 0 0 0 0 0 0 0 0 0 0 0 0 0.1 0"/>
<feBlend mode="normal" in2="BackgroundImageFix" result="effect1_dropShadow_5644_10542"/>
<feColorMatrix in="SourceAlpha" type="matrix" values="0 0 0 0 0 0 0 0 0 0 0 0 0 0 0 0 0 0 127 0" result="hardAlpha"/>
<feOffset/>
<feGaussianBlur stdDeviation="0.0992754"/>
<feColorMatrix type="matrix" values="0 0 0 0 0 0 0 0 0 0 0 0 0 0 0 0 0 0 0.4 0"/>
<feBlend mode="normal" in2="effect1_dropShadow_5644_10542" result="effect2_dropShadow_5644_10542"/>
<feBlend mode="normal" in="SourceGraphic" in2="effect2_dropShadow_5644_10542" result="shape"/>
</filter>
<linearGradient id="paint0_linear_5644_10542" x1="31.1845" y1="9.98054" x2="40.1813" y2="18.9774" gradientUnits="userSpaceOnUse">
<stop stop-opacity="0.2"/>
<stop offset="1" stop-opacity="0"/>
</linearGradient>
</defs>
</svg>
