<svg width="45" height="45" viewBox="0 0 45 45" fill="none" xmlns="http://www.w3.org/2000/svg">
<g filter="url(#filter0_ii_5644_10552)">
<path fill-rule="evenodd" clip-rule="evenodd" d="M9.17681 3C7.42231 3 6 4.4223 6 6.17681V39.5333C6 41.2878 7.42231 42.7101 9.17681 42.7101H34.9884C36.7429 42.7101 38.1652 41.2878 38.1652 39.5333V12.9269L28.2383 3H9.17681Z" fill="#FA4E4E"/>
</g>
<path d="M28.5304 29.7436C27.1905 29.6441 25.9004 29.1465 24.8582 28.2508C22.8236 28.6985 20.888 29.3453 18.9526 30.1417C17.4143 32.8785 15.9751 34.2718 14.7344 34.2718C14.4862 34.2718 14.1886 34.2222 13.9901 34.0728C13.4441 33.8241 13.1465 33.2766 13.1465 32.7294C13.1465 32.2814 13.2458 31.0375 17.9601 28.9971C19.0521 27.0066 19.8955 24.9665 20.5904 22.8269C19.9947 21.6326 18.7047 18.6965 19.5976 17.2039C19.8955 16.6564 20.4911 16.3579 21.1364 16.4077C21.6325 16.4077 22.1287 16.6564 22.4265 17.0545C23.0718 17.9502 23.0221 19.8412 22.1783 22.6278C22.9725 24.1185 24.0127 25.4644 25.2551 26.6088C26.2975 26.4095 27.3394 26.2603 28.3815 26.2603C30.714 26.31 31.0615 27.4047 31.0118 28.0517C31.0118 29.7436 29.374 29.7436 28.5304 29.7436V29.7436ZM14.6354 32.8286L14.7843 32.779C15.479 32.5303 16.0247 32.0327 16.4218 31.3857C15.6773 31.6842 15.0819 32.1818 14.6354 32.8289V32.8286ZM21.2354 17.9006H21.0865C21.0369 17.9006 20.9376 17.9006 20.888 17.9502C20.6894 18.7961 20.8383 19.6918 21.1858 20.488C21.4836 19.6421 21.4836 18.7464 21.2354 17.9006V17.9006ZM21.5829 25.1159L21.5333 25.2152L21.4836 25.1656C21.0369 26.3102 20.5405 27.4546 19.9947 28.5494L20.094 28.4997V28.599C21.1976 28.1989 22.3246 27.8665 23.4686 27.6038L23.419 27.5541H23.5679C22.8233 26.8076 22.1287 25.9618 21.5829 25.1159V25.1159ZM28.3319 27.7532C27.8852 27.7532 27.4883 27.7532 27.0416 27.8524C27.5379 28.1014 28.0343 28.2009 28.5304 28.2508C28.8779 28.3004 29.2254 28.2508 29.5229 28.1513C29.5229 28.0019 29.3244 27.7532 28.3319 27.7532Z" fill="white"/>
<path d="M37.2334 11.9971L29.168 11.9971L38.1648 20.9939V12.9278L37.2334 11.9971Z" fill="url(#paint0_linear_5644_10552)"/>
<path d="M31.4133 12.9277L38.1641 12.9277L28.2365 3.0002L28.2365 9.75092C28.2365 11.5054 29.6588 12.9277 31.4133 12.9277Z" fill="#FDB8B8"/>
<defs>
<filter id="filter0_ii_5644_10552" x="6" y="2.80145" width="32.166" height="40.1071" filterUnits="userSpaceOnUse" color-interpolation-filters="sRGB">
<feFlood flood-opacity="0" result="BackgroundImageFix"/>
<feBlend mode="normal" in="SourceGraphic" in2="BackgroundImageFix" result="shape"/>
<feColorMatrix in="SourceAlpha" type="matrix" values="0 0 0 0 0 0 0 0 0 0 0 0 0 0 0 0 0 0 127 0" result="hardAlpha"/>
<feOffset dy="-0.397101"/>
<feGaussianBlur stdDeviation="0.0992754"/>
<feComposite in2="hardAlpha" operator="arithmetic" k2="-1" k3="1"/>
<feColorMatrix type="matrix" values="0 0 0 0 0 0 0 0 0 0 0 0 0 0 0 0 0 0 0.3 0"/>
<feBlend mode="normal" in2="shape" result="effect1_innerShadow_5644_10552"/>
<feColorMatrix in="SourceAlpha" type="matrix" values="0 0 0 0 0 0 0 0 0 0 0 0 0 0 0 0 0 0 127 0" result="hardAlpha"/>
<feOffset dy="0.397101"/>
<feGaussianBlur stdDeviation="0.0992754"/>
<feComposite in2="hardAlpha" operator="arithmetic" k2="-1" k3="1"/>
<feColorMatrix type="matrix" values="0 0 0 0 1 0 0 0 0 1 0 0 0 0 1 0 0 0 0.3 0"/>
<feBlend mode="normal" in2="effect1_innerShadow_5644_10552" result="effect2_innerShadow_5644_10552"/>
</filter>
<linearGradient id="paint0_linear_5644_10552" x1="31.1845" y1="9.98054" x2="40.1813" y2="18.9774" gradientUnits="userSpaceOnUse">
<stop stop-opacity="0.2"/>
<stop offset="1" stop-opacity="0"/>
</linearGradient>
</defs>
</svg>
