<svg width="45" height="45" viewBox="0 0 45 45" fill="none" xmlns="http://www.w3.org/2000/svg">
<g filter="url(#filter0_ii_5644_10504)">
<path fill-rule="evenodd" clip-rule="evenodd" d="M9.17681 3C7.42231 3 6 4.4223 6 6.17681V39.5333C6 41.2878 7.42231 42.7101 9.17681 42.7101H34.9884C36.7429 42.7101 38.1652 41.2878 38.1652 39.5333V12.9269L28.2383 3H9.17681Z" fill="#FF9333"/>
</g>
<g filter="url(#filter1_dd_5644_10504)">
<path d="M19.3918 32.7829V26.6929H23.7304C27.135 26.6929 28.8579 25.2122 28.8579 22.2714C28.8579 19.3514 27.1556 17.8916 23.7512 17.8916H17.6895V32.7829H19.3918ZM23.6475 25.2122H19.3918V19.3723H23.6475C24.8306 19.3723 25.7025 19.6019 26.2837 20.1025C26.865 20.5403 27.1556 21.2702 27.1556 22.2716C27.1556 23.2726 26.8652 24.0025 26.3043 24.4822C25.7233 24.9617 24.8514 25.2119 23.6475 25.2119V25.2122Z" fill="white"/>
</g>
<path d="M37.2334 11.9971L29.168 11.9971L38.1648 20.9939V12.9278L37.2334 11.9971Z" fill="url(#paint0_linear_5644_10504)"/>
<path d="M31.4133 12.9277L38.1641 12.9277L28.2365 3.0002L28.2365 9.75092C28.2365 11.5054 29.6588 12.9277 31.4133 12.9277Z" fill="#FFD3AD"/>
<defs>
<filter id="filter0_ii_5644_10504" x="6" y="2.80145" width="32.166" height="40.1071" filterUnits="userSpaceOnUse" color-interpolation-filters="sRGB">
<feFlood flood-opacity="0" result="BackgroundImageFix"/>
<feBlend mode="normal" in="SourceGraphic" in2="BackgroundImageFix" result="shape"/>
<feColorMatrix in="SourceAlpha" type="matrix" values="0 0 0 0 0 0 0 0 0 0 0 0 0 0 0 0 0 0 127 0" result="hardAlpha"/>
<feOffset dy="-0.397101"/>
<feGaussianBlur stdDeviation="0.0992754"/>
<feComposite in2="hardAlpha" operator="arithmetic" k2="-1" k3="1"/>
<feColorMatrix type="matrix" values="0 0 0 0 0 0 0 0 0 0 0 0 0 0 0 0 0 0 0.3 0"/>
<feBlend mode="normal" in2="shape" result="effect1_innerShadow_5644_10504"/>
<feColorMatrix in="SourceAlpha" type="matrix" values="0 0 0 0 0 0 0 0 0 0 0 0 0 0 0 0 0 0 127 0" result="hardAlpha"/>
<feOffset dy="0.397101"/>
<feGaussianBlur stdDeviation="0.0992754"/>
<feComposite in2="hardAlpha" operator="arithmetic" k2="-1" k3="1"/>
<feColorMatrix type="matrix" values="0 0 0 0 1 0 0 0 0 1 0 0 0 0 1 0 0 0 0.3 0"/>
<feBlend mode="normal" in2="effect1_innerShadow_5644_10504" result="effect2_innerShadow_5644_10504"/>
</filter>
<filter id="filter1_dd_5644_10504" x="17.4909" y="17.6931" width="12.9549" height="17.0757" filterUnits="userSpaceOnUse" color-interpolation-filters="sRGB">
<feFlood flood-opacity="0" result="BackgroundImageFix"/>
<feColorMatrix in="SourceAlpha" type="matrix" values="0 0 0 0 0 0 0 0 0 0 0 0 0 0 0 0 0 0 127 0" result="hardAlpha"/>
<feOffset dx="0.794203" dy="1.1913"/>
<feGaussianBlur stdDeviation="0.397101"/>
<feColorMatrix type="matrix" values="0 0 0 0 0 0 0 0 0 0 0 0 0 0 0 0 0 0 0.1 0"/>
<feBlend mode="normal" in2="BackgroundImageFix" result="effect1_dropShadow_5644_10504"/>
<feColorMatrix in="SourceAlpha" type="matrix" values="0 0 0 0 0 0 0 0 0 0 0 0 0 0 0 0 0 0 127 0" result="hardAlpha"/>
<feOffset/>
<feGaussianBlur stdDeviation="0.0992754"/>
<feColorMatrix type="matrix" values="0 0 0 0 0 0 0 0 0 0 0 0 0 0 0 0 0 0 0.4 0"/>
<feBlend mode="normal" in2="effect1_dropShadow_5644_10504" result="effect2_dropShadow_5644_10504"/>
<feBlend mode="normal" in="SourceGraphic" in2="effect2_dropShadow_5644_10504" result="shape"/>
</filter>
<linearGradient id="paint0_linear_5644_10504" x1="31.1845" y1="9.98054" x2="40.1813" y2="18.9774" gradientUnits="userSpaceOnUse">
<stop stop-opacity="0.2"/>
<stop offset="1" stop-opacity="0"/>
</linearGradient>
</defs>
</svg>
