<svg width="217" height="85" viewBox="0 0 217 85" fill="none" xmlns="http://www.w3.org/2000/svg"><path d="M83.772 42.501c0 22.134-18.205 40.078-40.666 40.078-22.46 0-40.669-17.944-40.669-40.078 0-22.136 18.21-40.08 40.669-40.08 22.46 0 40.666 17.944 40.666 40.08z" fill="#fff"/><path d="M182.591 21.607h-9.363v42.07h9.363c14.285 0 22.249-8.324 22.249-21.035 0-12.806-7.829-21.035-22.249-21.035zm.627 50.847h-14.896c-2.724 0-4.904-2.024-4.904-4.833V17.577c0-2.686 2.18-4.744 4.904-4.744h14.896c20.192 0 31.342 13.339 31.342 29.809 0 16.476-11.269 29.812-31.342 29.812zm-48.15-27.125h-17.885v18.264h17.885c7.165 0 10.455-4.566 10.455-9.132 0-4.564-3.245-9.133-10.455-9.133zm-2.221-23.722h-15.664v15.04h15.664c6.212 0 9.137-3.405 9.137-7.524 0-4.204-2.744-7.516-9.137-7.516zm1.87 50.847h-22.442c-2.724 0-4.814-2.148-4.814-4.833V17.577c0-2.686 2.09-4.744 4.814-4.744h20.988c11.533 0 18.437 6.614 18.437 15.208 0 8.69-5.387 11.786-7.265 12.454 2.913.724 10.808 4.019 10.808 14.885 0 9.313-7.62 17.074-20.526 17.074z" fill="#04589C"/><path d="M56.287 31.55a.868.868 0 00.206-.029l23.586-5.747c-3.228-6.918-8.394-12.773-14.815-16.89 0 0-9.107 22.136-9.154 22.246a.524.524 0 00-.047.198c0 .128.1.222.224.222zm-8.513-5.483c.036.187.148.25.25.25.1 0 .18-.066.292-.18L65.011 8.722c-6.283-3.964-13.743-6.271-21.75-6.3l4.513 23.644zm12.631 14.331l22.976 7.723c.263-1.837.399-3.712.399-5.62a39.455 39.455 0 00-3.57-16.448L60.316 39.881c-.12.086-.175.16-.175.25 0 .157.126.223.263.267zm-30.245-9.07a.477.477 0 00-.047-.198L20.961 8.884c-6.42 4.117-11.588 9.972-14.817 16.89l23.588 5.747a.855.855 0 00.207.03.22.22 0 00.221-.223zM42.964 2.423c-8.007.029-15.469 2.336-21.75 6.3 0 0 16.15 16.85 16.695 17.413.112.115.192.18.292.18.102 0 .212-.062.25-.25.212-1.105 4.513-23.643 4.513-23.643zM25.818 40.398L2.842 48.121a39.895 39.895 0 01-.397-5.62 39.454 39.454 0 013.571-16.448s19.77 13.743 19.89 13.828c.122.086.175.16.175.25 0 .157-.126.223-.263.267zm17.291 42.18c20.381 0 37.259-14.775 40.209-34.046L68.16 50.614c-.234.031-.33.153-.387.316-3.005 8.629-10.577 15.195-19.967 16.879 3.577-1.717 6.042-5.335 6.042-9.52 0-5.846-4.808-10.584-10.74-10.584-5.93 0-10.74 4.739-10.74 10.584 0 4.185 2.465 7.803 6.042 9.52-9.39-1.684-16.964-8.25-19.969-16.88-.057-.162-.151-.284-.385-.315L2.898 48.532c2.952 19.27 19.83 34.046 40.211 34.046z" fill="#F26925"/></svg>