<svg width="28" height="31" viewBox="0 0 28 31" fill="none" xmlns="http://www.w3.org/2000/svg"><path fill-rule="evenodd" clip-rule="evenodd" d="M.748.583C1.706.437 2.683.349 3.652.406a13.436 13.436 0 017.646 2.804 13.639 13.639 0 012.726 2.812c.109.146.2.302.316.44a13.53 13.53 0 014.207-4.067A13.51 13.51 0 0125.603.388c.78-.004 1.56.078 2.329.195v13.953c-1.542 0-3.084.004-4.63 0v-9.06a8.65 8.65 0 00-3.624 1.883 9.011 9.011 0 00-2.69 4.128 9.413 9.413 0 00-.33 1.457c-.025.344.007.691-.014 1.035-.01.17.007.34-.014.508-1.532.01-3.063.003-4.59.003v-1.4c0-.157-.036-.31-.06-.462a9.118 9.118 0 00-1.451-3.563c-1.208-1.78-3.08-3.092-5.163-3.592-.003 3.02 0 6.042 0 9.063-1.538 0-3.077.004-4.615 0C.748 9.884.748 5.232.748.583z" fill="#E61B50"/><path fill-rule="evenodd" clip-rule="evenodd" d="M.825 15.905c1.506-.003 3.01 0 4.516 0-.007.706-.017 1.418.102 2.117a9.101 9.101 0 002.757 5.27 8.923 8.923 0 004.232 2.237 8.891 8.891 0 004.988-.344 8.997 8.997 0 003.456-2.294 9.135 9.135 0 002.444-5.65c.032-.442.018-.89.021-1.336 1.504-.003 3.01-.003 4.517 0 .004.897-.017 1.798-.144 2.688a13.64 13.64 0 01-6.863 10.014 13.432 13.432 0 01-4.45 1.524 13.458 13.458 0 01-8.647-1.563A13.62 13.62 0 01.85 17.388c-.035-.494-.02-.99-.024-1.483z" fill="#11727B"/></svg>