<svg width="45" height="45" viewBox="0 0 45 45" fill="none" xmlns="http://www.w3.org/2000/svg"><path d="M4 12.912h33.146c2.128 0 3.854 1.46 3.854 3.26v16.301c0 1.8-1.726 3.26-3.854 3.26H7.854c-2.128 0-3.854-1.46-3.854-3.26v-19.56z" fill="#FBBC1A"/><path d="M4 17.802V31.17c0 1.8 1.726 3.26 3.854 3.26h29.292c2.128 0 3.854-1.46 3.854-3.26V17.477c0-1.801-1.726-3.26-3.854-3.26H20.958v1.63c0 1.08-1.035 1.955-2.312 1.955H4z" fill="url(#paint0_linear_5644_10553)"/><path d="M4 11.608C4 10.168 5.38 9 7.083 9h10.792c1.703 0 3.083 1.168 3.083 2.608v1.304H4v-1.304z" fill="#FBBC1A"/><defs><linearGradient id="paint0_linear_5644_10553" x1="4" y1="9" x2="48.288" y2="40.371" gradientUnits="userSpaceOnUse"><stop stop-color="#FFE69C"/><stop offset="1" stop-color="#FFC937"/></linearGradient></defs></svg>