<svg width="45" height="45" viewBox="0 0 45 45" fill="none" xmlns="http://www.w3.org/2000/svg"><g filter="url(#filter0_ii_5644_10527)"><path fill-rule="evenodd" clip-rule="evenodd" d="M9.177 3A3.177 3.177 0 006 6.177v33.356a3.177 3.177 0 003.177 3.177h25.811a3.177 3.177 0 003.177-3.177V12.927L28.238 3H9.177z" fill="#F6AD00"/></g><g filter="url(#filter1_dd_5644_10527)" fill="#fff"><path d="M13.088 31.777l3.619-5.318a.563.563 0 01.86-.085l2.39 2.343 5.247-8.224a.563.563 0 01.962.022l6.52 11.297a.563.563 0 01-.488.844H13.554a.562.562 0 01-.466-.88zm1.084-12.042a2.836 2.836 0 105.672 0 2.836 2.836 0 00-5.672 0z"/></g><path d="M37.233 11.997h-8.065l8.997 8.997v-8.066l-.932-.93z" fill="url(#paint0_linear_5644_10527)"/><path d="M31.413 12.928h6.751L28.236 3v6.75a3.177 3.177 0 003.177 3.178z" fill="#FBDE99"/><defs><filter id="filter0_ii_5644_10527" x="6" y="2.801" width="32.166" height="40.107" filterUnits="userSpaceOnUse" color-interpolation-filters="sRGB"><feFlood flood-opacity="0" result="BackgroundImageFix"/><feBlend in="SourceGraphic" in2="BackgroundImageFix" result="shape"/><feColorMatrix in="SourceAlpha" values="0 0 0 0 0 0 0 0 0 0 0 0 0 0 0 0 0 0 127 0" result="hardAlpha"/><feOffset dy="-.397"/><feGaussianBlur stdDeviation=".099"/><feComposite in2="hardAlpha" operator="arithmetic" k2="-1" k3="1"/><feColorMatrix values="0 0 0 0 0 0 0 0 0 0 0 0 0 0 0 0 0 0 0.3 0"/><feBlend in2="shape" result="effect1_innerShadow_5644_10527"/><feColorMatrix in="SourceAlpha" values="0 0 0 0 0 0 0 0 0 0 0 0 0 0 0 0 0 0 127 0" result="hardAlpha"/><feOffset dy=".397"/><feGaussianBlur stdDeviation=".099"/><feComposite in2="hardAlpha" operator="arithmetic" k2="-1" k3="1"/><feColorMatrix values="0 0 0 0 1 0 0 0 0 1 0 0 0 0 1 0 0 0 0.3 0"/><feBlend in2="effect1_innerShadow_5644_10527" result="effect2_innerShadow_5644_10527"/></filter><filter id="filter1_dd_5644_10527" x="12.792" y="16.7" width="21.558" height="17.942" filterUnits="userSpaceOnUse" color-interpolation-filters="sRGB"><feFlood flood-opacity="0" result="BackgroundImageFix"/><feColorMatrix in="SourceAlpha" values="0 0 0 0 0 0 0 0 0 0 0 0 0 0 0 0 0 0 127 0" result="hardAlpha"/><feOffset dx=".794" dy="1.191"/><feGaussianBlur stdDeviation=".397"/><feColorMatrix values="0 0 0 0 0 0 0 0 0 0 0 0 0 0 0 0 0 0 0.1 0"/><feBlend in2="BackgroundImageFix" result="effect1_dropShadow_5644_10527"/><feColorMatrix in="SourceAlpha" values="0 0 0 0 0 0 0 0 0 0 0 0 0 0 0 0 0 0 127 0" result="hardAlpha"/><feOffset/><feGaussianBlur stdDeviation=".099"/><feColorMatrix values="0 0 0 0 0 0 0 0 0 0 0 0 0 0 0 0 0 0 0.4 0"/><feBlend in2="effect1_dropShadow_5644_10527" result="effect2_dropShadow_5644_10527"/><feBlend in="SourceGraphic" in2="effect2_dropShadow_5644_10527" result="shape"/></filter><linearGradient id="paint0_linear_5644_10527" x1="31.184" y1="9.981" x2="40.181" y2="18.977" gradientUnits="userSpaceOnUse"><stop stop-opacity=".2"/><stop offset="1" stop-opacity="0"/></linearGradient></defs></svg>