<svg width="45" height="45" viewBox="0 0 45 45" fill="none" xmlns="http://www.w3.org/2000/svg"><g filter="url(#filter0_ii_5644_10550)"><path fill-rule="evenodd" clip-rule="evenodd" d="M9.177 3A3.177 3.177 0 006 6.177v33.356a3.177 3.177 0 003.177 3.177h25.811a3.177 3.177 0 003.177-3.177V12.927L28.238 3H9.177z" fill="#4876F9"/></g><g filter="url(#filter1_dd_5644_10550)"><path d="M20.95 22.458c.698 0 1.355.15 1.977.447.466.22.886.52 1.265.896.37.367.672.794.896 1.264a1.47 1.47 0 01-1.08.447c-.15 0-.301-.023-.447-.066a3.115 3.115 0 00-1.015-1.016 3.014 3.014 0 00-1.593-.447 3.049 3.049 0 00-2.16.896l-2.292 2.293a3.01 3.01 0 00-.669 1.002 3.064 3.064 0 000 2.315c.152.376.38.717.669 1.002a3 3 0 001.002.669 3.073 3.073 0 002.317 0 3.01 3.01 0 001.002-.67l1.605-1.604a6.01 6.01 0 001.95.197c-.06.067-.12.133-.183.197l-2.292 2.292a4.492 4.492 0 01-1.503 1.003 4.596 4.596 0 01-4.98-1.003 4.505 4.505 0 01-1.002-1.5 4.595 4.595 0 010-3.478 4.505 4.505 0 011.002-1.5l2.292-2.293c.044-.043.11-.104.197-.185a4.52 4.52 0 011.427-.862 4.644 4.644 0 011.616-.295zm5.349-5.346c.597 0 1.188.116 1.739.341a4.5 4.5 0 011.502 1.003c.442.44.777.94 1.002 1.5a4.602 4.602 0 01-.004 3.478 4.508 4.508 0 01-1 1.5l-2.292 2.293a4.477 4.477 0 01-1.624 1.048 4.582 4.582 0 01-5.755-2.312c.298-.3.658-.447 1.08-.447.148 0 .298.023.447.066.254.413.601.76 1.014 1.016.479.294 1.03.449 1.593.447a3.048 3.048 0 002.16-.896l2.292-2.293c.288-.285.516-.626.668-1.002a3.066 3.066 0 000-2.315 2.992 2.992 0 00-.668-1.002 3 3 0 00-1.002-.668 3.074 3.074 0 00-2.315 0c-.376.152-.717.38-1.002.668l-1.607 1.605a6.01 6.01 0 00-1.951-.197 4.9 4.9 0 01.185-.197l2.293-2.293a4.565 4.565 0 013.245-1.343z" fill="#fff"/></g><path d="M37.233 11.997h-8.065l8.997 8.997v-8.066l-.932-.93z" fill="url(#paint0_linear_5644_10550)"/><path d="M31.413 12.928h6.751L28.236 3v6.75a3.177 3.177 0 003.177 3.178z" fill="#B5C8FC"/><defs><filter id="filter0_ii_5644_10550" x="6" y="2.801" width="32.166" height="40.107" filterUnits="userSpaceOnUse" color-interpolation-filters="sRGB"><feFlood flood-opacity="0" result="BackgroundImageFix"/><feBlend in="SourceGraphic" in2="BackgroundImageFix" result="shape"/><feColorMatrix in="SourceAlpha" values="0 0 0 0 0 0 0 0 0 0 0 0 0 0 0 0 0 0 127 0" result="hardAlpha"/><feOffset dy="-.397"/><feGaussianBlur stdDeviation=".099"/><feComposite in2="hardAlpha" operator="arithmetic" k2="-1" k3="1"/><feColorMatrix values="0 0 0 0 0 0 0 0 0 0 0 0 0 0 0 0 0 0 0.3 0"/><feBlend in2="shape" result="effect1_innerShadow_5644_10550"/><feColorMatrix in="SourceAlpha" values="0 0 0 0 0 0 0 0 0 0 0 0 0 0 0 0 0 0 127 0" result="hardAlpha"/><feOffset dy=".397"/><feGaussianBlur stdDeviation=".099"/><feComposite in2="hardAlpha" operator="arithmetic" k2="-1" k3="1"/><feColorMatrix values="0 0 0 0 1 0 0 0 0 1 0 0 0 0 1 0 0 0 0.3 0"/><feBlend in2="effect1_innerShadow_5644_10550" result="effect2_innerShadow_5644_10550"/></filter><filter id="filter1_dd_5644_10550" x="13.878" y="16.914" width="18.592" height="18.987" filterUnits="userSpaceOnUse" color-interpolation-filters="sRGB"><feFlood flood-opacity="0" result="BackgroundImageFix"/><feColorMatrix in="SourceAlpha" values="0 0 0 0 0 0 0 0 0 0 0 0 0 0 0 0 0 0 127 0" result="hardAlpha"/><feOffset dx=".794" dy="1.191"/><feGaussianBlur stdDeviation=".397"/><feColorMatrix values="0 0 0 0 0 0 0 0 0 0 0 0 0 0 0 0 0 0 0.1 0"/><feBlend in2="BackgroundImageFix" result="effect1_dropShadow_5644_10550"/><feColorMatrix in="SourceAlpha" values="0 0 0 0 0 0 0 0 0 0 0 0 0 0 0 0 0 0 127 0" result="hardAlpha"/><feOffset/><feGaussianBlur stdDeviation=".099"/><feColorMatrix values="0 0 0 0 0 0 0 0 0 0 0 0 0 0 0 0 0 0 0.4 0"/><feBlend in2="effect1_dropShadow_5644_10550" result="effect2_dropShadow_5644_10550"/><feBlend in="SourceGraphic" in2="effect2_dropShadow_5644_10550" result="shape"/></filter><linearGradient id="paint0_linear_5644_10550" x1="31.184" y1="9.981" x2="40.181" y2="18.977" gradientUnits="userSpaceOnUse"><stop stop-opacity=".2"/><stop offset="1" stop-opacity="0"/></linearGradient></defs></svg>