<svg width="45" height="45" viewBox="0 0 45 45" fill="none" xmlns="http://www.w3.org/2000/svg"><g filter="url(#filter0_ii_5644_10542)"><path fill-rule="evenodd" clip-rule="evenodd" d="M9.177 3A3.177 3.177 0 006 6.177v33.356a3.177 3.177 0 003.177 3.177h25.811a3.177 3.177 0 003.177-3.177V12.927L28.238 3H9.177z" fill="#CCC"/></g><g filter="url(#filter1_dd_5644_10542)"><path d="M17.12 22.36c0-.994.198-1.788.396-2.284.199-.496.596-.993 1.092-1.39a3.642 3.642 0 011.688-.993 5.781 5.781 0 011.886-.298c1.39 0 2.482.398 3.475 1.192.893.794 1.39 1.787 1.39 3.077 0 .596-.199 1.092-.397 1.589-.199.496-.695 1.092-1.49 1.787-.794.695-1.092 1.191-1.39 1.489-.297.298-.396.695-.595 1.092-.199.397-.1.695-.1 1.688H21.09c0-.993.1-1.49.199-1.986s.297-.893.595-1.29c.298-.398.596-.894 1.29-1.589.696-.695 1.192-1.191 1.39-1.49.2-.297.398-.793.398-1.488s-.298-1.192-.794-1.688c-.497-.496-1.192-.794-2.085-.794-1.986 0-2.978 1.39-2.978 3.375h-1.986zm5.956 10.92H21.09v-1.986h1.986v1.986z" fill="#fff"/></g><path d="M37.233 11.997h-8.065l8.997 8.997v-8.066l-.932-.93z" fill="url(#paint0_linear_5644_10542)"/><path d="M31.413 12.928h6.751L28.236 3v6.75a3.177 3.177 0 003.177 3.178z" fill="#EAEAEA"/><defs><filter id="filter0_ii_5644_10542" x="6" y="2.801" width="32.166" height="40.107" filterUnits="userSpaceOnUse" color-interpolation-filters="sRGB"><feFlood flood-opacity="0" result="BackgroundImageFix"/><feBlend in="SourceGraphic" in2="BackgroundImageFix" result="shape"/><feColorMatrix in="SourceAlpha" values="0 0 0 0 0 0 0 0 0 0 0 0 0 0 0 0 0 0 127 0" result="hardAlpha"/><feOffset dy="-.397"/><feGaussianBlur stdDeviation=".099"/><feComposite in2="hardAlpha" operator="arithmetic" k2="-1" k3="1"/><feColorMatrix values="0 0 0 0 0 0 0 0 0 0 0 0 0 0 0 0 0 0 0.3 0"/><feBlend in2="shape" result="effect1_innerShadow_5644_10542"/><feColorMatrix in="SourceAlpha" values="0 0 0 0 0 0 0 0 0 0 0 0 0 0 0 0 0 0 127 0" result="hardAlpha"/><feOffset dy=".397"/><feGaussianBlur stdDeviation=".099"/><feComposite in2="hardAlpha" operator="arithmetic" k2="-1" k3="1"/><feColorMatrix values="0 0 0 0 1 0 0 0 0 1 0 0 0 0 1 0 0 0 0.3 0"/><feBlend in2="effect1_innerShadow_5644_10542" result="effect2_innerShadow_5644_10542"/></filter><filter id="filter1_dd_5644_10542" x="16.921" y="17.197" width="11.715" height="18.068" filterUnits="userSpaceOnUse" color-interpolation-filters="sRGB"><feFlood flood-opacity="0" result="BackgroundImageFix"/><feColorMatrix in="SourceAlpha" values="0 0 0 0 0 0 0 0 0 0 0 0 0 0 0 0 0 0 127 0" result="hardAlpha"/><feOffset dx=".794" dy="1.191"/><feGaussianBlur stdDeviation=".397"/><feColorMatrix values="0 0 0 0 0 0 0 0 0 0 0 0 0 0 0 0 0 0 0.1 0"/><feBlend in2="BackgroundImageFix" result="effect1_dropShadow_5644_10542"/><feColorMatrix in="SourceAlpha" values="0 0 0 0 0 0 0 0 0 0 0 0 0 0 0 0 0 0 127 0" result="hardAlpha"/><feOffset/><feGaussianBlur stdDeviation=".099"/><feColorMatrix values="0 0 0 0 0 0 0 0 0 0 0 0 0 0 0 0 0 0 0.4 0"/><feBlend in2="effect1_dropShadow_5644_10542" result="effect2_dropShadow_5644_10542"/><feBlend in="SourceGraphic" in2="effect2_dropShadow_5644_10542" result="shape"/></filter><linearGradient id="paint0_linear_5644_10542" x1="31.184" y1="9.981" x2="40.181" y2="18.977" gradientUnits="userSpaceOnUse"><stop stop-opacity=".2"/><stop offset="1" stop-opacity="0"/></linearGradient></defs></svg>