<svg width="45" height="45" viewBox="0 0 45 45" fill="none" xmlns="http://www.w3.org/2000/svg"><g filter="url(#filter0_ii_5644_10552)"><path fill-rule="evenodd" clip-rule="evenodd" d="M9.177 3A3.177 3.177 0 006 6.177v33.356a3.177 3.177 0 003.177 3.177h25.811a3.177 3.177 0 003.177-3.177V12.927L28.238 3H9.177z" fill="#FA4E4E"/></g><path d="M28.53 29.744c-1.34-.1-2.63-.598-3.672-1.493-2.034.447-3.97 1.094-5.905 1.89-1.539 2.738-2.978 4.13-4.219 4.13-.248 0-.545-.049-.744-.198a1.467 1.467 0 01-.844-1.344c0-.448.1-1.691 4.814-3.732 1.092-1.99 1.935-4.03 2.63-6.17-.595-1.194-1.885-4.13-.992-5.623.297-.548.893-.846 1.538-.796.497 0 .993.248 1.29.646.646.896.596 2.787-.248 5.574a15.004 15.004 0 003.077 3.98c1.043-.198 2.084-.348 3.127-.348 2.332.05 2.68 1.145 2.63 1.792 0 1.692-1.638 1.692-2.482 1.692zm-13.895 3.085l.15-.05c.694-.249 1.24-.746 1.637-1.393a3.92 3.92 0 00-1.787 1.443zm6.6-14.928h-.148c-.05 0-.15 0-.199.05-.199.845-.05 1.74.298 2.537a4.192 4.192 0 00.05-2.587zm.348 7.215l-.05.1-.05-.05a41.15 41.15 0 01-1.488 3.383l.099-.05v.1c1.104-.4 2.23-.733 3.375-.995l-.05-.05h.149a15.228 15.228 0 01-1.985-2.438zm6.749 2.637c-.447 0-.844 0-1.29.1.496.248.992.348 1.488.398.348.05.695 0 .993-.1 0-.15-.199-.398-1.191-.398z" fill="#fff"/><path d="M37.233 11.997h-8.065l8.997 8.997v-8.066l-.932-.93z" fill="url(#paint0_linear_5644_10552)"/><path d="M31.413 12.928h6.751L28.236 3v6.75a3.177 3.177 0 003.177 3.178z" fill="#FDB8B8"/><defs><linearGradient id="paint0_linear_5644_10552" x1="31.184" y1="9.981" x2="40.181" y2="18.977" gradientUnits="userSpaceOnUse"><stop stop-opacity=".2"/><stop offset="1" stop-opacity="0"/></linearGradient><filter id="filter0_ii_5644_10552" x="6" y="2.801" width="32.166" height="40.107" filterUnits="userSpaceOnUse" color-interpolation-filters="sRGB"><feFlood flood-opacity="0" result="BackgroundImageFix"/><feBlend in="SourceGraphic" in2="BackgroundImageFix" result="shape"/><feColorMatrix in="SourceAlpha" values="0 0 0 0 0 0 0 0 0 0 0 0 0 0 0 0 0 0 127 0" result="hardAlpha"/><feOffset dy="-.397"/><feGaussianBlur stdDeviation=".099"/><feComposite in2="hardAlpha" operator="arithmetic" k2="-1" k3="1"/><feColorMatrix values="0 0 0 0 0 0 0 0 0 0 0 0 0 0 0 0 0 0 0.3 0"/><feBlend in2="shape" result="effect1_innerShadow_5644_10552"/><feColorMatrix in="SourceAlpha" values="0 0 0 0 0 0 0 0 0 0 0 0 0 0 0 0 0 0 127 0" result="hardAlpha"/><feOffset dy=".397"/><feGaussianBlur stdDeviation=".099"/><feComposite in2="hardAlpha" operator="arithmetic" k2="-1" k3="1"/><feColorMatrix values="0 0 0 0 1 0 0 0 0 1 0 0 0 0 1 0 0 0 0.3 0"/><feBlend in2="effect1_innerShadow_5644_10552" result="effect2_innerShadow_5644_10552"/></filter></defs></svg>