<svg width="45" height="45" viewBox="0 0 45 45" fill="none" xmlns="http://www.w3.org/2000/svg"><g filter="url(#filter0_ii_5644_10504)"><path fill-rule="evenodd" clip-rule="evenodd" d="M9.177 3A3.177 3.177 0 006 6.177v33.356a3.177 3.177 0 003.177 3.177h25.811a3.177 3.177 0 003.177-3.177V12.927L28.238 3H9.177z" fill="#FF9333"/></g><g filter="url(#filter1_dd_5644_10504)"><path d="M19.392 32.783v-6.09h4.338c3.405 0 5.128-1.48 5.128-4.422 0-2.92-1.702-4.38-5.107-4.38H17.69v14.892h1.703zm4.256-7.57h-4.256v-5.84h4.256c1.183 0 2.055.229 2.636.73.581.437.872 1.167.872 2.169 0 1-.29 1.73-.852 2.21-.58.48-1.453.73-2.656.73z" fill="#fff"/></g><path d="M37.233 11.997h-8.065l8.997 8.997v-8.066l-.932-.93z" fill="url(#paint0_linear_5644_10504)"/><path d="M31.413 12.928h6.751L28.236 3v6.75a3.177 3.177 0 003.177 3.178z" fill="#FFD3AD"/><defs><filter id="filter0_ii_5644_10504" x="6" y="2.801" width="32.166" height="40.107" filterUnits="userSpaceOnUse" color-interpolation-filters="sRGB"><feFlood flood-opacity="0" result="BackgroundImageFix"/><feBlend in="SourceGraphic" in2="BackgroundImageFix" result="shape"/><feColorMatrix in="SourceAlpha" values="0 0 0 0 0 0 0 0 0 0 0 0 0 0 0 0 0 0 127 0" result="hardAlpha"/><feOffset dy="-.397"/><feGaussianBlur stdDeviation=".099"/><feComposite in2="hardAlpha" operator="arithmetic" k2="-1" k3="1"/><feColorMatrix values="0 0 0 0 0 0 0 0 0 0 0 0 0 0 0 0 0 0 0.3 0"/><feBlend in2="shape" result="effect1_innerShadow_5644_10504"/><feColorMatrix in="SourceAlpha" values="0 0 0 0 0 0 0 0 0 0 0 0 0 0 0 0 0 0 127 0" result="hardAlpha"/><feOffset dy=".397"/><feGaussianBlur stdDeviation=".099"/><feComposite in2="hardAlpha" operator="arithmetic" k2="-1" k3="1"/><feColorMatrix values="0 0 0 0 1 0 0 0 0 1 0 0 0 0 1 0 0 0 0.3 0"/><feBlend in2="effect1_innerShadow_5644_10504" result="effect2_innerShadow_5644_10504"/></filter><filter id="filter1_dd_5644_10504" x="17.491" y="17.693" width="12.955" height="17.076" filterUnits="userSpaceOnUse" color-interpolation-filters="sRGB"><feFlood flood-opacity="0" result="BackgroundImageFix"/><feColorMatrix in="SourceAlpha" values="0 0 0 0 0 0 0 0 0 0 0 0 0 0 0 0 0 0 127 0" result="hardAlpha"/><feOffset dx=".794" dy="1.191"/><feGaussianBlur stdDeviation=".397"/><feColorMatrix values="0 0 0 0 0 0 0 0 0 0 0 0 0 0 0 0 0 0 0.1 0"/><feBlend in2="BackgroundImageFix" result="effect1_dropShadow_5644_10504"/><feColorMatrix in="SourceAlpha" values="0 0 0 0 0 0 0 0 0 0 0 0 0 0 0 0 0 0 127 0" result="hardAlpha"/><feOffset/><feGaussianBlur stdDeviation=".099"/><feColorMatrix values="0 0 0 0 0 0 0 0 0 0 0 0 0 0 0 0 0 0 0.4 0"/><feBlend in2="effect1_dropShadow_5644_10504" result="effect2_dropShadow_5644_10504"/><feBlend in="SourceGraphic" in2="effect2_dropShadow_5644_10504" result="shape"/></filter><linearGradient id="paint0_linear_5644_10504" x1="31.184" y1="9.981" x2="40.181" y2="18.977" gradientUnits="userSpaceOnUse"><stop stop-opacity=".2"/><stop offset="1" stop-opacity="0"/></linearGradient></defs></svg>