<svg width="25" height="25" viewBox="0 0 25 25" fill="none" xmlns="http://www.w3.org/2000/svg">
<path fill-rule="evenodd" clip-rule="evenodd" d="M18.0243 4.71321C18.9537 4.48258 19.8661 4.18879 20.7554 3.83391C19.2464 2.35704 17.3754 1.3026 15.33 0.776315C16.1931 1.5289 16.9054 2.43831 17.4293 3.4563C17.6488 3.86495 17.8474 4.28446 18.0243 4.71321ZM0.261719 12.0564H5.19938C5.21959 9.81399 5.60076 7.58947 6.32828 5.46816C5.29328 5.20596 4.27907 4.86772 3.29393 4.4562C1.42439 6.55685 0.35136 9.24638 0.261719 12.0564ZM6.00409 12.0564C6.02264 9.87592 6.39762 7.71316 7.11422 5.65362C7.24025 5.68095 7.36673 5.70731 7.49365 5.73268C9.08352 6.04842 10.7007 6.20641 12.3216 6.20435C13.9421 6.20632 15.5589 6.04833 17.1483 5.73268C17.2754 5.70748 17.4019 5.68113 17.5277 5.65362C18.2448 7.71309 18.6202 9.87585 18.6392 12.0564H6.00409ZM19.4439 12.0564C19.4237 9.81399 19.0425 7.58947 18.315 5.46816C19.35 5.20596 20.3642 4.86772 21.3494 4.4562C23.2189 6.55685 24.2919 9.24638 24.3816 12.0564H19.4439ZM24.3816 12.8604H19.4439C19.4236 15.1027 19.0425 17.3272 18.3153 19.4486C19.3502 19.7108 20.3643 20.049 21.3494 20.4605C23.2189 18.3599 24.2919 15.6703 24.3816 12.8604ZM18.6392 12.8604C18.6206 15.0408 18.2456 17.2036 17.5291 19.2631C17.4039 19.2358 17.2775 19.209 17.1496 19.1827C13.9617 18.5538 10.6816 18.5538 7.49365 19.1827C7.36655 19.2079 7.24007 19.2347 7.11422 19.2631C6.39765 17.2036 6.02266 15.0408 6.00409 12.8604H18.6392ZM5.19938 12.8604H0.261719C0.35136 15.6703 1.42439 18.3599 3.29393 20.4605C4.27907 20.049 5.29328 19.7108 6.32828 19.4486C5.60079 17.3272 5.21961 15.1027 5.19938 12.8604ZM20.7554 21.0834C19.2463 22.56 17.3753 23.6143 15.33 24.1404C16.1929 23.3877 16.9053 22.4783 17.4293 21.4604C17.6488 21.0518 17.8474 20.6323 18.0243 20.2035C18.9536 20.4344 19.8661 20.7285 20.7554 21.0834ZM17.2306 20.0213C17.1514 20.0043 17.0721 19.988 16.9925 19.9722C13.9083 19.3644 10.735 19.3644 7.65079 19.9722C7.57124 19.988 7.49186 20.0043 7.41267 20.0213C7.57106 20.3925 7.74088 20.7455 7.92215 21.0801C9.06714 23.2051 10.6245 24.5183 12.3216 24.5183C14.0187 24.5183 15.5761 23.2051 16.7222 21.0801C16.9024 20.7462 17.0722 20.3933 17.2317 20.0213H17.2306ZM6.61896 20.2035C6.79589 20.6321 6.99448 21.0514 7.21397 21.4599C7.73803 22.4778 8.45038 23.3871 9.3133 24.1399C7.26804 23.6139 5.39705 22.5598 3.88788 21.0834C4.77718 20.7284 5.68965 20.4344 6.61896 20.2035ZM3.88788 3.83337C5.39699 2.3567 7.26799 1.30245 9.3133 0.776315C8.45023 1.5289 7.73786 2.43831 7.21397 3.4563C6.99451 3.86495 6.79592 4.28446 6.61896 4.71321C5.68963 4.48258 4.77715 4.18879 3.88788 3.83391V3.83337ZM7.41267 4.89545C7.57106 4.52418 7.74088 4.17114 7.92215 3.83632C9.06714 1.71163 10.6245 0.398438 12.3216 0.398438C14.0187 0.398438 15.5761 1.71163 16.7222 3.83632C16.9024 4.17042 17.0722 4.52347 17.2317 4.89545C17.1525 4.91224 17.0731 4.92859 16.9936 4.94449C15.4554 5.24961 13.8909 5.40221 12.3227 5.40009C10.7546 5.40221 9.19002 5.24961 7.65186 4.94449C7.57159 4.92859 7.49186 4.91224 7.41267 4.89545Z" fill="#193762"/>
</svg>
