<svg width="27" height="27" viewBox="0 0 27 27" fill="none" xmlns="http://www.w3.org/2000/svg">
<path d="M21.1944 2.32131C20.8366 1.24786 19.8414 0.532227 18.7121 0.532227H8.89448C7.76512 0.532227 6.76994 1.24786 6.41213 2.32131L4.62305 7.64383H6.99358L8.53666 3.03694C8.59257 2.8804 8.72675 2.77976 8.89448 2.77976H18.7121C18.8686 2.77976 19.014 2.8804 19.0699 3.03694L20.6018 7.64383H22.9723L21.1944 2.32131Z" fill="#193762"/>
<path d="M26.1601 9.88965H1.4484C1.03467 9.88965 0.699219 10.2251 0.699219 10.6388V14.3847C0.699219 14.7984 1.03467 15.1339 1.4484 15.1339H2.7343L4.25502 25.0968C4.36684 25.8237 4.99301 26.3716 5.73101 26.3716H21.8775C22.6155 26.3716 23.2416 25.8348 23.3535 25.0968L24.8742 15.1339H26.1601C26.5738 15.1339 26.9093 14.7984 26.9093 14.3847V10.6388C26.9093 10.2251 26.5738 9.88965 26.1601 9.88965ZM9.67817 22.2455C9.67817 22.8605 9.17499 23.3637 8.56 23.3637C7.945 23.3637 7.44182 22.8605 7.44182 22.2455V17.3814C7.44182 16.7664 7.945 16.2633 8.56 16.2633C9.17499 16.2633 9.67817 16.7664 9.67817 17.3814V22.2455ZM14.9224 22.2455C14.9224 22.8605 14.4192 23.3637 13.8042 23.3637C13.1892 23.3637 12.6861 22.8605 12.6861 22.2455V17.3814C12.6861 16.7664 13.1892 16.2633 13.8042 16.2633C14.4192 16.2633 14.9224 16.7664 14.9224 17.3814V22.2455ZM20.1667 22.2455C20.1667 22.8605 19.6635 23.3637 19.0485 23.3637C18.4335 23.3637 17.9303 22.8605 17.9303 22.2455V17.3814C17.9303 16.7664 18.4335 16.2633 19.0485 16.2633C19.6635 16.2633 20.1667 16.7664 20.1667 17.3814V22.2455Z" fill="#193762"/>
</svg>
