<svg width="64" height="65" viewBox="0 0 64 65" fill="none" xmlns="http://www.w3.org/2000/svg">
<path fill-rule="evenodd" clip-rule="evenodd" d="M19.6296 1.46976L29.7319 11.67L26.7745 14.656L17.719 5.51285C15.3112 7.20407 12.9819 9.15955 10.8097 11.3529C8.61123 13.5726 6.67452 15.9245 4.99952 18.3556L14.0288 27.4723L11.0714 30.4584L0.995223 20.2846C0.210067 19.4919 0.0792082 18.2763 0.681161 17.325C4.71163 10.9565 10.3909 5.22217 16.6983 1.12623C17.6405 0.518446 18.8444 0.650573 19.6296 1.46976ZM52.8417 34.9772L62.944 45.1774C63.7292 45.9701 63.86 47.1857 63.2581 48.137C59.2276 54.5055 53.5483 60.2398 47.2409 64.3093C46.2987 64.9171 45.0948 64.785 44.3096 63.9922L34.2073 53.792L37.1647 50.806L46.194 59.9227C48.6018 58.2315 50.9311 56.276 53.1034 54.0827C55.2757 51.8894 57.2385 49.5375 58.8874 47.1064L49.8581 37.9897L52.8417 34.9772Z" fill="#FF6A3D"/>
<path fill-rule="evenodd" clip-rule="evenodd" d="M0.996792 45.1773L44.285 1.46969C45.0702 0.676924 46.2741 0.544797 47.2163 1.15258C53.5237 5.22209 59.203 10.9564 63.2335 17.3249C63.8354 18.2762 63.7046 19.4918 62.9194 20.2846L19.6312 63.9922C18.846 64.7849 17.6421 64.9171 16.6999 64.3093C10.3925 60.2398 4.7132 54.5054 0.682729 48.1369C0.0546048 47.1856 0.185464 45.97 0.996792 45.1773ZM40.2546 33.5237C41.0659 34.3429 41.0659 35.6906 40.2546 36.5098C39.4432 37.3289 38.1085 37.3289 37.2972 36.5098C36.4858 35.6906 36.4858 34.3429 37.2972 33.5237C38.1085 32.7045 39.4432 32.7045 40.2546 33.5237ZM32.7433 41.1078C33.5546 41.927 34.8893 41.927 35.7007 41.1078C36.512 40.2886 36.512 38.9409 35.7007 38.1217C34.8893 37.3025 33.5546 37.3025 32.7433 38.1217C31.9319 38.9409 31.9319 40.2886 32.7433 41.1078ZM35.7268 28.9257C36.5382 29.7449 36.5382 31.0926 35.7268 31.9117C34.9155 32.7309 33.5808 32.7309 32.7694 31.9117C31.9581 31.0926 31.9581 29.7449 32.7694 28.9257C33.5546 28.1065 34.8893 28.1065 35.7268 28.9257ZM28.1894 36.5362C29.0007 37.3554 30.3354 37.3554 31.1468 36.5362C31.9581 35.717 31.9581 34.3693 31.1468 33.5501C30.3354 32.7309 29.0007 32.7309 28.1894 33.5501C27.378 34.3429 27.378 35.6906 28.1894 36.5362ZM31.1729 24.3541C31.9843 25.1733 31.9843 26.521 31.1729 27.3401C30.3616 28.1593 29.0269 28.1593 28.2155 27.3401C27.4042 26.521 27.4042 25.1733 28.2155 24.3541C29.0269 23.5085 30.3616 23.5085 31.1729 24.3541ZM23.6616 31.9382C24.4729 32.7574 25.8077 32.7574 26.619 31.9382C27.4304 31.119 27.4304 29.7713 26.619 28.9521C25.8077 28.1329 24.4729 28.1329 23.6616 28.9521C22.8241 29.7713 22.8241 31.119 23.6616 31.9382ZM46.562 30.1412C47.1639 30.749 47.1639 31.7796 46.562 32.3874C45.96 32.9952 44.9393 32.9952 44.3374 32.3874L32.2722 20.2053C31.6702 19.5975 31.6702 18.5669 32.2722 17.9591C32.8741 17.3513 33.8948 17.3513 34.4968 17.9591L46.562 30.1412ZM31.644 45.2301C32.246 45.8379 32.246 46.8685 31.644 47.4763C31.0421 48.0841 30.0214 48.0841 29.4194 47.4763L17.3542 35.2942C16.7523 34.6864 16.7523 33.6558 17.3542 33.048C17.9562 32.4402 18.9769 32.4402 19.5788 33.048L31.644 45.2301Z" fill="#193762"/>
</svg>
