<svg width="66" height="63" viewBox="0 0 66 63" fill="none" xmlns="http://www.w3.org/2000/svg">
<path d="M5.70967 39.3989C4.878 38.5592 4.878 37.1776 5.70967 36.3379C6.54135 35.4982 7.9096 35.4982 8.76811 36.3379L9.73393 37.286L33.2892 13.5838C33.9331 12.9337 34.8721 12.8524 35.7038 13.1233L41.1768 15.0736C41.4987 15.182 41.767 15.3716 41.9816 15.5883L47.3205 20.9789C47.5619 21.2227 47.7229 21.5206 47.857 21.8457L49.8155 27.48C50.1106 28.2927 49.8692 29.1595 49.3058 29.7284L25.7773 53.4306L26.7431 54.3787C27.5748 55.2184 27.5748 56.5999 26.7431 57.4397C25.9114 58.2794 24.5432 58.2794 23.6847 57.4397C17.6751 51.4261 11.6924 45.4125 5.70967 39.3989ZM12.7655 58.7941C13.5972 59.6338 13.5972 61.0153 12.7655 61.8551C11.9339 62.6948 10.5656 62.6948 9.7071 61.8551L1.33665 53.4035C0.504971 52.5638 0.504971 51.1823 1.33665 50.3425C2.16833 49.5028 3.53658 49.5028 4.39508 50.3425L7.07792 53.0243L10.8875 49.1778L13.946 52.2387L10.1364 56.0853L12.7655 58.7941ZM22.692 50.3425L45.2815 27.5884L43.9133 23.6606L39.272 18.9743L35.3819 17.5928L12.7924 40.347C16.0654 43.6788 19.3921 47.0107 22.692 50.3425Z" fill="#193762"/>
<path fill-rule="evenodd" clip-rule="evenodd" d="M22.6924 45.7375L40.6137 27.6697H29.936L17.3535 40.347C19.1242 42.1348 20.9217 43.9497 22.6924 45.7375ZM42.3307 14.4235L48.4476 20.5725L51.3182 17.7012L50.7012 15.2632L65.6178 0.202148H59.5009L47.6427 12.1481L45.2014 11.525L42.3307 14.4235Z" fill="#FF6A3D"/>
</svg>
