<svg width="63" height="56" viewBox="0 0 63 56" fill="none" xmlns="http://www.w3.org/2000/svg">
<path d="M51.8972 44.5686C51.1011 44.5686 50.3774 44.8853 49.8467 45.4211C49.316 45.957 49.0024 46.6877 49.0024 47.4915C49.0024 48.2952 49.316 49.026 49.8467 49.5618C50.3774 50.0977 51.1011 50.4143 51.8972 50.4143C52.6932 50.4143 53.4169 50.0977 53.9476 49.5618C54.4783 49.026 54.7919 48.2952 54.7919 47.4915C54.7919 46.6877 54.4783 45.957 53.9476 45.4211C53.4169 44.8853 52.6932 44.5686 51.8972 44.5686ZM46.4453 41.9868C47.8445 40.5741 49.7743 39.6973 51.8972 39.6973C54.02 39.6973 55.9499 40.5741 57.349 41.9868C58.7481 43.3995 59.6166 45.3481 59.6166 47.4915C59.6166 49.6349 58.7481 51.5834 57.349 52.9961C55.9499 54.4088 54.02 55.2857 51.8972 55.2857C49.7743 55.2857 47.8445 54.4088 46.4453 52.9961C45.0462 51.5834 44.1777 49.6349 44.1777 47.4915C44.1777 45.3481 45.0462 43.3995 46.4453 41.9868Z" fill="#FF6A3D"/>
<path d="M16.1964 8.5206V4.6235C16.1964 2.21217 18.1504 0.239258 20.5386 0.239258H42.2495C44.6377 0.239258 46.5917 2.21217 46.5917 4.6235V8.5206H43.6969V4.6235C43.6969 3.81972 43.0456 3.16208 42.2495 3.16208H20.5386C19.7426 3.16208 19.0912 3.81972 19.0912 4.6235V8.5206H16.1964ZM51.8988 44.5688C50.3066 44.5688 49.004 45.8841 49.004 47.4916C49.004 49.0992 50.3066 50.4144 51.8988 50.4144C53.4909 50.4144 54.7936 49.0992 54.7936 47.4916C54.7936 45.8841 53.4909 44.5688 51.8988 44.5688ZM51.8988 39.6974C56.1686 39.6974 59.6182 43.1804 59.6182 47.4916C59.6182 51.8028 56.1686 55.2858 51.8988 55.2858C47.629 55.2858 44.1793 51.8028 44.1793 47.4916C44.1793 43.1804 47.629 39.6974 51.8988 39.6974ZM10.8893 44.5688C9.29721 44.5688 7.99456 45.8841 7.99456 47.4916C7.99456 49.0992 9.29721 50.4144 10.8893 50.4144C12.4815 50.4144 13.7841 49.0992 13.7841 47.4916C13.7841 45.8841 12.4815 44.5688 10.8893 44.5688ZM10.8893 39.6974C15.1591 39.6974 18.6088 43.1804 18.6088 47.4916C18.6088 51.8028 15.1591 55.2858 10.8893 55.2858C6.61954 55.2858 3.16992 51.8028 3.16992 47.4916C3.16992 43.1804 6.61954 39.6974 10.8893 39.6974Z" fill="#FF6A3D"/>
<path fill-rule="evenodd" clip-rule="evenodd" d="M44.2992 25.6187L33.9021 32.9745L44.1062 40.2085C43.4549 40.9392 42.9001 41.743 42.4417 42.5955L31.3933 34.7526L20.3208 42.5711C19.8865 41.7186 19.3317 40.9149 18.6563 40.1842L28.8604 32.9502L18.4633 25.5944L15.1102 37.6267C14.2176 37.237 13.3009 36.969 12.336 36.8473L16.2198 22.9151C11.4193 22.3306 6.64292 21.4537 1.96302 20.2602C1.09458 20.041 0.515625 19.2859 0.515625 18.3847C0.515625 17.0695 0.515625 15.7298 0.515625 14.3659C0.515625 12.7583 1.81828 11.443 3.41041 11.443H44.7334L58.5078 6.23066C60.3653 5.62173 62.271 7.08315 62.271 9.0317V18.4335C62.271 19.3347 61.692 20.0897 60.8236 20.3089C56.1437 21.5024 51.3673 22.3549 46.5668 22.9638L50.4506 36.896C49.4857 37.0421 48.5449 37.2857 47.6765 37.6754L44.2992 25.6187ZM42.4417 23.3779C38.7509 23.6945 35.06 23.865 31.3933 23.865C27.7025 23.865 24.0116 23.7189 20.3449 23.3779L31.3933 31.1965L42.4417 23.3779ZM59.0385 8.13049C59.5451 7.93564 60.0999 8.20356 60.2688 8.6907C60.4618 9.2022 60.1964 9.7624 59.7139 9.9329L45.6019 15.2671C45.4813 15.3158 45.3606 15.3401 45.24 15.3401H3.41041C2.8797 15.3401 2.44548 14.9017 2.44548 14.3659C2.44548 13.83 2.8797 13.3916 3.41041 13.3916H45.0953L59.0385 8.13049Z" fill="#193762"/>
</svg>
