<svg width="55" height="70" viewBox="0 0 55 70" fill="none" xmlns="http://www.w3.org/2000/svg">
<g clip-path="url(#clip0_3219_4488)">
<path d="M50.423 3.91992C53.2391 5.59887 54.9287 8.90262 54.4192 12.3418C54.4192 12.423 54.3923 12.5313 54.3655 12.6126L51.9517 27.6148C52.354 28.1293 52.5686 28.8063 52.4613 29.5375C51.3617 36.3887 46.9096 41.4526 40.0436 42.59V52.8803C40.0436 61.9521 32.6413 69.399 23.6566 69.399C14.6719 69.399 7.26953 61.9521 7.26953 52.8803V42.942C7.99367 43.1045 8.71781 43.1586 9.46877 43.1586C10.3807 43.1586 11.2657 43.0503 12.124 42.8337V52.8803C12.124 59.2982 17.327 64.5246 23.6834 64.5246C30.0397 64.5246 35.2428 59.2982 35.2428 52.8803V42.6441C28.1623 41.6963 23.4957 36.5512 22.3692 29.5375C22.2619 28.8334 22.4497 28.1564 22.8788 27.6148L20.4382 12.4772C19.875 8.98386 21.5646 5.62595 24.4344 3.91992C24.4075 4.29904 24.4344 4.67816 24.5148 5.0302C24.6489 5.81551 24.9439 6.57375 25.3731 7.19658C24.0857 8.30686 23.3616 10.04 23.6029 11.8543C23.6029 11.9356 23.6298 12.0168 23.6298 12.098L26.0436 27.1274C26.6068 27.4794 27.0091 28.0752 27.1164 28.7792C28.0014 34.3035 31.7831 37.9322 37.4153 37.9322C43.0743 37.9322 46.8291 34.3035 47.7142 28.7792C47.8214 28.0752 48.2237 27.4794 48.787 27.1274C49.5916 22.0905 50.3962 17.0266 51.2276 11.9626C51.5226 10.1212 50.7985 8.33394 49.4843 7.19658C49.9134 6.54667 50.2084 5.81551 50.3425 5.0302C50.3962 4.65108 50.423 4.27196 50.423 3.91992Z" fill="#193762"/>
<path fill-rule="evenodd" clip-rule="evenodd" d="M48.2236 4.67837C48.4649 3.27022 47.7676 1.91623 46.5875 1.29339L45.1393 0.535155C42.8327 -0.656359 40.0435 0.616395 39.6143 3.24314C39.1852 5.86989 41.4113 7.98212 43.9592 7.603L45.5684 7.35928C46.9094 7.14264 47.9822 6.08653 48.2236 4.67837ZM9.46861 23.6884C14.2158 23.6884 18.0778 27.5609 18.0778 32.354C18.0778 37.1471 14.2158 41.0195 9.46861 41.0195C4.72146 41.0195 0.859375 37.1471 0.859375 32.354C0.859375 27.5609 4.72146 23.6884 9.46861 23.6884ZM10.9705 30.8104C9.62953 29.4564 7.29618 30.4042 7.29618 32.354C7.29618 34.2767 9.62953 35.2515 10.9705 33.8975C11.802 33.031 11.802 31.677 10.9705 30.8104ZM26.5798 4.67837C26.3384 3.27022 27.0357 1.91623 28.2158 1.29339L29.6641 0.535155C31.9706 -0.656359 34.7599 0.616395 35.189 3.24314C35.6181 5.86989 33.3921 7.98212 30.8442 7.603L29.235 7.35928C27.894 7.14264 26.8212 6.08653 26.5798 4.67837Z" fill="#FF6A3D"/>
</g>
<defs>
<clipPath id="clip0_3219_4488">
<rect width="53.6401" height="69.3244" fill="white" transform="translate(0.859375 0.0751953)"/>
</clipPath>
</defs>
</svg>
