<svg width="66" height="67" viewBox="0 0 66 67" fill="none" xmlns="http://www.w3.org/2000/svg">
<path fill-rule="evenodd" clip-rule="evenodd" d="M44.2744 33.3793C49.9483 33.3793 54.5439 38.0194 54.5439 43.7483C54.5439 49.4771 49.9483 54.1173 44.2744 54.1173C43.2475 54.1173 42.2462 53.9617 41.2963 53.6766C41.0652 53.0026 40.8085 52.3545 40.449 51.7324C40.372 51.525 40.2436 51.3436 40.1153 51.1362C38.7032 48.8032 36.6236 47.1182 34.2873 46.185C34.1076 45.4073 34.0049 44.5778 34.0049 43.7483C34.0049 38.0194 38.6005 33.3793 44.2744 33.3793ZM1.42496 29.3613L15.2888 5.12384C17.9588 0.431878 23.9665 -1.20124 28.6134 1.52062C33.2604 4.24248 34.8778 10.2824 32.1821 14.9744L31.2835 16.5556L25.9947 17.9814C25.892 18.0073 25.7893 18.0332 25.661 18.0851L28.6134 12.9006C30.1539 10.1787 29.2296 6.67919 26.5339 5.09792C23.8381 3.51665 20.3722 4.47578 18.8061 7.19764L11.8742 19.3293L18.6777 23.2696C16.6752 26.2766 15.9049 30.1131 16.9062 33.8459C17.317 35.4272 18.0359 36.8529 18.9344 38.1231L18.3183 39.2118C15.6482 43.9038 9.64056 45.5369 4.99361 42.8151C0.346666 40.1191 -1.27078 34.0533 1.42496 29.3613ZM48.8957 42.1929C49.7429 42.1929 50.4361 42.8928 50.4361 43.7483C50.4361 44.6037 49.7429 45.3036 48.8957 45.3036H39.6531C38.8059 45.3036 38.1127 44.6037 38.1127 43.7483C38.1127 42.8928 38.8059 42.1929 39.6531 42.1929H48.8957Z" fill="#193762"/>
<path fill-rule="evenodd" clip-rule="evenodd" d="M25.4025 49.6585C29.69 47.17 35.1842 48.6475 37.6488 52.9766C40.1135 57.3056 38.6501 62.853 34.3626 65.3416C30.0751 67.8301 24.5809 66.3526 22.1162 62.0235C19.6259 57.6945 21.115 52.173 25.4025 49.6585ZM26.7889 20.9883L53.5666 13.73C58.7527 12.3302 64.1185 15.4668 65.5048 20.7031C66.8912 25.9395 63.7847 31.3573 58.5986 32.7571L53.5922 34.105C52.2572 32.783 50.6654 31.7461 48.8683 31.098L57.5203 28.765C60.5241 27.9614 62.3213 24.7989 61.5254 21.7919C60.7295 18.759 57.5973 16.9444 54.6192 17.748L41.2175 21.3771L43.5795 30.2944C40.1649 30.4759 37.084 31.9276 34.7991 34.2347C33.2073 35.8418 32.0006 37.8638 31.3845 40.119C26.3267 41.2596 21.192 38.1489 19.857 33.0422C18.4962 27.8059 21.6028 22.3881 26.7889 20.9883ZM34.7477 57.2019C35.5693 57.4352 36.0571 58.2648 35.826 59.0943C35.595 59.9238 34.7734 60.4163 33.9518 60.183L25.0174 57.7722C24.1958 57.5389 23.708 56.7094 23.9391 55.8799C24.1701 55.0504 24.9917 54.5578 25.8133 54.7911L34.7477 57.2019Z" fill="#FF6A3D"/>
</svg>
