<svg width="51" height="65" viewBox="0 0 51 65" fill="none" xmlns="http://www.w3.org/2000/svg">
<path d="M8.09912 63.9992C8.09912 61.3328 9.40718 58.9903 11.4063 57.5201C9.57995 56.5233 7.90167 55.2524 6.44552 53.7821C2.62004 49.9196 0.275391 44.6117 0.275391 38.7556C0.275391 30.4574 5.03873 22.9316 12.4676 19.418C11.7765 22.209 12.5663 25.2492 14.442 27.4172C10.7893 29.7347 8.3706 33.7218 8.22252 38.1077C7.97571 45.5836 15.5033 51.1157 23.6725 49.172L44.8978 43.4405C45.959 43.1664 47.045 43.7893 47.3165 44.8609C47.588 45.9324 46.9709 47.004 45.9097 47.303L25.3508 52.8601L26.2887 56.0747H42.2323C46.5761 56.0747 50.1547 59.6631 50.1547 64.049H8.09912V63.9992Z" fill="#193762"/>
<path d="M28.0412 40.7743C26.9799 41.0484 25.894 40.4255 25.6225 39.3539C25.351 38.2824 25.968 37.2108 27.0293 36.9118L38.0121 33.9464C39.0734 33.6722 40.1593 34.2952 40.4308 35.3668C40.7023 36.4383 40.0853 37.5099 39.024 37.8089L28.0412 40.7743Z" fill="#FF6A3D"/>
<path fill-rule="evenodd" clip-rule="evenodd" d="M25.623 0.230215L20.835 1.52603C20.3167 1.67555 19.9958 2.22378 20.1439 2.7471L21.7481 8.77764L19.9218 9.27604C18.8358 9.57507 18.1695 10.7214 18.4656 11.8178L19.6009 16.0791C16.4418 16.9264 14.5661 20.2157 15.4052 23.4055C16.2444 26.5952 19.5022 28.4891 22.6613 27.6418L24.3396 33.9714C24.6111 35.0429 25.7217 35.6659 26.7583 35.3918L37.2722 32.551C38.3334 32.2768 38.9505 31.1804 38.679 30.1088L32.7803 7.93038C32.4842 6.83391 31.3489 6.16108 30.2629 6.46012L28.4366 6.95851L26.8323 0.952884C26.6842 0.404652 26.1413 0.105617 25.623 0.230215ZM21.6247 23.7543C22.686 23.4802 23.303 22.3838 23.0315 21.3122C22.7354 20.2407 21.6741 19.6177 20.6128 19.8918C19.5516 20.1659 18.9346 21.2624 19.206 22.3339C19.4775 23.4304 20.5635 24.0534 21.6247 23.7543Z" fill="#FF6A3D"/>
</svg>
