<svg width="61" height="61" viewBox="0 0 61 61" fill="none" xmlns="http://www.w3.org/2000/svg"><path d="M15.25 0a3.824 3.824 0 00-3.813 3.813v53.374A3.824 3.824 0 0015.25 61h38.125a3.824 3.824 0 003.813-3.813V15.25L41.938 0H15.25z" fill="#fff"/><path d="M45.75 15.25h11.438L41.938 0v11.438a3.824 3.824 0 003.812 3.812z" fill="#B0B7BD"/><path d="M57.188 26.688L45.75 15.25h11.438v11.438z" fill="#CAD1D8"/><path d="M49.563 49.563a1.912 1.912 0 01-1.907 1.906H5.72a1.912 1.912 0 01-1.907-1.907V30.5c0-1.048.858-1.906 1.907-1.906h41.937c1.049 0 1.907.858 1.907 1.906v19.063z" fill="#F15642"/><path d="M12.121 36.119c0-.504.397-1.053 1.035-1.053h3.521c1.983 0 3.767 1.327 3.767 3.87 0 2.41-1.784 3.752-3.767 3.752h-2.545V44.7c0 .67-.427 1.05-.976 1.05-.503 0-1.035-.38-1.035-1.05v-8.582zm2.011.867v3.797h2.545c1.022 0 1.83-.901 1.83-1.847 0-1.066-.808-1.95-1.83-1.95h-2.545zm9.298 8.764c-.504 0-1.053-.274-1.053-.943v-8.658c0-.547.549-.946 1.052-.946h3.49c6.966 0 6.814 10.547.138 10.547h-3.628zm.96-8.686v6.828h2.53c4.115 0 4.298-6.828 0-6.828h-2.53zm11.813.124v2.422h3.887c.549 0 1.098.55 1.098 1.081 0 .503-.55.915-1.098.915h-3.887v3.2c0 .535-.38.944-.913.944-.671 0-1.081-.41-1.081-.943v-8.658c0-.547.412-.946 1.08-.946h5.352c.67 0 1.067.398 1.067.946 0 .488-.396 1.037-1.067 1.037h-4.438v.002z" fill="#fff"/><path d="M47.656 51.469H11.438v1.906h36.218a1.912 1.912 0 001.907-1.906v-1.907a1.912 1.912 0 01-1.907 1.907z" fill="#CAD1D8"/></svg>