<svg width="32" height="32" viewBox="0 0 32 32" fill="inherit" xmlns="http://www.w3.org/2000/svg"><path d="M6.666 13.334h2.667c2.666 0 4-1.334 4-4V6.667c0-2.667-1.334-4-4-4H6.666c-2.667 0-4 1.333-4 4v2.667c0 2.666 1.333 4 4 4zm16 0h2.667c2.666 0 4-1.334 4-4V6.667c0-2.667-1.334-4-4-4h-2.667c-2.667 0-4 1.333-4 4v2.667c0 2.666 1.333 4 4 4zm0 16h2.667c2.666 0 4-1.334 4-4v-2.667c0-2.667-1.334-4-4-4h-2.667c-2.667 0-4 1.333-4 4v2.667c0 2.666 1.333 4 4 4zm-16 0h2.667c2.666 0 4-1.334 4-4v-2.667c0-2.667-1.334-4-4-4H6.666c-2.667 0-4 1.333-4 4v2.667c0 2.666 1.333 4 4 4z" stroke="inherit" stroke-width="2" stroke-miterlimit="10" stroke-linecap="round" stroke-linejoin="round"/></svg>