<svg width="38" height="30" viewBox="0 0 38 30" fill="inherit" xmlns="http://www.w3.org/2000/svg"><path d="M5 12.334h2.667c2.666 0 4-1.334 4-4V5.667c0-2.667-1.334-4-4-4H5c-2.667 0-4 1.333-4 4v2.667c0 2.666 1.333 4 4 4zm0 16.333h2.667c2.666 0 4-1.334 4-4V22c0-2.667-1.334-4-4-4H5c-2.667 0-4 1.333-4 4v2.667c0 2.666 1.333 4 4 4z" stroke="inherit" stroke-width="2" stroke-miterlimit="10" stroke-linecap="round" stroke-linejoin="round"/><rect x="17" y="4" width="21" height="6" rx="2"/><rect x="17" y="20.333" width="21" height="6" rx="2"/></svg>