<svg width="22" height="23" viewBox="0 0 22 23" fill="none" xmlns="http://www.w3.org/2000/svg"><path d="M21.367 18.379l-.981-2.936a.638.638 0 01.04-.503 7.647 7.647 0 00.722-4.891c-.486-2.726-2.482-4.989-5.07-5.857a9.157 9.157 0 01.536 5.183 8.972 8.972 0 01-7.203 7.13c-.47.081-.94.122-1.411.138a7.564 7.564 0 004.21 2.328c1.768.316 3.439.024 4.866-.706a.637.637 0 01.503-.04l2.945.981a.658.658 0 00.843-.827z" fill="#fff"/><path d="M6.313.137C3.255.704.805 3.187.253 6.252a7.646 7.646 0 00.723 4.891.638.638 0 01.04.503l-.981 2.937a.66.66 0 00.835.835l2.944-.981a.64.64 0 01.503.04 7.676 7.676 0 004.867.706c3.058-.552 5.532-2.993 6.108-6.043A7.665 7.665 0 006.312.137zm1.946 9.895H4.455a.68.68 0 110-1.362H8.26a.68.68 0 110 1.362zm2.718-2.717H4.455a.68.68 0 110-1.363h6.522a.68.68 0 110 1.363z" fill="#fff"/></svg>