<svg xmlns="http://www.w3.org/2000/svg" width="21" height="22" viewBox="0 0 21 22" fill="none"><path d="M1.757 1.664h0l-.022.023a5.296 5.296 0 000 7.652l-.07.072.07-.072L12.99 20.255c1.514 1.467 3.976 1.467 5.49 0a3.681 3.681 0 000-5.315L7.222 4.025a2.232 2.232 0 00-3.076 0l-.07-.072.07.072a2.065 2.065 0 000 2.975l-.07.072.07-.072 10.452 10.136.015.014a.478.478 0 00.655-.009.442.442 0 00.136-.321h0a.443.443 0 00-.14-.32h0-.002L4.811 6.364a1.165 1.165 0 010-1.703 1.247 1.247 0 011.748 0h0l11.256 10.915a2.78 2.78 0 010 4.042 2.986 2.986 0 01-4.16 0L2.4 8.703l.07-.072-.07.072C.57 6.93.57 4.096 2.4 2.323a4.725 4.725 0 016.57 0l10.452 10.135h0l-.053.055.054-.054a.477.477 0 00.334.138h0a.477.477 0 00.336-.133h0a.442.442 0 00.136-.322h.1-.1a.444.444 0 00-.141-.32h0-.001L9.635 1.686C7.461-.422 3.94-.429 1.757 1.664z" fill="#FF6A3D" stroke="#FF6A3D" stroke-width=".2"/></svg>