<svg width="23" height="23" viewBox="0 0 23 23" fill="none" xmlns="http://www.w3.org/2000/svg"><g id="Group"><path id="Vector" d="M0 23l1.626-5.903a11.287 11.287 0 01-1.527-5.7C.099 5.11 5.239 0 11.549 0c3.065 0 5.943 1.186 8.1 3.34A11.274 11.274 0 0123 11.402c0 6.285-5.14 11.396-11.456 11.396h-.006c-1.916 0-3.8-.481-5.475-1.388L0 23zm6.354-3.651l.346.208a9.58 9.58 0 004.844 1.322h.005c5.245 0 9.518-4.247 9.518-9.472 0-2.53-.989-4.908-2.785-6.701a9.468 9.468 0 00-6.733-2.777c-5.244-.005-9.517 4.242-9.517 9.467a9.4 9.4 0 001.455 5.04l.226.36-.962 3.493 3.603-.94z" fill="#fff"/><path id="Vector_2" d="M.4 22.601l1.571-5.7a10.912 10.912 0 01-1.483-5.499C.494 5.335 5.453.399 11.548.399a11.01 11.01 0 017.821 3.225 10.909 10.909 0 013.235 7.784c0 6.066-4.965 11.002-11.055 11.002h-.006a11.11 11.11 0 01-5.283-1.339L.4 22.601z" fill="currentColor"/><path id="Vector_3" d="M0 23l1.626-5.903a11.287 11.287 0 01-1.527-5.7C.099 5.11 5.239 0 11.549 0c3.065 0 5.943 1.186 8.1 3.34A11.274 11.274 0 0123 11.402c0 6.285-5.14 11.396-11.456 11.396h-.006c-1.916 0-3.8-.481-5.475-1.388L0 23zm6.354-3.651l.346.208a9.58 9.58 0 004.844 1.322h.005c5.245 0 9.518-4.247 9.518-9.472 0-2.53-.989-4.908-2.785-6.701a9.468 9.468 0 00-6.733-2.777c-5.244-.005-9.517 4.242-9.517 9.467a9.4 9.4 0 001.455 5.04l.226.36-.962 3.493 3.603-.94z" fill="currentColor"/><path id="Vector_4" fill-rule="evenodd" clip-rule="evenodd" d="M8.689 6.63c-.214-.475-.44-.486-.643-.492-.164-.005-.357-.005-.549-.005-.192 0-.5.07-.763.355-.264.284-1 .973-1 2.378 0 1.399 1.027 2.755 1.17 2.946.143.191 1.983 3.159 4.888 4.301 2.416.951 2.91.76 3.432.71.522-.048 1.692-.688 1.933-1.355.237-.666.237-1.235.165-1.355-.071-.12-.263-.191-.549-.334-.285-.142-1.691-.83-1.955-.929-.264-.093-.456-.142-.643.142-.192.285-.741.924-.906 1.115-.165.192-.335.214-.62.071-.286-.142-1.209-.442-2.301-1.415-.852-.755-1.428-1.69-1.593-1.973-.165-.285-.017-.438.126-.58.127-.125.286-.333.429-.497.142-.164.192-.284.285-.476.094-.19.05-.355-.022-.497-.071-.137-.631-1.547-.884-2.11z" fill="#fff"/></g></svg>