<svg width="25" height="26" viewBox="0 0 25 26" fill="none" xmlns="http://www.w3.org/2000/svg"><g id="vk-svgrepo-com 1"><path id="Vector" d="M24.434 6.266c-.281.92-.66 1.72-1.135 2.447l.02-.032a131.31 131.31 0 01-1.672 2.803c-.556.838-.85 1.27-.883 1.3a1.415 1.415 0 00-.278.67v.007c.027.23.13.43.278.58l.417.483c2.23 2.383 3.483 4.025 3.761 4.927a.991.991 0 01-.117.898l.003-.003a.987.987 0 01-.817.313h.004-2.745c-.351 0-.674-.128-.928-.34l.004.002a7.365 7.365 0 01-.991-1.027l-.01-.013a31.594 31.594 0 00-1.276-1.424c-1.238-1.224-2.151-1.836-2.74-1.836a.799.799 0 00-.538.146l.003-.002a.852.852 0 00-.166.633v-.004a14.082 14.082 0 00-.04 1.52v-.019 1.256a.858.858 0 01-.277.82v.001a3.205 3.205 0 01-1.685.29h.013a8.43 8.43 0 01-4.453-1.373l.037.021a12.65 12.65 0 01-3.872-3.818l-.028-.046a28.768 28.768 0 01-2.574-4.325l-.073-.166A27.266 27.266 0 01.39 7.919l-.062-.2a7.452 7.452 0 01-.323-1.663l-.002-.027c0-.548.31-.821.93-.821h2.739a1.076 1.076 0 01.77.244l-.003-.003c.209.237.363.529.439.854l.003.013a28.117 28.117 0 001.653 3.916l-.07-.148a15.872 15.872 0 001.691 2.79l-.024-.033c.556.709.989 1.064 1.3 1.064h.033a.415.415 0 00.362-.216v-.002a2 2 0 00.116-.853v.007-4.203a3.591 3.591 0 00-.333-1.372l.008.02a3.22 3.22 0 00-.468-.752l.003.004a1.208 1.208 0 01-.324-.67l-.001-.007a.6.6 0 01.208-.458l.001-.002a.692.692 0 01.48-.192h4.327a.65.65 0 01.582.24v.001a1.52 1.52 0 01.166.827V6.27v5.605a1.093 1.093 0 00.142.633l-.002-.005a.414.414 0 00.347.193.96.96 0 00.492-.176l-.004.002c.284-.202.527-.433.739-.694l.004-.006a16.896 16.896 0 001.724-2.437l.04-.076c.36-.617.747-1.378 1.098-2.159l.064-.16.465-.966c.161-.483.595-.823 1.104-.823l.06.001h-.004 2.74c.741 0 1.019.354.834 1.063z" fill="currentColor"/></g></svg>