<svg width="25" height="20" viewBox="0 0 25 20" fill="none" xmlns="http://www.w3.org/2000/svg"><g id="Group"><path id="Vector" d="M24.485 3.749c-.288-1.114-1.133-1.992-2.203-2.292C20.325.9 12.5.9 12.5.9s-7.825 0-9.782.536c-1.05.3-1.915 1.2-2.203 2.313C0 5.783 0 10.002 0 10.002s0 4.241.515 6.254c.288 1.114 1.132 1.992 2.203 2.292 1.977.557 9.782.557 9.782.557s7.825 0 9.782-.536c1.07-.3 1.915-1.178 2.203-2.291.515-2.035.515-6.254.515-6.254s.02-4.24-.515-6.275z" fill="currentColor"/><path id="Vector_2" d="M10.008 13.9l6.507-3.898-6.507-3.898V13.9z" fill="#fff"/></g></svg>