<svg width="24" height="24" viewBox="0 0 24 24" fill="none" xmlns="http://www.w3.org/2000/svg"><path d="M23.506 6.229a3.007 3.007 0 00-2.116-2.115C19.512 3.6 12 3.6 12 3.6s-7.512 0-9.39.494A3.069 3.069 0 00.494 6.229C0 8.107 0 12 0 12s0 3.915.494 5.773A3.007 3.007 0 002.61 19.89c1.897.514 9.39.514 9.39.514s7.512 0 9.39-.495a3.007 3.007 0 002.116-2.115C24 15.916 24 12.02 24 12.02s.02-3.914-.494-5.792z" fill="currentColor"/><path d="M9.607 15.6l6.248-3.598-6.248-3.598V15.6z" fill="#193762"/></svg>