<svg width="28" height="28" viewBox="0 0 28 28" fill="none" xmlns="http://www.w3.org/2000/svg"><g clip-path="url(#clip0_3635_10411)"><path fill-rule="evenodd" clip-rule="evenodd" d="M3.297 12.724C10.102 9.759 14.64 7.805 16.91 6.861c6.482-2.696 7.83-3.165 8.707-3.18.193-.004.625.044.905.271.236.192.3.45.332.632.03.182.07.596.039.92-.351 3.69-1.871 12.646-2.645 16.78-.327 1.75-.971 2.336-1.595 2.393-1.355.125-2.385-.896-3.697-1.756-2.055-1.347-3.215-2.185-5.21-3.5-2.304-1.518-.81-2.352.504-3.716.343-.357 6.315-5.79 6.431-6.282.014-.062.028-.292-.109-.413-.136-.121-.338-.08-.483-.047-.206.047-3.488 2.216-9.845 6.508-.932.64-1.776.95-2.532.934-.833-.018-2.436-.47-3.628-.858-1.462-.475-2.623-.727-2.522-1.533.053-.42.631-.85 1.736-1.29z" fill="#193762"/></g><defs><clipPath id="clip0_3635_10411"><path fill="#fff" transform="translate(1.063 .333)" d="M0 0h26.333v26.333H0z"/></clipPath></defs></svg>