<svg width="28" height="28" viewBox="0 0 28 28" fill="none" xmlns="http://www.w3.org/2000/svg"><path d="M1.909 5.916h3.113c.395 0 .701.263.833.614.395 1.14 1.272 3.64 2.28 5.35 1.36 2.236 2.236 3.069 2.806 2.981.57-.132.395-1.622.395-2.806s.132-3.201-.438-4.122l-.877-1.272a.438.438 0 01.35-.701h5a.88.88 0 01.876.877v6.358s.22 1.14 1.447-.044c1.228-1.184 2.543-3.376 3.64-5.613l.438-1.052a.866.866 0 01.79-.526h3.244c.614 0 1.052.614.833 1.184l-.35.92s-1.185 2.368-2.412 4.035c-1.228 1.71-1.491 2.104-1.316 2.543.175.438 3.333 3.376 4.122 4.78.22.394.395.745.57 1.052.307.57-.132 1.315-.79 1.315H22.78c-.306 0-.614-.175-.745-.439l-.35-.57s-2.237-2.63-3.596-3.463c-1.403-.79-1.36.35-1.36.35v2.324a1.76 1.76 0 01-1.754 1.754h-.877s-4.823 0-8.681-5.744C2.39 11.53 1.383 8.635 1.032 6.968c-.088-.526.307-1.052.877-1.052z" fill="#193762"/></svg>