<svg width="27" height="24" viewBox="0 0 27 24" fill="none" xmlns="http://www.w3.org/2000/svg">
<path d="M26.2089 22.7294L25.0261 19.1908C24.9577 18.9856 24.9773 18.7705 25.075 18.5848C25.9645 16.8644 26.3262 14.8311 25.945 12.6904C25.3585 9.40599 22.9538 6.67874 19.8356 5.63281C20.6371 7.57805 20.8815 9.73834 20.4807 11.8791C19.6596 16.229 16.1797 19.6894 11.8005 20.4714C11.2335 20.5691 10.6666 20.618 10.0996 20.6375C11.429 22.0745 13.1983 23.0911 15.1729 23.443C17.3038 23.8242 19.3175 23.4723 21.0379 22.5925C21.2236 22.4948 21.4387 22.4752 21.644 22.5437L25.1923 23.7265C25.8277 23.9415 26.4142 23.3452 26.2089 22.7294Z" fill="#193762"/>
<path d="M8.06466 0.745689C4.37946 1.42994 1.42739 4.42111 0.762686 8.11609C0.381458 10.2568 0.743135 12.29 1.63267 14.0105C1.73042 14.1962 1.74997 14.4112 1.68154 14.6165L0.498759 18.1551C0.293483 18.7807 0.879986 19.3672 1.50559 19.1619L5.05394 17.9791C5.24944 17.9107 5.47427 17.9303 5.65999 18.028C7.37063 18.898 9.39407 19.2597 11.525 18.8784C15.2102 18.2137 18.1916 15.2714 18.8857 11.596C20.0978 5.10537 14.5358 -0.456645 8.06466 0.745689ZM10.4107 12.6713H5.82617C5.37652 12.6713 5.00506 12.3096 5.00506 11.8502C5.00506 11.4005 5.36674 11.0291 5.82617 11.0291H10.4107C10.8603 11.0291 11.2318 11.3907 11.2318 11.8502C11.2318 12.2998 10.8603 12.6713 10.4107 12.6713ZM13.6853 9.39662H5.82617C5.37652 9.39662 5.00506 9.03494 5.00506 8.57552C5.00506 8.12586 5.36674 7.75441 5.82617 7.75441H13.6853C14.135 7.75441 14.5064 8.11609 14.5064 8.57552C14.5064 9.02517 14.135 9.39662 13.6853 9.39662Z" fill="#193762"/>
</svg>
