<svg width="26" height="28" viewBox="0 0 26 28" fill="none" xmlns="http://www.w3.org/2000/svg">
<path d="M24.5596 8.99764L14.0114 15.3265C13.9043 15.3908 13.8401 15.5086 13.8401 15.6371V27.4274C13.8401 27.7059 14.1399 27.8772 14.3755 27.738L24.9237 21.6447C25.0308 21.5804 25.1057 21.4626 25.1057 21.3341V9.30819C25.095 9.02976 24.7952 8.85842 24.5596 8.99764ZM1.32154 8.99764C1.08594 8.85842 0.775391 9.02976 0.775391 9.30819V21.3341C0.775391 21.4626 0.839643 21.5804 0.95744 21.6447L11.5056 27.738C11.7412 27.8772 12.041 27.7059 12.041 27.4274V15.6371C12.041 15.5086 11.9768 15.3908 11.8697 15.3265L1.32154 8.99764ZM7.75751 19.9206L7.22207 19.6314V21.4305C7.22207 21.6768 7.02931 21.7625 6.78301 21.634L5.423 20.9058C5.17669 20.7773 4.98394 20.4774 4.98394 20.2311V18.4321L4.4485 18.1429C4.07369 17.9395 3.87022 17.3933 4.11653 17.2434L5.76568 16.2261C5.93702 16.119 6.24757 16.2903 6.42962 16.5794L8.07877 19.3744C8.33578 19.7814 8.13231 20.124 7.75751 19.9206Z" fill="#193762"/>
<path d="M17.0645 2.86138L13.113 0.580416C13.0059 0.516163 12.8667 0.516163 12.7596 0.580416L2.08294 6.73796C1.84735 6.87717 1.84735 7.21985 2.08294 7.35907L6.16299 9.80067C6.28078 9.86492 6.42 9.86492 6.52708 9.80067L17.0752 3.47178C17.3001 3.33257 17.3001 2.98989 17.0645 2.86138ZM24.1858 6.75938L22.3868 2.83997C22.3011 2.64721 22.0548 2.57225 21.8727 2.67934L11.1961 9.08318C11.0462 9.17956 10.9819 9.37232 11.0569 9.53295L12.7703 13.4952C12.856 13.6987 13.1023 13.7736 13.2843 13.6558L24.0466 7.19844C24.2073 7.11277 24.2608 6.92001 24.1858 6.75938Z" fill="#193762"/>
</svg>
