<svg width="26" height="26" viewBox="0 0 26 26" fill="none" xmlns="http://www.w3.org/2000/svg">
<path d="M19.7557 11.3461H24.4412V7.14686C24.4412 6.32912 23.7781 5.66609 22.9604 5.66609H4.83755C4.22978 5.66609 3.7325 5.16882 3.7325 4.56104C3.7325 3.95326 4.22978 3.45599 4.83755 3.45599H22.2311V1.96417C22.2311 1.14643 21.568 0.483398 20.7503 0.483398H2.98107C1.34559 0.483398 0.0195312 1.80946 0.0195312 3.44494V22.6839C0.0195312 24.3194 1.34559 25.6454 2.98107 25.6454H22.9604C23.7781 25.6454 24.4412 24.9824 24.4412 24.1646V20.4738H19.7557C17.2362 20.4738 15.1919 18.4294 15.1919 15.9099C15.1919 13.3904 17.2362 11.3461 19.7557 11.3461Z" fill="#193762"/>
<path d="M24.8167 13.1914H19.7555C18.2527 13.1914 17.0371 14.407 17.0371 15.9098C17.0371 17.4127 18.2527 18.6283 19.7555 18.6283H24.8167C25.0156 18.6283 25.1813 18.4625 25.1813 18.2636V13.5782C25.1813 13.3572 25.0156 13.1914 24.8167 13.1914ZM20.3744 17.0149C19.7666 17.0149 19.2693 16.5176 19.2693 15.9098C19.2693 15.3021 19.7666 14.8048 20.3744 14.8048C20.9821 14.8048 21.4794 15.3021 21.4794 15.9098C21.4794 16.5176 20.9821 17.0149 20.3744 17.0149Z" fill="#193762"/>
</svg>
