<?xml version="1.0" encoding="utf-8"?>
<svg viewBox="0 0 330 61" fill="none" xmlns="http://www.w3.org/2000/svg" id="index">
<g clip-path="url(#clip0_3435_8414)">
<path d="M21.1399 14.7803L15.1774 29.3448L9.21485 14.7803H0V37.652H6.61301L6.5046 21.4692L13.0092 37.652H15.1774H17.3456L23.8502 21.4692L23.7418 37.652H30.3548V14.7803H21.1399Z" fill="currentColor"/>
<path d="M135.295 14.7803L129.224 29.3448L123.262 14.7803H114.047V37.652H120.66L120.551 21.4692L127.164 37.652H129.224H131.392L137.897 21.4692V37.652H144.402V14.7803H135.295Z" fill="currentColor"/>
<path d="M220.722 14.7803L214.759 29.3448L208.797 14.7803H199.582V37.652H206.195L206.087 21.4692L212.7 37.652H214.759H216.928L223.432 21.4692V37.652H229.937V14.7803H220.722Z" fill="currentColor"/>
<path d="M55.2904 37.652H33.5V14.7803H55.2904V19.2036L40.113 19.3115V23.6269H53.1222V27.9423H40.113V33.3366H55.2904V37.652Z" fill="currentColor"/>
<path d="M67.7561 14.7803C61.0347 15.1039 58.5413 22.8717 58.5413 33.3366H56.1562V37.652H82.3915V14.7803H67.7561ZM75.8869 33.3366H65.0459V30.6395C65.0459 24.1663 66.5636 19.4194 70.7916 19.2036H75.8869V33.3366Z" fill="currentColor"/>
<path d="M109.494 37.7599H104.073V21.4692L94.3162 37.7599H86.6191V14.7803H92.148V32.2578L102.989 14.7803H109.494V37.7599Z" fill="currentColor"/>
<path d="M153.835 37.7599H148.414V14.7803H153.835V23.7348H159.255L165.868 14.7803H171.18H172.698L164.676 25.7846L172.481 37.7599H171.18H165.651L159.689 28.5896L153.835 28.6975V37.7599Z" fill="currentColor"/>
<path d="M184.838 14.7803C178.008 14.7803 172.371 19.9588 172.371 26.2162C172.371 32.4735 178.008 37.7599 184.838 37.7599C191.668 37.7599 197.305 32.5814 197.305 26.324C197.305 20.0667 191.776 14.7803 184.838 14.7803ZM184.838 32.9051C181.044 32.9051 177.9 29.8843 177.9 26.2162C177.9 22.548 181.044 19.5272 184.838 19.5272C188.633 19.5272 191.776 22.548 191.776 26.2162C191.776 29.9922 188.633 32.9051 184.838 32.9051Z" fill="currentColor"/>
<path d="M0 49.627H1.19251L4.01117 53.8345L4.55322 54.6976C4.77004 54.3739 4.87845 54.0503 5.09527 53.8345L7.80552 49.627H8.99803V57.2868C8.99803 57.5026 8.99803 57.6105 8.99803 57.8263C8.99803 58.042 8.99803 58.1499 8.99803 58.2578V58.3657H7.80552V52.3241C7.80552 52.1083 7.80552 52.0004 7.80552 51.7847C7.80552 51.5689 7.80552 51.461 7.80552 51.3531V51.2452C7.5887 51.5689 7.48029 51.8926 7.26347 52.2162L4.55322 56.208H4.3364L1.73456 52.3241C1.62615 52.2162 1.51774 52.0004 1.40933 51.8926C1.30092 51.7847 1.30092 51.5689 1.19251 51.5689L1.0841 51.461C1.0841 51.7847 1.0841 52.2162 1.0841 52.5399V57.2868C1.0841 57.3947 1.0841 57.6105 1.0841 57.7184C1.0841 57.9341 1.0841 58.042 1.0841 58.1499V58.2578H0.10841V50.9216C0.10841 50.7058 0.10841 50.49 0.10841 50.2743C0.10841 50.0585 0.10841 49.8427 0.10841 49.7348L0 49.627Z" fill="currentColor"/>
<path d="M10.625 49.627H16.0455V50.7058C15.6119 50.7058 15.1782 50.5979 14.853 50.5979H12.0343V53.6187L15.5034 53.5108L15.395 54.5897L11.9259 54.4818V57.5026H15.0698C15.2866 57.5026 15.395 57.5026 15.6119 57.5026C15.8287 57.5026 15.9371 57.5026 15.9371 57.5026H16.0455L15.9371 58.4736H10.7334V51.0295C10.7334 50.8137 10.7334 50.5979 10.7334 50.3822C10.7334 50.1664 10.7334 50.0585 10.7334 49.8427L10.625 49.627Z" fill="currentColor"/>
<path d="M16.1523 57.5027H16.8028C16.9112 57.2869 17.128 57.179 17.2364 56.9633C17.3449 56.7475 17.4533 56.5317 17.5617 56.316C17.6701 56.1002 17.7785 55.8844 17.7785 55.5608C17.7785 55.2371 17.8869 55.0213 17.9953 54.8056C18.1037 54.5898 18.1037 54.2661 18.1037 53.9425C18.1037 53.6188 18.2121 53.2952 18.2121 53.0794C18.2121 52.8636 18.3205 52.54 18.3205 52.1084C18.3205 51.6769 18.3205 51.3532 18.429 51.1375C18.429 50.9217 18.429 50.4901 18.5374 50.0586H23.6326V57.9342H24.8251V60.1998C24.8251 60.3077 24.8251 60.5235 24.8251 60.7393C24.8251 60.955 24.8251 61.0629 24.8251 61.1708V61.2787L23.741 61.3866L23.5242 58.7973H17.3449V60.1998C17.3449 60.3077 17.3449 60.5235 17.3449 60.7393C17.3449 60.955 17.3449 61.0629 17.3449 61.1708V61.2787L16.2608 61.3866L16.1523 57.5027ZM18.1037 57.5027H22.3317V50.598H19.5131C19.4046 52.3242 19.2962 53.6188 19.0794 54.6977C18.8626 55.7765 18.5374 56.7475 18.1037 57.5027Z" fill="currentColor"/>
<path d="M25.6934 49.6274L26.9943 49.5195V55.4532C26.9943 55.669 26.9943 55.8848 26.9943 56.1006C26.9943 56.3163 26.9943 56.5321 26.9943 56.64V56.8558H27.1027C27.3195 56.4242 27.5363 55.9927 27.7531 55.669L31.7643 49.6274L32.9568 49.5195V57.1794C32.9568 57.3952 32.9568 57.5031 32.9568 57.7188C32.9568 57.9346 32.9568 58.0425 32.9568 58.1504V58.2583H31.6559V52.1088C31.6559 51.893 31.6559 51.7851 31.6559 51.5694C31.6559 51.3536 31.6559 51.2457 31.6559 51.1378V51.0299C31.5475 51.3536 31.3307 51.7851 31.1139 52.1088L26.9943 58.2583H25.8018V50.8142C25.8018 50.5984 25.8018 50.3826 25.8018 50.1668C25.8018 49.9511 25.8018 49.7353 25.8018 49.6274H25.6934Z" fill="currentColor"/>
<path d="M34.582 49.6274L35.8829 49.5195V57.3951H40.3278V50.8141C40.3278 50.5983 40.3278 50.3826 40.3278 50.1668C40.3278 49.951 40.3278 49.7353 40.3278 49.6274V49.4116L41.6287 49.3037V57.1794H42.8212V59.445C42.8212 59.5528 42.8212 59.7686 42.8212 59.9844C42.8212 60.2002 42.8212 60.308 42.8212 60.4159V60.5238L41.7371 60.6317L41.5203 58.0424H34.6904V50.5983C34.6904 50.3826 34.6904 50.1668 34.6904 49.951C34.6904 49.7353 34.6904 49.5195 34.6904 49.4116L34.582 49.6274Z" fill="currentColor"/>
<path d="M43.6895 49.6274L44.9904 49.5195V55.4532C44.9904 55.669 44.9904 55.8848 44.9904 56.1006C44.9904 56.3163 44.9904 56.5321 44.9904 56.64V56.8558H45.0988C45.3156 56.4242 45.5324 55.9927 45.7492 55.669L49.7604 49.6274L50.9529 49.5195V57.1794C50.9529 57.3952 50.9529 57.5031 50.9529 57.7188C50.9529 57.9346 50.9529 58.0425 50.9529 58.1504V58.2583H49.652V52.1088C49.652 51.893 49.652 51.7851 49.652 51.5694C49.652 51.3536 49.652 51.2457 49.652 51.1378V51.0299C49.5436 51.3536 49.3268 51.7851 49.11 52.1088L44.9904 58.2583H43.7979V50.8142C43.7979 50.5984 43.7979 50.3826 43.7979 50.1668C43.7979 49.9511 43.7979 49.7353 43.7979 49.6274H43.6895Z" fill="currentColor"/>
<path d="M52.5781 49.6274L53.879 49.5195V53.2955H58.3239V50.8141C58.3239 50.5983 58.3239 50.3826 58.3239 50.1668C58.3239 49.951 58.3239 49.7353 58.3239 49.6274V49.4116L59.6248 49.3037V56.9636C59.6248 57.1794 59.6248 57.2872 59.6248 57.503C59.6248 57.7188 59.6248 57.8267 59.6248 57.9346V58.0424H58.3239V54.0507H53.879V56.9636C53.879 57.1794 53.879 57.2872 53.879 57.503C53.879 57.7188 53.879 57.8267 53.879 57.9346V58.0424H52.5781V50.5983C52.5781 50.3826 52.5781 50.1668 52.5781 49.951C52.5781 49.7353 52.5781 49.5195 52.5781 49.4116V49.6274Z" fill="currentColor"/>
<path d="M60.9258 54.267C60.9258 53.296 61.0342 52.4329 61.3594 51.7856C61.6846 51.0304 62.1183 50.491 62.6603 50.0594C63.3108 49.6279 63.9613 49.4121 64.8285 49.4121C65.0454 49.4121 65.2622 49.4121 65.5874 49.4121C65.8042 49.4121 66.1295 49.52 66.3463 49.52C66.5631 49.52 66.7799 49.6279 66.9967 49.6279L66.7799 50.7067C66.7799 50.7067 66.4547 50.7067 65.9126 50.5989C65.3706 50.491 64.9369 50.491 64.6117 50.491C64.0697 50.491 63.636 50.5989 63.3108 50.9225C62.8772 51.2462 62.6603 51.6777 62.4435 52.1093C62.2267 52.6487 62.1183 53.1881 62.1183 53.8354C62.1183 54.267 62.1183 54.5906 62.2267 54.9143C62.3351 55.2379 62.4435 55.5616 62.5519 55.8853C62.6603 56.2089 62.8772 56.4247 63.094 56.7483C63.3108 56.9641 63.636 57.1799 63.9613 57.2878C64.2865 57.3956 64.7201 57.5035 65.0454 57.5035C65.3706 57.5035 65.6958 57.5035 66.0211 57.3957C66.3463 57.3957 66.5631 57.2878 66.6715 57.2878L66.8883 57.1799L67.1052 58.043C67.1052 58.043 66.9967 58.1509 66.8883 58.1509C66.7799 58.1509 66.5631 58.2587 66.2379 58.2587C65.9126 58.3666 65.479 58.3666 65.0454 58.3666C63.7444 58.3666 62.7687 57.9351 62.1183 57.1799C61.251 56.5326 60.9258 55.5616 60.9258 54.267Z" fill="currentColor"/>
<path d="M68.082 49.627H69.383V53.5108H70.2502C71.1175 52.432 71.6596 51.6768 71.9848 51.1374C72.31 50.7058 72.6352 50.1664 72.8521 49.7348H74.153C73.8278 50.2743 73.5025 50.8137 73.0689 51.3531C72.6353 51.8926 71.9848 52.7556 71.1175 53.8345L73.8278 57.5026C73.9362 57.6105 74.0446 57.7184 74.153 57.9342C74.2614 58.1499 74.3698 58.1499 74.4782 58.2578L74.5866 58.3657L73.0689 58.4736L70.0334 54.3739H69.383V57.179C69.383 57.3947 69.383 57.5026 69.383 57.7184C69.383 57.9341 69.383 58.042 69.383 58.1499V58.2578H68.082V50.8137C68.082 50.5979 68.082 50.3822 68.082 50.1664C68.082 49.9506 68.082 49.7348 68.082 49.627Z" fill="currentColor"/>
<path d="M75.2363 49.6274L76.5372 49.5195V55.4532C76.5372 55.669 76.5372 55.8848 76.5372 56.1006C76.5372 56.3163 76.5372 56.5321 76.5372 56.64V56.8558H76.6457C76.8625 56.4242 77.0793 55.9927 77.2961 55.669L81.3073 49.6274H82.3914V57.2873C82.3914 57.5031 82.3914 57.611 82.3914 57.8267C82.3914 58.0425 82.3914 58.1504 82.3914 58.2583V58.3662H81.0905V52.2167C81.0905 52.0009 81.0905 51.893 81.0905 51.6772C81.0905 51.4615 81.0905 51.3536 81.0905 51.2457V51.1378C80.9821 51.4615 80.7652 51.893 80.5484 52.2167L76.4288 58.3662H75.2363V50.922C75.2363 50.7063 75.2363 50.4905 75.2363 50.2747C75.2363 50.059 75.2363 49.8432 75.2363 49.7353V49.6274Z" fill="currentColor"/>
<path d="M84.126 49.627H89.5465L89.4381 50.7058C89.0044 50.7058 88.5708 50.5979 88.2456 50.5979H85.4269V53.6187L88.896 53.5108L88.7876 54.5897L85.3185 54.4818V57.5026H88.4624C88.6792 57.5026 88.7876 57.5026 89.0044 57.5026C89.2213 57.5026 89.3297 57.5026 89.3297 57.5026H89.4381L89.3297 58.4736H84.0176V51.0295C84.0176 50.8137 84.0176 50.5979 84.0176 50.3822C84.0176 50.1664 84.0176 50.0585 84.0176 49.8427L84.126 49.627Z" fill="currentColor"/>
<path d="M93.0156 49.627H94.3165V55.5607C94.3165 55.7764 94.3165 55.9922 94.3165 56.208C94.3165 56.4237 94.3165 56.6395 94.3165 56.7474V56.9632H94.425C94.6418 56.5316 94.8586 56.1001 95.0754 55.7764L99.0866 49.7348L100.279 49.627V57.2868C100.279 57.5026 100.279 57.6105 100.279 57.8263C100.279 58.042 100.279 58.1499 100.279 58.2578V58.3657H98.9782V52.2162C98.9782 52.0004 98.9782 51.8926 98.9782 51.6768C98.9782 51.461 98.9782 51.3531 98.9782 51.2452V51.1374C98.8698 51.461 98.6529 51.8926 98.4361 52.2162L94.3165 58.3657H93.124V50.9216C93.124 50.7058 93.124 50.49 93.124 50.2743C93.124 50.0585 93.124 49.8427 93.124 49.7348L93.0156 49.627Z" fill="currentColor"/>
<path d="M101.146 58.1504V57.1794C101.255 57.1794 101.363 57.1794 101.472 57.2873C101.58 57.2873 101.797 57.3952 102.122 57.3952C102.447 57.3952 102.773 57.5031 103.098 57.5031C103.748 57.5031 104.29 57.3952 104.616 57.0715C104.941 56.7479 105.049 56.4242 105.049 55.8848C105.049 55.3454 104.941 55.0217 104.616 54.698C104.29 54.3744 103.857 54.2665 103.315 54.2665H102.447V53.4034H103.423C103.965 53.4034 104.29 53.2955 104.507 52.9719C104.724 52.7561 104.941 52.3246 104.941 51.893C104.941 51.4615 104.832 51.0299 104.616 50.8142C104.399 50.4905 104.074 50.3826 103.532 50.3826C103.315 50.3826 102.881 50.3826 102.339 50.4905C101.905 50.5984 101.58 50.7063 101.472 50.7063L101.363 49.7353C101.472 49.7353 101.689 49.7353 102.014 49.6274C102.339 49.6274 102.556 49.5195 102.773 49.5195C102.989 49.5195 103.206 49.5195 103.423 49.5195C104.29 49.5195 105.049 49.7353 105.483 50.1668C105.917 50.5984 106.133 51.1378 106.133 51.893C106.133 52.3246 106.025 52.7561 105.808 53.0798C105.591 53.4034 105.266 53.7271 104.724 53.835C105.158 53.9428 105.591 54.1586 105.917 54.4823C106.242 54.8059 106.35 55.2375 106.35 55.7769C106.35 56.5321 106.025 57.1794 105.483 57.7188C104.941 58.2583 104.182 58.474 103.098 58.474C102.773 58.474 102.447 58.474 102.014 58.3662C101.689 58.3662 101.472 58.2583 101.255 58.2583L101.146 58.1504Z" fill="currentColor"/>
<path d="M106.459 57.5027H107.109C107.218 57.2869 107.435 57.179 107.543 56.9633C107.651 56.7475 107.76 56.5317 107.868 56.316C107.977 56.1002 108.085 55.8844 108.085 55.5608C108.194 55.2371 108.194 55.0213 108.302 54.8056C108.41 54.5898 108.41 54.2661 108.41 53.9425C108.41 53.6188 108.519 53.2952 108.519 53.0794C108.519 52.8636 108.627 52.54 108.627 52.1084C108.627 51.6769 108.627 51.3532 108.736 51.1375C108.736 50.9217 108.736 50.4901 108.844 50.0586H113.939V57.9342H115.132V60.1998C115.132 60.3077 115.132 60.5235 115.132 60.7393C115.132 60.955 115.132 61.0629 115.132 61.1708V61.2787L114.048 61.3866L113.831 58.7973H107.543V60.1998C107.543 60.3077 107.543 60.5235 107.543 60.7393C107.543 60.955 107.543 61.0629 107.543 61.1708V61.2787L106.459 61.3866V57.5027ZM108.41 57.5027H112.638V50.598H109.82C109.711 52.3242 109.603 53.6188 109.386 54.6977C109.169 55.7765 108.844 56.7475 108.41 57.5027Z" fill="currentColor"/>
<path d="M115.999 49.627H121.42L121.311 50.5979C120.877 50.5979 120.444 50.49 120.119 50.49H117.3V53.5108L120.769 53.403L120.661 54.4818L117.192 54.3739V57.3947H120.335C120.552 57.3947 120.661 57.3947 120.877 57.3947C121.094 57.3947 121.203 57.3947 121.203 57.3947H121.311L121.203 58.3657H115.891V50.9216C115.891 50.7058 115.891 50.49 115.891 50.2743C115.891 50.0585 115.891 49.9506 115.891 49.7348L115.999 49.627Z" fill="currentColor"/>
<path d="M121.527 57.3947C121.744 57.3947 121.961 57.2868 122.069 57.179C122.178 57.0711 122.395 56.9632 122.503 56.7474C122.611 56.5316 122.72 56.3159 122.828 56.1001C122.937 55.8843 123.045 55.5607 123.153 55.237C123.262 54.9134 123.262 54.5897 123.37 54.266C123.37 53.9424 123.479 53.5108 123.479 52.9714C123.479 52.432 123.587 51.8926 123.587 51.461C123.587 51.0295 123.696 50.3822 123.804 49.627H128.682V57.179C128.682 57.3947 128.682 57.5026 128.682 57.7184C128.682 57.9341 128.682 58.042 128.682 58.1499V58.2578H127.381V50.49H124.78C124.671 51.2452 124.671 51.8926 124.563 52.3241C124.563 52.7556 124.454 53.2951 124.454 53.9424C124.346 54.5897 124.346 55.0212 124.238 55.3449C124.129 55.6686 124.021 56.1001 123.912 56.4237C123.804 56.8553 123.587 57.179 123.37 57.3947C123.153 57.6105 122.937 57.8263 122.72 58.042C122.503 58.2578 122.178 58.3657 121.853 58.4736L121.527 57.3947Z" fill="currentColor"/>
<path d="M130.525 49.6274L131.826 49.5195V55.4532C131.826 55.669 131.826 55.8848 131.826 56.1006C131.826 56.3163 131.826 56.5321 131.826 56.64V56.8558H131.935C132.152 56.4242 132.368 55.9927 132.585 55.669L136.596 49.6274L137.789 49.5195V57.1794C137.789 57.3952 137.789 57.5031 137.789 57.7188C137.789 57.9346 137.789 58.0425 137.789 58.1504V58.2583H136.488V52.1088C136.488 51.893 136.488 51.7851 136.488 51.5694C136.488 51.3536 136.488 51.2457 136.488 51.1378V51.0299C136.38 51.3536 136.163 51.7851 135.946 52.1088L131.826 58.2583H130.634V50.8142C130.634 50.5984 130.634 50.3826 130.634 50.1668C130.634 49.9511 130.634 49.7353 130.634 49.6274H130.525Z" fill="currentColor"/>
<path d="M138.549 58.3662L140.717 55.0218C140.175 54.806 139.85 54.4823 139.525 54.0508C139.199 53.6192 139.091 53.0798 139.091 52.5404C139.091 51.6773 139.416 51.03 139.958 50.4906C140.5 49.9511 141.259 49.7354 142.235 49.7354H144.728V57.1795C144.728 57.3952 144.728 57.611 144.728 57.8268C144.728 58.0425 144.728 58.2583 144.728 58.3662V58.582L143.427 58.6899V55.5612H142.126C141.91 55.5612 141.801 55.5612 141.693 55.5612L139.741 58.6899H138.549V58.3662ZM140.392 52.4325C140.392 52.9719 140.609 53.5114 140.934 53.835C141.259 54.1587 141.801 54.3744 142.452 54.3744H143.536V50.5984H142.452C141.801 50.5984 141.259 50.8142 140.934 51.1379C140.609 51.4615 140.392 51.8931 140.392 52.4325Z" fill="currentColor"/>
<path d="M0.109375 42.9385H251.946V44.0173H0.109375" fill="currentColor"/>
<path d="M251.836 43.4779H252.595C253.028 43.4779 253.354 43.1543 253.354 42.7227V40.9966C253.354 40.7808 253.462 40.565 253.57 40.4571L254.004 39.9177C254.113 39.8098 254.221 39.594 254.221 39.3783L254.438 32.9051C254.438 32.2578 254.655 31.6105 254.98 31.0711L256.498 28.5897V25.7847C256.498 25.461 256.498 25.2452 256.606 24.9216L256.714 24.7058V23.8427C256.714 23.627 256.823 23.4112 256.931 23.1954L257.04 23.0875C257.148 22.8718 257.256 22.656 257.256 22.4402V20.714L258.015 0" stroke="currentColor" stroke-miterlimit="10"/>
<path d="M262.788 41.4282V40.7808C262.788 40.5651 262.679 40.3493 262.571 40.2414L262.137 39.702C262.029 39.5941 261.92 39.3783 261.92 39.1626L261.704 32.6894C261.704 32.0421 261.487 31.3948 261.161 30.8554L259.644 28.374V25.569C259.644 25.2453 259.644 25.0295 259.535 24.7059L259.427 24.4901V23.627C259.427 23.4112 259.319 23.1955 259.21 22.9797L259.102 22.8718C258.993 22.656 258.885 22.4403 258.885 22.2245V20.4983L258.018 0.21582" stroke="currentColor" stroke-miterlimit="10"/>
<path d="M280.35 43.6937C280.35 43.5858 280.783 44.0173 281.325 44.4489C281.867 44.8804 282.951 44.9883 283.06 44.2331C283.385 41.3202 286.529 38.1915 290.649 38.0836C290.757 38.0836 290.649 37.3284 290.649 36.789C290.649 36.6811 291.516 35.9259 292.058 35.0628C292.383 34.5234 292.275 32.1499 292.275 30.7474C292.275 30.5316 293.142 30.3158 293.142 29.7764C293.142 28.3739 293.792 27.295 295.202 26.3241V24.1664C295.202 24.0585 296.177 21.3613 296.177 21.3613" stroke="currentColor" stroke-miterlimit="10"/>
<path d="M310.921 44.1256C310.487 45.4202 309.62 44.0177 309.511 43.5861C308.752 40.889 305.825 38.1919 302.031 38.084C301.923 38.084 302.031 37.3288 302.031 36.7893C302.031 36.6815 301.164 35.9263 300.622 35.0632C300.296 34.5237 300.405 32.1503 300.405 30.7477C300.405 30.532 299.538 30.3162 299.538 29.7768C299.538 28.3743 298.779 27.1875 297.478 26.3244V24.1667C297.478 24.0588 296.394 20.8223 296.394 20.8223L295.418 24.1667" stroke="currentColor" stroke-miterlimit="10"/>
<path d="M262.788 41.1044C262.788 41.1044 262.68 44.341 262.68 44.9883C263.005 48.3328 263.872 59.3371 263.872 59.3371C263.872 59.445 264.089 59.445 264.089 59.3371L266.582 42.2912C266.582 42.0754 266.908 41.9675 267.016 42.1833L267.992 43.0464C268.317 43.37 268.859 43.1543 268.967 42.7227L272.328 31.2868C272.437 31.0711 272.653 31.0711 272.762 31.2868L276.339 45.2041C276.448 45.5277 276.773 45.7435 277.098 45.7435L278.399 43.8016C278.616 43.4779 279.05 43.2621 279.483 43.2621L281.435 44.5568C281.651 44.6647 281.868 44.7725 282.085 44.7725" stroke="currentColor" stroke-miterlimit="10"/>
<path d="M330.001 44.6651H316.233C315.799 44.6651 315.474 44.4493 315.149 44.1257L312.872 41.2128C312.764 41.1049 312.655 41.1049 312.655 41.2128L310.812 44.2335" stroke="currentColor" stroke-miterlimit="10"/>
</g>
<defs>
<clipPath id="clip0_3435_8414">
<rect width="330" height="60.9554" fill="white"/>
</clipPath>
</defs>
</svg>
