<svg width="36" height="36" viewBox="0 0 36 36" fill="none" xmlns="http://www.w3.org/2000/svg">
<g id="glasses-svgrepo-com (1) 1">
<circle id="Ellipse 1" cx="8.99961" cy="17.9996" r="5.4" fill="currentColor"/>
<circle id="Ellipse 2" cx="26.9996" cy="17.9996" r="5.4" fill="currentColor"/>
<path id="Vector" d="M34.875 16.2002H33.75C33.525 16.2002 33.525 16.2002 33.3 16.2002C32.4 13.5002 29.925 11.7002 27 11.7002C24.075 11.7002 21.6 13.7252 20.7 16.4252C20.025 15.5252 19.125 15.0752 18 15.0752C16.875 15.0752 15.975 15.5252 15.3 16.4252C14.4 13.7252 11.925 11.7002 9 11.7002C6.075 11.7002 3.6 13.7252 2.7 16.2002C2.475 16.2002 2.475 16.2002 2.25 16.2002H1.125C0.45 16.2002 0 16.6502 0 17.3252C0 18.0002 0.45 18.4502 1.125 18.4502H2.25C2.25 22.2752 5.175 25.2002 9 25.2002C12.375 25.2002 15.075 22.7252 15.75 19.5752C16.425 19.5752 16.875 19.1252 16.875 18.4502C16.875 17.7752 17.325 17.3252 18 17.3252C18.675 17.3252 19.125 17.7752 19.125 18.4502C19.125 19.1252 19.575 19.5752 20.25 19.5752C20.7 22.7252 23.625 25.2002 27 25.2002C30.825 25.2002 33.75 22.2752 33.75 18.4502H34.875C35.55 18.4502 36 18.0002 36 17.3252C36 16.6502 35.55 16.2002 34.875 16.2002ZM9 22.9502C6.525 22.9502 4.5 20.9252 4.5 18.4502C4.5 15.9752 6.525 13.9502 9 13.9502C11.475 13.9502 13.5 15.9752 13.5 18.4502C13.5 20.9252 11.475 22.9502 9 22.9502ZM27 22.9502C24.525 22.9502 22.5 20.9252 22.5 18.4502C22.5 15.9752 24.525 13.9502 27 13.9502C29.475 13.9502 31.5 15.9752 31.5 18.4502C31.5 20.9252 29.475 22.9502 27 22.9502Z" fill="currentColor"/>
</g>
</svg>
