<svg  viewBox="0 0 26 26" fill="none" xmlns="http://www.w3.org/2000/svg">
<g id="vuesax/linear/call">
<g id="call">
<g id="call_2">
<path id="Vector" d="M2.19982 19.8578C2.19982 20.2478 2.28648 20.6487 2.47065 21.0387C2.65482 21.4287 2.89315 21.797 3.20732 22.1437C3.73815 22.7287 4.32315 23.1512 4.98398 23.422C5.63398 23.6928 6.33815 23.8337 7.09648 23.8337C8.20148 23.8337 9.38232 23.5737 10.6282 23.0428C11.874 22.512 13.1198 21.797 14.3548 20.8978C15.6007 19.9878 16.7815 18.9803 17.9082 17.8645C19.024 16.7378 20.0315 15.557 20.9307 14.322C21.819 13.087 22.534 11.852 23.054 10.6278C23.574 9.39283 23.834 8.21199 23.834 7.08533C23.834 6.34866 23.704 5.64449 23.444 4.99449C23.184 4.33366 22.7723 3.72699 22.1982 3.18533C21.5048 2.50283 20.7465 2.16699 19.9448 2.16699C19.6415 2.16699 19.3382 2.23199 19.0673 2.36199C18.7857 2.49199 18.5365 2.68699 18.3415 2.96866L15.8282 6.51116C15.6332 6.78199 15.4923 7.03116 15.3948 7.26949C15.2973 7.49699 15.2432 7.72449 15.2432 7.93033C15.2432 8.19033 15.319 8.45032 15.4707 8.69949C15.6115 8.94866 15.8173 9.20866 16.0773 9.46866L16.9007 10.3245C17.0198 10.4437 17.074 10.5845 17.074 10.7578C17.074 10.8445 17.0632 10.9203 17.0415 11.007C17.009 11.0937 16.9765 11.1587 16.9548 11.2237C16.7598 11.5812 16.424 12.047 15.9473 12.6103C15.4598 13.1737 14.9398 13.7478 14.3765 14.322C13.7915 14.8962 13.2282 15.427 12.654 15.9145C12.0907 16.3912 11.6248 16.7162 11.2565 16.9112C11.2023 16.9328 11.1373 16.9653 11.0615 16.9978C10.9748 17.0303 10.8882 17.0412 10.7907 17.0412C10.6065 17.0412 10.4657 16.9762 10.3465 16.857L9.52315 16.0445C9.25232 15.7737 8.99232 15.5678 8.74315 15.4378C8.49398 15.2862 8.24482 15.2103 7.97398 15.2103C7.76815 15.2103 7.55148 15.2537 7.31315 15.3512C7.07482 15.4487 6.82565 15.5895 6.55482 15.7737L2.96898 18.3195C2.68732 18.5145 2.49232 18.742 2.37315 19.0128C2.26482 19.2837 2.19982 19.5545 2.19982 19.8578Z" fill="#FF6A3D"/>
</g>
</g>
</g>
</svg>
