<svg width="25" height="25" viewBox="0 0 25 25" fill="none" xmlns="http://www.w3.org/2000/svg">
<g id="Group">
<path id="Vector" d="M19.5442 1.70602C19.203 0.682406 18.254 0 17.1771 0H7.8153C6.73838 0 5.78941 0.682406 5.4482 1.70602L3.74219 6.78142H6.00266L7.4741 2.38842C7.52741 2.23915 7.65536 2.14318 7.8153 2.14318H17.1771C17.3263 2.14318 17.465 2.23915 17.5183 2.38842L18.9791 6.78142H21.2395L19.5442 1.70602Z" fill="currentColor"/>
<path id="Vector_2" d="M24.2788 8.92285H0.714394C0.319878 8.92285 0 9.24273 0 9.63725V13.2092C0 13.6037 0.319878 13.9236 0.714394 13.9236H1.94059L3.39071 23.424C3.49733 24.1171 4.09444 24.6395 4.79817 24.6395H20.195C20.8987 24.6395 21.4958 24.1277 21.6024 23.424L23.0526 13.9236H24.2788C24.6733 13.9236 24.9932 13.6037 24.9932 13.2092V9.63725C24.9932 9.24273 24.6733 8.92285 24.2788 8.92285ZM8.56207 20.705C8.56207 21.2915 8.08226 21.7713 7.49581 21.7713C6.90937 21.7713 6.42955 21.2915 6.42955 20.705V16.0668C6.42955 15.4804 6.90937 15.0005 7.49581 15.0005C8.08226 15.0005 8.56207 15.4804 8.56207 16.0668V20.705ZM13.5628 20.705C13.5628 21.2915 13.083 21.7713 12.4966 21.7713C11.9101 21.7713 11.4303 21.2915 11.4303 20.705V16.0668C11.4303 15.4804 11.9101 15.0005 12.4966 15.0005C13.083 15.0005 13.5628 15.4804 13.5628 16.0668V20.705ZM18.5636 20.705C18.5636 21.2915 18.0838 21.7713 17.4973 21.7713C16.9109 21.7713 16.4311 21.2915 16.4311 20.705V16.0668C16.4311 15.4804 16.9109 15.0005 17.4973 15.0005C18.0838 15.0005 18.5636 15.4804 18.5636 16.0668V20.705Z" fill="currentColor"/>
</g>
</svg>
