<svg width="18" height="20" viewBox="0 0 18 20" fill="none" xmlns="http://www.w3.org/2000/svg">
<path d="M1.8 18C1.305 18 0.8811 17.8239 0.5283 17.4717C0.1761 17.1189 0 16.695 0 16.2V3.6C0 3.105 0.1761 2.6811 0.5283 2.3283C0.8811 1.9761 1.305 1.8 1.8 1.8H5.58C5.775 1.26 6.1014 0.825 6.5592 0.495C7.0164 0.165 7.53 0 8.1 0C8.67 0 9.1839 0.165 9.6417 0.495C10.0989 0.825 10.425 1.26 10.62 1.8H14.4C14.895 1.8 15.3189 1.9761 15.6717 2.3283C16.0239 2.6811 16.2 3.105 16.2 3.6V9.62999C15.915 9.49499 15.6225 9.3786 15.3225 9.2808C15.0225 9.1836 14.715 9.11249 14.4 9.06749V3.6H1.8V16.2H7.245C7.29 16.53 7.3614 16.845 7.4592 17.145C7.5564 17.445 7.6725 17.73 7.8075 18H1.8ZM1.8 16.2V3.6V9.06749V9V16.2ZM3.6 14.4H7.2675C7.3125 14.085 7.3836 13.7775 7.4808 13.4775C7.5786 13.1775 7.6875 12.885 7.8075 12.6H3.6V14.4ZM3.6 10.8H9.09C9.57 10.35 10.1061 9.97502 10.6983 9.675C11.2911 9.375 11.925 9.17249 12.6 9.06749V9H3.6V10.8ZM3.6 7.2H12.6V5.4H3.6V7.2ZM8.1 2.925C8.295 2.925 8.4564 2.8611 8.5842 2.7333C8.7114 2.6061 8.775 2.445 8.775 2.25C8.775 2.055 8.7114 1.8936 8.5842 1.7658C8.4564 1.6386 8.295 1.575 8.1 1.575C7.905 1.575 7.7439 1.6386 7.6167 1.7658C7.4889 1.8936 7.425 2.055 7.425 2.25C7.425 2.445 7.4889 2.6061 7.6167 2.7333C7.7439 2.8611 7.905 2.925 8.1 2.925ZM13.5 19.8C12.255 19.8 11.1939 19.3614 10.3167 18.4842C9.4389 17.6064 9 16.545 9 15.3C9 14.055 9.4389 12.9936 10.3167 12.1158C11.1939 11.2386 12.255 10.8 13.5 10.8C14.745 10.8 15.8064 11.2386 16.6842 12.1158C17.5614 12.9936 18 14.055 18 15.3C18 16.545 17.5614 17.6064 16.6842 18.4842C15.8064 19.3614 14.745 19.8 13.5 19.8ZM13.05 18H13.95V15.75H16.2V14.85H13.95V12.6H13.05V14.85H10.8V15.75H13.05V18Z" fill="currentColor"/>
</svg>
