<svg width="61" height="61" viewBox="0 0 61 61" fill="none" xmlns="http://www.w3.org/2000/svg">
<path d="M15.25 0C13.1531 0 11.4375 1.71562 11.4375 3.8125V57.1875C11.4375 59.2844 13.1531 61 15.25 61H53.375C55.4719 61 57.1875 59.2844 57.1875 57.1875V15.25L41.9375 0H15.25Z" fill="white"/>
<path d="M45.75 15.25H57.1875L41.9375 0V11.4375C41.9375 13.5344 43.6531 15.25 45.75 15.25Z" fill="#B0B7BD"/>
<path d="M57.1875 26.6875L45.75 15.25H57.1875V26.6875Z" fill="#CAD1D8"/>
<path d="M49.5625 49.5625C49.5625 50.6109 48.7047 51.4688 47.6562 51.4688H5.71875C4.67031 51.4688 3.8125 50.6109 3.8125 49.5625V30.5C3.8125 29.4516 4.67031 28.5938 5.71875 28.5938H47.6562C48.7047 28.5938 49.5625 29.4516 49.5625 30.5V49.5625Z" fill="#F15642"/>
<path d="M12.1211 36.1187C12.1211 35.6154 12.5176 35.0664 13.1562 35.0664H16.677C18.6595 35.0664 20.4438 36.3932 20.4438 38.9361C20.4438 41.3456 18.6595 42.6876 16.677 42.6876H14.1322V44.7006C14.1322 45.3716 13.7052 45.7509 13.1562 45.7509C12.6529 45.7509 12.1211 45.3716 12.1211 44.7006V36.1187ZM14.1322 36.986V40.7832H16.677C17.6988 40.7832 18.507 39.8816 18.507 38.9361C18.507 37.8705 17.6988 36.986 16.677 36.986H14.1322Z" fill="white"/>
<path d="M23.4292 45.7504C22.926 45.7504 22.377 45.4759 22.377 44.8068V36.1486C22.377 35.6015 22.926 35.2031 23.4292 35.2031H26.9195C33.885 35.2031 33.7325 45.7504 27.0568 45.7504H23.4292ZM24.39 37.0636V43.8918H26.9195C31.0351 43.8918 31.2181 37.0636 26.9195 37.0636H24.39Z" fill="white"/>
<path d="M36.2029 37.1875V39.6104H40.0898C40.6388 39.6104 41.1878 40.1594 41.1878 40.6912C41.1878 41.1945 40.6388 41.6062 40.0898 41.6062H36.2029V44.8068C36.2029 45.3406 35.8236 45.7504 35.2898 45.7504C34.6188 45.7504 34.209 45.3406 34.209 44.8068V36.1486C34.209 35.6015 34.6207 35.2031 35.2898 35.2031H40.6407C41.3117 35.2031 41.7082 35.6015 41.7082 36.1486C41.7082 36.6366 41.3117 37.1856 40.6407 37.1856H36.2029V37.1875Z" fill="white"/>
<path d="M47.6562 51.4688H11.4375V53.375H47.6562C48.7047 53.375 49.5625 52.5172 49.5625 51.4688V49.5625C49.5625 50.6109 48.7047 51.4688 47.6562 51.4688Z" fill="#CAD1D8"/>
</svg>
