<svg width="38" height="30" viewBox="0 0 38 30" fill="inherit" xmlns="http://www.w3.org/2000/svg">
<path  d="M5 12.3336H7.6667C10.3333 12.3336 11.6667 11.0003 11.6667 8.33366V5.66699C11.6667 3.00032 10.3333 1.66699 7.6667 1.66699H5C2.3333 1.66699 1 3.00032 1 5.66699V8.33366C1 11.0003 2.3333 12.3336 5 12.3336Z" fill="inherit" stroke="inherit" stroke-width="2" stroke-miterlimit="10" stroke-linecap="round" stroke-linejoin="round"/>
<path  d="M5 28.6666H7.6667C10.3333 28.6666 11.6667 27.3334 11.6667 24.6667V22C11.6667 19.3333 10.3333 18 7.6667 18H5C2.3333 18 1 19.3333 1 22V24.6667C1 27.3334 2.3333 28.6666 5 28.6666Z" fill="inherit" stroke="inherit" stroke-width="2" stroke-miterlimit="10" stroke-linecap="round" stroke-linejoin="round"/>
<rect  x="17" y="4" width="21" height="6" rx="2" fill="inherit"/>
<rect  x="17" y="20.333" width="21" height="6" rx="2" fill="inherit"/>
</svg>
