<svg width="22" height="23" viewBox="0 0 22 23" fill="none" xmlns="http://www.w3.org/2000/svg">
<path d="M21.3673 18.3789L20.3858 15.4426C20.3291 15.2723 20.3453 15.0939 20.4264 14.9397C21.1645 13.5122 21.4646 11.825 21.1483 10.0487C20.6616 7.32331 18.6663 5.06028 16.0788 4.19238C16.7439 5.80652 16.9467 7.59909 16.6141 9.37545C15.9328 12.9849 13.0452 15.8563 9.41135 16.5052C8.9409 16.5863 8.47045 16.6269 8 16.6431C9.10313 17.8355 10.5713 18.679 12.2097 18.971C13.978 19.2874 15.6489 18.9954 17.0765 18.2653C17.2306 18.1842 17.409 18.168 17.5793 18.2248L20.5237 19.2062C21.051 19.3847 21.5376 18.8899 21.3673 18.3789Z" fill="white"/>
<path d="M6.31271 0.136611C3.25478 0.704396 0.805191 3.18643 0.253628 6.25247C-0.0627094 8.02883 0.237405 9.71596 0.975526 11.1435C1.05664 11.2976 1.07286 11.4761 1.01608 11.6464L0.0346252 14.5827C-0.13571 15.1018 0.350963 15.5885 0.870081 15.4181L3.81445 14.4367C3.97668 14.3799 4.16324 14.3961 4.31735 14.4772C5.73681 15.1991 7.41583 15.4993 9.18408 15.1829C12.242 14.6314 14.7159 12.1899 15.2918 9.14006C16.2976 3.75421 11.6823 -0.861069 6.31271 0.136611ZM8.2594 10.0323H4.45524C4.08212 10.0323 3.7739 9.73218 3.7739 9.35095C3.7739 8.97784 4.07401 8.66961 4.45524 8.66961H8.2594C8.63252 8.66961 8.94074 8.96973 8.94074 9.35095C8.94074 9.72407 8.63252 10.0323 8.2594 10.0323ZM10.9767 7.31504H4.45524C4.08212 7.31504 3.7739 7.01492 3.7739 6.6337C3.7739 6.26058 4.07401 5.95235 4.45524 5.95235H10.9767C11.3498 5.95235 11.658 6.25247 11.658 6.6337C11.658 7.00681 11.3498 7.31504 10.9767 7.31504Z" fill="white"/>
</svg>
