<svg width="21" height="25" viewBox="0 0 21 25" fill="none" xmlns="http://www.w3.org/2000/svg">
<path fill-rule="evenodd" clip-rule="evenodd" d="M20.779 10.5522C20.779 16.1183 12.1037 23.7277 11.1144 24.5768C10.6984 24.9344 10.0827 24.9328 9.66895 24.5726C8.67534 23.7276 0 16.1182 0 10.5521C0 4.72423 4.65146 0 10.3895 0C16.1271 0 20.779 4.72449 20.779 10.5522ZM15.1121 9.9001C15.1121 12.3853 12.9977 14.4001 10.3896 14.4001C7.78146 14.4001 5.66709 12.3853 5.66709 9.9001C5.66709 7.41487 7.78146 5.4001 10.3896 5.4001C12.9977 5.4001 15.1121 7.41487 15.1121 9.9001Z" fill="#193762"/>
</svg>
