<svg xmlns="http://www.w3.org/2000/svg" width="21" height="22" viewBox="0 0 21 22" fill="none">
<path d="M1.75718 1.66444L1.75712 1.66476L1.73453 1.68666C-0.445063 3.80028 -0.445054 7.22624 1.73453 9.33945L1.66492 9.41125L1.73453 9.33946L12.9904 20.2546C14.5035 21.7219 16.966 21.7219 18.4793 20.2546C19.9907 18.7889 19.9907 16.4064 18.4793 14.9403L7.22348 4.02523C6.37835 3.20567 4.9918 3.20569 4.14687 4.02522L4.07725 3.95344L4.14687 4.02523C3.30345 4.84311 3.30347 6.18247 4.14686 7.00014L4.07725 7.07194L4.14687 7.00015L14.5987 17.1356L14.6137 17.1502C14.6995 17.2287 14.8135 17.2735 14.9332 17.2743C15.0595 17.2751 15.1803 17.2268 15.2688 17.141C15.3571 17.0554 15.4058 16.9396 15.4048 16.82L15.4048 16.8199C15.404 16.7001 15.3538 16.5851 15.2643 16.5006L15.2643 16.5006L15.2633 16.4997L4.81145 6.36425C4.31868 5.88639 4.31845 5.13936 4.81145 4.66129C5.30252 4.18508 6.06747 4.1851 6.55872 4.66128L6.55873 4.66129L17.8146 15.5764C18.9756 16.7022 18.9756 18.4924 17.8146 19.6182C16.6553 20.7423 14.8147 20.7423 13.6555 19.6182L2.39963 8.70306L2.46925 8.63127L2.39963 8.70306C0.570672 6.92926 0.570665 4.09603 2.39963 2.32247C4.22707 0.550355 7.14337 0.550349 8.97056 2.32248L19.4221 12.4576L19.4223 12.4578L19.4224 12.4579L19.3688 12.5133L19.4232 12.4588C19.5105 12.5459 19.6305 12.596 19.7569 12.5968L19.757 12.5968C19.8834 12.5978 20.0044 12.5494 20.0929 12.4635L20.093 12.4634C20.1813 12.3779 20.2301 12.2619 20.2291 12.1423L20.3291 12.1415L20.2291 12.1423C20.2281 12.0223 20.1777 11.9071 20.088 11.8226L20.088 11.8227L20.087 11.8216L9.63514 1.68618C7.46133 -0.421827 3.94036 -0.429078 1.75718 1.66444Z" fill="#FF6A3D" stroke="#FF6A3D" stroke-width="0.2"/>
</svg>