<svg width="20" height="20" viewBox="0 0 20 20" fill="none" xmlns="http://www.w3.org/2000/svg">
<path d="M14.3922 3H6.13074C3.6523 3 2 4.23444 2 7.11479V12.8755C2 15.7558 3.6523 16.9903 6.13074 16.9903H14.3922C16.8707 16.9903 18.523 15.7558 18.523 12.8755V7.11479C18.523 4.23444 16.8707 3 14.3922 3ZM14.7805 8.01181L12.1947 10.0692C11.6494 10.5054 10.9554 10.7193 10.2615 10.7193C9.56751 10.7193 8.86529 10.5054 8.32829 10.0692L5.74245 8.01181C5.47808 7.79784 5.43677 7.40282 5.64331 7.13948C5.85811 6.87613 6.2464 6.82675 6.51077 7.04072L9.09661 9.09812C9.72448 9.60012 10.7902 9.60012 11.4181 9.09812L14.0039 7.04072C14.2683 6.82675 14.6648 6.8679 14.8714 7.13948C15.0862 7.40282 15.0449 7.79784 14.7805 8.01181Z" fill="#FF6A3D"/>
</svg>
