<svg width="20" height="20" viewBox="0 0 20 20" fill="none" xmlns="http://www.w3.org/2000/svg">
<path fill-rule="evenodd" clip-rule="evenodd" d="M16 8.37479C16 12.7924 9.31993 18.8315 8.55817 19.5054V19.5054C8.24021 19.7872 7.76135 19.7858 7.44516 19.5021V19.5021C6.68007 18.8315 0 12.7923 0 8.37471C0 3.74939 3.58165 0 7.99996 0C12.418 0 16 3.7496 16 8.37479ZM11.6364 7.85724C11.6364 9.82965 10.0083 11.4287 8.00004 11.4287C5.99178 11.4287 4.3637 9.82965 4.3637 7.85724C4.3637 5.88483 5.99178 4.2858 8.00004 4.2858C10.0083 4.2858 11.6364 5.88483 11.6364 7.85724Z" fill="#FF6A3D"/>
</svg>
