<svg width="20" height="20" viewBox="0 0 20 20" fill="none" xmlns="http://www.w3.org/2000/svg">
<path d="M1.50183 15.4389C1.50183 15.7352 1.56792 16.0397 1.70837 16.3359C1.84881 16.6322 2.03056 16.912 2.27015 17.1753C2.67496 17.6197 3.12108 17.9407 3.62503 18.1464C4.12072 18.3522 4.65771 18.4592 5.23602 18.4592C6.07869 18.4592 6.97919 18.2616 7.92926 17.8584C8.87933 17.4551 9.8294 16.912 10.7712 16.2289C11.7213 15.5377 12.6218 14.7723 13.481 13.9247C14.3319 13.0688 15.1002 12.1718 15.7859 11.2336C16.4634 10.2954 17.0086 9.35724 17.4052 8.4273C17.8017 7.48913 18 6.5921 18 5.73623C18 5.17662 17.9009 4.64169 17.7026 4.14792C17.5043 3.64592 17.1904 3.18506 16.7525 2.77358C16.2238 2.25512 15.6455 2 15.0341 2C14.8028 2 14.5715 2.04938 14.365 2.14813C14.1502 2.24689 13.9601 2.39502 13.8114 2.60899L11.8948 5.30006C11.7461 5.5058 11.6387 5.69508 11.5643 5.87613C11.49 6.04895 11.4486 6.22177 11.4486 6.37814C11.4486 6.57565 11.5065 6.77316 11.6221 6.96244C11.7295 7.15172 11.8865 7.34923 12.0848 7.54674L12.7127 8.19687C12.8035 8.2874 12.8448 8.39438 12.8448 8.52606C12.8448 8.59189 12.8366 8.6495 12.8201 8.71534C12.7953 8.78117 12.7705 8.83055 12.754 8.87993C12.6053 9.1515 12.3492 9.50538 11.9856 9.93331C11.6139 10.3613 11.2173 10.7974 10.7877 11.2336C10.3416 11.6698 9.91201 12.073 9.47416 12.4433C9.04456 12.8054 8.68932 13.0523 8.40843 13.2005C8.36712 13.2169 8.31755 13.2416 8.25972 13.2663C8.19363 13.291 8.12754 13.2992 8.05318 13.2992C7.91274 13.2992 7.80534 13.2498 7.71446 13.1593L7.08659 12.5421C6.88005 12.3364 6.68178 12.18 6.49176 12.0812C6.30175 11.966 6.11174 11.9084 5.9052 11.9084C5.74823 11.9084 5.583 11.9413 5.40125 12.0154C5.2195 12.0895 5.02948 12.1964 4.82294 12.3364L2.0884 14.2703C1.8736 14.4184 1.72489 14.5913 1.63401 14.797C1.5514 15.0027 1.50183 15.2085 1.50183 15.4389Z" fill="#FF6A3D"/>
</svg>
