<svg width="42" height="42" viewBox="0 0 42 42" fill="none" xmlns="http://www.w3.org/2000/svg">
<g id="noun-fonts-5035756 1">
<path id="Vector 22 (Stroke)" fill-rule="evenodd" clip-rule="evenodd" d="M12 7H28.4896L35 13.4438V34H28.0356C27.4508 34 26.9767 33.5259 26.9767 32.9412C26.9767 32.3564 27.4508 31.8824 28.0356 31.8824H32.8605V14.3209L27.6034 9.11765H14.1395V12.2832C14.1395 12.874 13.6606 13.3529 13.0698 13.3529C12.479 13.3529 12 12.874 12 12.2832V7Z" fill="currentColor"/>
<path id="Vector 20 (Stroke)" fill-rule="evenodd" clip-rule="evenodd" d="M13.6653 18.6663C14.043 17.6944 15.4108 17.6736 15.8178 18.6337L21.5855 32.2398C21.8132 32.7772 21.5563 33.3969 21.0151 33.6155C20.4868 33.8289 19.885 33.5794 19.6626 33.0549L14.7861 21.5509L10.3321 33.0133C10.1255 33.5451 9.53052 33.8127 8.99554 33.6147C8.44832 33.412 8.17315 32.8004 8.3845 32.2565L13.6653 18.6663Z" fill="currentColor"/>
<path id="Vector 21" d="M11 29H19" stroke="currentColor" stroke-width="2"/>
</g>
</svg>
