<svg width="26" height="27" viewBox="0 0 26 27" fill="none" xmlns="http://www.w3.org/2000/svg">
<g id="vuesax/bold/sms">
<g id="sms">
<path id="Vector" d="M18.416 4.29199H7.58268C4.33268 4.29199 2.16602 5.91699 2.16602 9.70866V17.292C2.16602 21.0837 4.33268 22.7087 7.58268 22.7087H18.416C21.666 22.7087 23.8327 21.0837 23.8327 17.292V9.70866C23.8327 5.91699 21.666 4.29199 18.416 4.29199ZM18.9252 10.8895L15.5343 13.5978C14.8193 14.172 13.9093 14.4537 12.9993 14.4537C12.0893 14.4537 11.1685 14.172 10.4643 13.5978L7.07352 10.8895C6.72685 10.6078 6.67268 10.0878 6.94352 9.74116C7.22518 9.39449 7.73435 9.32949 8.08102 9.61116L11.4718 12.3195C12.2952 12.9803 13.6927 12.9803 14.516 12.3195L17.9068 9.61116C18.2535 9.32949 18.7735 9.38366 19.0443 9.74116C19.326 10.0878 19.2718 10.6078 18.9252 10.8895Z" fill="#FF6A3D"/>
</g>
</g>
</svg>
