<svg width="25" height="20" viewBox="0 0 25 20" fill="none" xmlns="http://www.w3.org/2000/svg">
<g id="Group">
<path id="Vector" d="M24.4851 3.74881C24.1968 2.63514 23.3525 1.75706 22.2816 1.45723C20.3253 0.900391 12.4999 0.900391 12.4999 0.900391C12.4999 0.900391 4.67461 0.900391 2.71827 1.43581C1.66803 1.73564 0.803127 2.63514 0.514825 3.74881C0 5.7834 0 10.0025 0 10.0025C0 10.0025 0 14.243 0.514825 16.2562C0.803127 17.3698 1.64744 18.2479 2.71827 18.5478C4.6952 19.1046 12.4999 19.1046 12.4999 19.1046C12.4999 19.1046 20.3253 19.1046 22.2816 18.5692C23.3525 18.2693 24.1968 17.3913 24.4851 16.2776C24.9999 14.243 24.9999 10.0239 24.9999 10.0239C24.9999 10.0239 25.0205 5.7834 24.4851 3.74881Z" fill="currentColor"/>
<path id="Vector_2" d="M10.0078 13.9002L16.5152 10.0023L10.0078 6.10449V13.9002Z" fill="white"/>
</g>
</svg>
