<svg width="23" height="23" viewBox="0 0 23 23" fill="none" xmlns="http://www.w3.org/2000/svg">
<g id="Group">
<path id="Vector" d="M0 23L1.6256 17.097C0.620582 15.3643 0.0933619 13.4021 0.0988538 11.3962C0.0988538 5.1105 5.23925 0 11.5494 0C14.6139 0 17.4916 1.18607 19.6499 3.33959C21.8137 5.49311 23.0055 8.35718 23 11.4016C23 17.6873 17.8596 22.7978 11.5439 22.7978H11.5384C9.62177 22.7978 7.73806 22.3168 6.06303 21.4095L0 23ZM6.3541 19.3489L6.70009 19.5566C8.16093 20.4202 9.83595 20.8738 11.5439 20.8793H11.5494C16.7942 20.8793 21.0668 16.6324 21.0668 11.4071C21.0668 8.87643 20.0783 6.49881 18.2825 4.70604C16.4866 2.91326 14.0922 1.92942 11.5494 1.92942C6.30468 1.92395 2.03199 6.17087 2.03199 11.3962C2.03199 13.1835 2.53176 14.927 3.48734 16.4356L3.71251 16.7963L2.75143 20.289L6.3541 19.3489Z" fill="white"/>
<path id="Vector_2" d="M0.400391 22.6014L1.97107 16.9006C0.999005 15.2335 0.488261 13.3369 0.488261 11.402C0.493753 5.33501 5.45292 0.399414 11.5489 0.399414C14.509 0.399414 17.2824 1.54723 19.3693 3.62422C21.4562 5.70122 22.6041 8.46691 22.6041 11.4075C22.6041 17.4745 17.6394 22.4101 11.5489 22.4101H11.5434C9.69265 22.4101 7.87484 21.9455 6.26022 21.071L0.400391 22.6014Z" fill="currentColor"/>
<path id="Vector_3" d="M0 23L1.6256 17.097C0.620582 15.3643 0.0933619 13.4021 0.0988538 11.3962C0.0988538 5.1105 5.23925 0 11.5494 0C14.6139 0 17.4916 1.18607 19.6499 3.33959C21.8137 5.49311 23.0055 8.35718 23 11.4016C23 17.6873 17.8596 22.7978 11.5439 22.7978H11.5384C9.62177 22.7978 7.73806 22.3168 6.06303 21.4095L0 23ZM6.3541 19.3489L6.70009 19.5566C8.16093 20.4202 9.83595 20.8738 11.5439 20.8793H11.5494C16.7942 20.8793 21.0668 16.6324 21.0668 11.4071C21.0668 8.87643 20.0783 6.49881 18.2825 4.70604C16.4866 2.91326 14.0922 1.92942 11.5494 1.92942C6.30468 1.92395 2.03199 6.17087 2.03199 11.3962C2.03199 13.1835 2.53176 14.927 3.48734 16.4356L3.71251 16.7963L2.75143 20.289L6.3541 19.3489Z" fill="currentColor"/>
<path id="Vector_4" fill-rule="evenodd" clip-rule="evenodd" d="M8.689 6.6302C8.47482 6.15468 8.24965 6.14374 8.04646 6.13828C7.8817 6.13281 7.68948 6.13281 7.49727 6.13281C7.30505 6.13281 6.99751 6.20387 6.7339 6.48809C6.47029 6.77231 5.73438 7.461 5.73438 8.8657C5.73438 10.2649 6.76136 11.6205 6.90414 11.8118C7.04693 12.0031 8.88671 14.971 11.7919 16.1133C14.2083 17.0644 14.7026 16.8731 15.2243 16.8239C15.7461 16.7747 16.9158 16.1352 17.1575 15.4684C17.3936 14.8015 17.3936 14.2331 17.3222 14.1129C17.2508 13.9926 17.0586 13.9215 16.773 13.7794C16.4875 13.6373 15.0815 12.9486 14.8179 12.8503C14.5543 12.7573 14.3621 12.7081 14.1754 12.9924C13.9832 13.2766 13.434 13.9161 13.2692 14.1074C13.1045 14.2987 12.9342 14.3206 12.6486 14.1784C12.3631 14.0363 11.4404 13.7357 10.3476 12.7628C9.49631 12.0085 8.91966 11.0739 8.75491 10.7897C8.59015 10.5054 8.73843 10.3524 8.88122 10.2103C9.00753 10.0846 9.1668 9.87687 9.30959 9.7129C9.45238 9.54893 9.5018 9.42868 9.59516 9.23738C9.68853 9.04607 9.64459 8.8821 9.5732 8.73999C9.5018 8.60334 8.94163 7.19317 8.689 6.6302Z" fill="white"/>
</g>
</svg>
