<svg width="25" height="26" viewBox="0 0 25 26" fill="none" xmlns="http://www.w3.org/2000/svg">
<g id="vk-svgrepo-com 1">
<path id="Vector" d="M24.4341 6.26598C24.1529 7.18573 23.7737 7.98632 23.2987 8.71323L23.3185 8.68073C22.8518 9.48962 22.2945 10.4242 21.6466 11.4844C21.0911 12.3215 20.797 12.7548 20.7643 12.7844C20.6206 12.9718 20.5206 13.2015 20.4862 13.4539L20.4852 13.4615C20.5133 13.6911 20.6154 13.8916 20.7643 14.0411L21.181 14.5242C23.4102 16.9068 24.664 18.5492 24.9424 19.4512C24.9789 19.5509 24.9997 19.6657 24.9997 19.786C24.9997 19.9961 24.9352 20.1901 24.8258 20.3493L24.8279 20.3461C24.6445 20.5421 24.3883 20.6635 24.1049 20.6635C24.0737 20.6635 24.0414 20.6624 24.0112 20.6591H24.0154H21.2747C21.2737 20.6591 21.2716 20.6591 21.2695 20.6591C20.9185 20.6591 20.5956 20.5313 20.3424 20.319L20.3456 20.3211C19.9768 20.0059 19.6487 19.6646 19.3549 19.2941L19.3456 19.2811C18.8657 18.7171 18.44 18.2422 18.0685 17.8566C16.831 16.6331 15.9178 16.0214 15.3289 16.0214C15.307 16.0192 15.282 16.0181 15.256 16.0181C15.0841 16.0181 14.9237 16.0734 14.7914 16.1676L14.7945 16.1655C14.6862 16.3063 14.6206 16.4883 14.6206 16.6844C14.6206 16.7234 14.6227 16.7602 14.6279 16.7981V16.7938C14.5997 17.134 14.5831 17.5294 14.5831 17.9291C14.5831 18.0581 14.5852 18.1859 14.5883 18.3137V18.2953V19.5509C14.5987 19.6018 14.6049 19.6603 14.6049 19.7199C14.6049 19.9821 14.4904 20.2161 14.3112 20.371L14.3102 20.3721C13.907 20.5638 13.4362 20.6765 12.9393 20.6765C12.8331 20.6765 12.7289 20.6711 12.6258 20.6613L12.6393 20.6624C10.9997 20.6299 9.47891 20.1305 8.1862 19.2887L8.22266 19.3104C6.6487 18.3159 5.34453 17.0213 4.35078 15.4916L4.32266 15.4461C3.37891 14.144 2.4987 12.6728 1.7487 11.1215L1.67578 10.9546C1.23724 10.0858 0.783073 9.01765 0.391406 7.91915L0.328906 7.71873C0.169531 7.22473 0.0539062 6.65057 0.00598958 6.05582L0.00390625 6.02873C0.00390625 5.48129 0.313628 5.20757 0.933073 5.20757H3.67266C3.69766 5.2054 3.72682 5.20431 3.75703 5.20431C4.01536 5.20431 4.25391 5.2964 4.44245 5.45132L4.44036 5.44915C4.6487 5.6864 4.80286 5.97781 4.87891 6.30281L4.88203 6.31581C5.3862 7.79673 5.92057 9.0404 6.53516 10.2321L6.46536 10.0836C6.96745 11.1345 7.52266 12.0391 8.15599 12.8743L8.13203 12.8407C8.68759 13.55 9.12092 13.9046 9.43203 13.9046C9.44141 13.9056 9.45286 13.9056 9.46536 13.9056C9.61953 13.9056 9.75391 13.819 9.82682 13.689L9.82786 13.6868C9.90495 13.481 9.94974 13.2416 9.94974 12.9924C9.94974 12.9393 9.94766 12.8862 9.94349 12.8342V12.8407V8.63848C9.92161 8.1434 9.80495 7.68081 9.61016 7.2659L9.61849 7.28648C9.48932 7.00048 9.33411 6.75348 9.14974 6.53357L9.15286 6.5379C8.98203 6.36023 8.86536 6.12731 8.82891 5.86731L8.82786 5.86081C8.82786 5.67665 8.90911 5.5109 9.0362 5.40257L9.03724 5.40148C9.16328 5.28123 9.33203 5.20865 9.51641 5.20865H9.52474H13.8435C13.8664 5.2054 13.8924 5.20431 13.9195 5.20431C14.1227 5.20431 14.3049 5.29965 14.4258 5.44915L14.4268 5.45023C14.5341 5.6539 14.5977 5.89765 14.5977 6.15548C14.5977 6.19665 14.5956 6.23673 14.5924 6.27682V6.2714V11.8755C14.5904 11.9015 14.5893 11.9318 14.5893 11.9621C14.5893 12.1615 14.6424 12.3489 14.7341 12.5081L14.732 12.5038C14.8081 12.6208 14.9352 12.6966 15.0789 12.6966H15.0799C15.2633 12.6836 15.4299 12.6208 15.5706 12.5211L15.5674 12.5233C15.8508 12.3207 16.0945 12.09 16.306 11.8289L16.3102 11.8235C16.9424 11.0803 17.5258 10.2591 18.0341 9.38598L18.0747 9.31015C18.4331 8.69265 18.8206 7.93215 19.1716 7.15106L19.2362 6.99182L19.7008 6.02548C19.8622 5.54231 20.2956 5.20215 20.8049 5.20215C20.8247 5.20215 20.8445 5.20215 20.8643 5.20323H20.8612H23.6018C24.3421 5.20323 24.6199 5.55748 24.4352 6.26598H24.4341Z" fill="currentColor"/>
</g>
</svg>
