<svg width="28" height="28" viewBox="0 0 28 28" fill="none" xmlns="http://www.w3.org/2000/svg">
<path d="M1.90869 5.91602C2.8295 5.91602 4.23264 5.91602 5.02191 5.91602C5.41654 5.91602 5.72348 6.1791 5.85502 6.52989C6.24966 7.66994 7.12662 10.1693 8.13512 11.8794C9.49442 14.1156 10.3714 14.9487 10.9414 14.861C11.5114 14.7295 11.336 13.2386 11.336 12.0548C11.336 10.8709 11.4676 8.85384 10.8976 7.93303L10.0206 6.66143C9.80135 6.3545 10.0206 5.95986 10.3714 5.95986H15.3701C15.8524 5.95986 16.247 6.3545 16.247 6.83683V13.1948C16.247 13.1948 16.4663 14.3349 17.694 13.151C18.9218 11.9671 20.2372 9.77465 21.3334 7.5384L21.7719 6.48604C21.9034 6.1791 22.2104 5.95986 22.5611 5.95986H25.8059C26.4198 5.95986 26.8583 6.57374 26.639 7.14376L26.2882 8.06457C26.2882 8.06457 25.1043 10.4324 23.8766 12.0986C22.6488 13.8087 22.3858 14.2033 22.5611 14.6418C22.7365 15.0803 25.8936 18.0181 26.6829 19.4212C26.9021 19.8159 27.0775 20.1666 27.2529 20.4736C27.5598 21.0436 27.1214 21.789 26.4636 21.789H22.7804C22.4735 21.789 22.1665 21.6136 22.035 21.3505L21.6842 20.7805C21.6842 20.7805 19.4479 18.1496 18.0886 17.3165C16.6855 16.5273 16.7294 17.6673 16.7294 17.6673V19.9913C16.7294 20.9559 15.9401 21.7452 14.9754 21.7452H14.0985C14.0985 21.7452 9.27517 21.7452 5.41654 16.0011C2.39102 11.5286 1.38252 8.6346 1.03173 6.96837C0.944035 6.44219 1.33867 5.91602 1.90869 5.91602Z" fill="#193762"/>
</svg>
