<svg width="28" height="28" viewBox="0 0 28 28" fill="none" xmlns="http://www.w3.org/2000/svg">
<g clip-path="url(#clip0_3635_10411)">
<path fill-rule="evenodd" clip-rule="evenodd" d="M3.29726 12.724C10.1017 9.75946 14.639 7.80503 16.9093 6.86075C23.3913 4.16464 24.7383 3.69629 25.6162 3.68083C25.8093 3.67743 26.241 3.72528 26.5206 3.9522C26.7568 4.14381 26.8217 4.40264 26.8528 4.58431C26.8839 4.76597 26.9226 5.17981 26.8919 5.50317C26.5406 9.19394 25.0207 18.1505 24.2474 22.2842C23.9202 24.0333 23.276 24.6198 22.6523 24.6772C21.2968 24.802 20.2675 23.7814 18.9547 22.9209C16.9004 21.5742 15.7398 20.7359 13.7458 19.4219C11.4413 17.9033 12.9352 17.0686 14.2485 15.7045C14.5922 15.3475 20.5644 9.91537 20.68 9.42258C20.6944 9.36095 20.7079 9.13122 20.5714 9.00992C20.4349 8.88861 20.2335 8.93009 20.0881 8.96308C19.8821 9.00985 16.6003 11.179 10.2427 15.4705C9.31117 16.1102 8.46742 16.4218 7.71144 16.4055C6.87805 16.3875 5.27492 15.9343 4.08316 15.5469C2.62143 15.0718 1.45967 14.8205 1.56083 14.0136C1.61352 13.5933 2.19233 13.1634 3.29726 12.724Z" fill="#193762"/>
</g>
<defs>
<clipPath id="clip0_3635_10411">
<rect width="26.3333" height="26.3333" fill="white" transform="translate(1.0625 0.333008)"/>
</clipPath>
</defs>
</svg>
