<svg width="28" height="28" viewBox="0 0 28 28" fill="none" xmlns="http://www.w3.org/2000/svg">
<path fill-rule="evenodd" clip-rule="evenodd" d="M13.1193 1.0396C11.6067 1.23797 10.5901 1.56033 9.437 2.45302C8.92866 2.84977 8.5815 3.20933 8.18475 3.73007C7.82519 4.18881 7.49043 4.80873 7.26726 5.36667C6.37457 7.69758 6.85811 10.0409 8.27154 11.9875C8.89146 12.8306 10.2181 13.81 11.1976 14.1448C12.1771 14.4796 12.9706 14.6407 14.1112 14.5787C18.897 14.2812 21.8975 9.07381 19.6409 4.67235C19.4302 4.2632 19.2194 3.97804 18.9714 3.64328C17.7192 1.93229 15.1775 0.766829 13.1193 1.0396ZM13.1441 5.04431C11.5571 5.36667 10.6025 6.7553 10.838 8.25551C11.0612 9.63175 12.4002 10.884 14.0988 10.5864C16.5661 10.1525 17.2108 7.01566 15.3511 5.60224C14.8303 5.20549 13.9872 4.87073 13.1441 5.04431Z" fill="#193762"/>
<path fill-rule="evenodd" clip-rule="evenodd" d="M10.1442 26.4688C10.4418 26.1712 13.4422 23.1584 13.6158 23.0468C13.8018 23.1584 14.0622 23.4559 14.2357 23.6295L17.2238 26.6299C17.6329 27.0515 18.1165 27.349 18.9968 27.3118C19.6663 27.1383 20.1622 26.8779 20.4722 26.2952C20.5714 26.1216 20.6582 25.9108 20.6954 25.6876C20.9061 24.5346 20.1498 23.9271 19.6911 23.4559C19.4555 23.2203 16.5047 20.3315 16.3931 20.1455C17.7073 19.8232 18.7984 19.3644 19.8523 18.7693C20.4226 18.4593 20.8441 18.199 21.0673 17.5542C21.5756 16.1532 20.497 14.8266 19.1579 14.8638C18.3768 14.8886 18.0297 15.2853 17.4593 15.5581C14.8557 16.7607 12.2148 16.7731 9.6483 15.4837C9.11517 15.2109 8.64403 14.7894 7.87532 14.839C6.3999 14.9134 5.64359 16.4508 6.16433 17.641C6.4371 18.2486 6.84625 18.4717 7.41658 18.7941C8.43325 19.3892 9.58631 19.8356 10.851 20.1455C10.7394 20.3191 7.73894 23.2699 7.50337 23.5055C7.01983 23.9767 6.28832 24.5718 6.52389 25.762C6.88344 27.6218 8.83 27.7954 10.1442 26.4688Z" fill="#193762"/>
</svg>
