<?xml version="1.0" encoding="utf-8"?><svg viewBox="0 0 26 26" fill="none" xmlns="http://www.w3.org/2000/svg" width="26" height="26"><path d="M2.2 19.858c0 .39.086.79.27 1.18.185.39.423.759.737 1.106.531.585 1.116 1.007 1.777 1.278a5.44 5.44 0 002.112.412c1.105 0 2.286-.26 3.532-.791s2.492-1.246 3.727-2.145a31.147 31.147 0 003.553-3.034 30.791 30.791 0 003.023-3.542c.888-1.235 1.603-2.47 2.123-3.694.52-1.235.78-2.416.78-3.543 0-.736-.13-1.44-.39-2.09a4.987 4.987 0 00-1.246-1.81c-.693-.682-1.451-1.018-2.253-1.018-.303 0-.607.065-.878.195-.281.13-.53.325-.726.607L15.829 6.51c-.195.271-.336.52-.433.758a1.712 1.712 0 00-.152.661c0 .26.076.52.228.77.14.249.346.509.606.769l.824.856c.119.119.173.26.173.433 0 .087-.01.162-.033.249-.032.087-.064.152-.086.217-.195.357-.531.823-1.008 1.386a37.056 37.056 0 01-1.57 1.712 32.56 32.56 0 01-1.723 1.593c-.563.476-1.03.801-1.397.996-.055.022-.12.054-.195.087a.748.748 0 01-.271.043.596.596 0 01-.444-.184l-.824-.813c-.27-.27-.53-.476-.78-.606a1.443 1.443 0 00-.769-.228c-.206 0-.423.044-.66.141a4.188 4.188 0 00-.76.423L2.97 18.32a1.643 1.643 0 00-.596.693c-.108.27-.173.541-.173.845z" fill="#FF6A3D"/></svg>