<?xml version="1.0" encoding="utf-8"?><svg width="25" height="25" fill="none" xmlns="http://www.w3.org/2000/svg" viewBox="0 0 25 25"><g fill="currentColor"><path d="M19.544 1.706A2.488 2.488 0 0017.177 0H7.815a2.488 2.488 0 00-2.367 1.706L3.742 6.781h2.26l1.472-4.393a.355.355 0 01.341-.245h9.362c.15 0 .288.096.341.245l1.461 4.393h2.26l-1.695-5.075zM24.279 8.923H.714A.714.714 0 000 9.637v3.572c0 .395.32.715.714.715h1.227l1.45 9.5a1.432 1.432 0 001.407 1.216h15.397c.704 0 1.3-.512 1.407-1.216l1.45-9.5h1.227c.394 0 .714-.32.714-.715V9.637a.714.714 0 00-.714-.714zM8.562 20.705a1.07 1.07 0 01-1.066 1.066 1.07 1.07 0 01-1.066-1.066v-4.638c0-.587.48-1.066 1.066-1.066.586 0 1.066.48 1.066 1.066v4.638zm5 0a1.07 1.07 0 01-1.065 1.066 1.07 1.07 0 01-1.067-1.066v-4.638c0-.587.48-1.066 1.067-1.066.586 0 1.066.48 1.066 1.066v4.638zm5.002 0a1.07 1.07 0 01-1.067 1.066 1.07 1.07 0 01-1.066-1.066v-4.638c0-.587.48-1.066 1.066-1.066.587 0 1.067.48 1.067 1.066v4.638z"/></g></svg>