<?xml version="1.0" encoding="utf-8"?><svg width="18" height="20" fill="none" xmlns="http://www.w3.org/2000/svg" viewBox="0 0 18 20"><path d="M1.8 18c-.495 0-.919-.176-1.272-.528A1.736 1.736 0 010 16.2V3.6c0-.495.176-.919.528-1.272A1.736 1.736 0 011.8 1.8h3.78c.195-.54.521-.975.98-1.305A2.57 2.57 0 018.1 0c.57 0 1.084.165 1.542.495.457.33.783.765.978 1.305h3.78c.495 0 .919.176 1.272.528.352.353.528.777.528 1.272v6.03a7.42 7.42 0 00-.877-.35 5.52 5.52 0 00-.923-.213V3.6H1.8v12.6h5.445c.045.33.116.645.214.945.097.3.214.585.349.855H1.8zm0-1.8V3.6v5.467V9v7.2zm1.8-1.8h3.667a5.52 5.52 0 01.214-.923c.098-.3.207-.592.327-.877H3.6v1.8zm0-3.6h5.49a6.894 6.894 0 011.608-1.125 6.342 6.342 0 011.902-.608V9h-9v1.8zm0-3.6h9V5.4h-9v1.8zm4.5-4.275a.656.656 0 00.675-.675.658.658 0 00-.19-.484.658.658 0 00-.485-.191.655.655 0 00-.675.675.653.653 0 00.675.675zM13.5 19.8c-1.245 0-2.306-.439-3.183-1.316C9.439 17.606 9 16.545 9 15.3s.439-2.306 1.317-3.184c.877-.877 1.938-1.316 3.183-1.316 1.245 0 2.306.439 3.184 1.316.877.878 1.316 1.939 1.316 3.184s-.439 2.306-1.316 3.184c-.878.877-1.939 1.316-3.184 1.316zm-.45-1.8h.9v-2.25h2.25v-.9h-2.25V12.6h-.9v2.25H10.8v.9h2.25V18z" fill="currentColor"/></svg>