<?xml version="1.0" encoding="utf-8"?><svg width="20" height="20" fill="none" xmlns="http://www.w3.org/2000/svg" viewBox="0 0 20 20"><path d="M1.502 15.439c0 .296.066.6.206.897.14.296.323.576.562.84.405.444.851.765 1.355.97a4.162 4.162 0 001.611.313c.843 0 1.743-.197 2.693-.6.95-.404 1.9-.947 2.842-1.63.95-.691 1.85-1.457 2.71-2.304a23.41 23.41 0 002.305-2.691c.677-.939 1.223-1.877 1.62-2.807.396-.938.594-1.835.594-2.69 0-.56-.1-1.095-.297-1.59a3.787 3.787 0 00-.95-1.373C16.223 2.255 15.646 2 15.034 2c-.231 0-.463.05-.669.148a1.346 1.346 0 00-.554.461L11.895 5.3a2.816 2.816 0 00-.33.576 1.298 1.298 0 00-.116.502c0 .198.058.395.173.584a2.8 2.8 0 00.463.585l.628.65a.44.44 0 01.132.33.745.745 0 01-.025.188c-.025.066-.05.116-.066.165-.149.271-.405.625-.768 1.053a28.14 28.14 0 01-1.198 1.3c-.446.437-.876.84-1.314 1.21-.43.362-.785.61-1.066.758-.04.016-.09.04-.148.065a.572.572 0 01-.207.033.455.455 0 01-.339-.14l-.627-.617a2.536 2.536 0 00-.595-.46 1.103 1.103 0 00-.587-.174c-.157 0-.322.033-.504.107a3.196 3.196 0 00-.578.321L2.088 14.27a1.25 1.25 0 00-.454.527 1.683 1.683 0 00-.132.642z" fill="#FF6A3D"/></svg>