<?xml version="1.0" encoding="utf-8"?><svg width="20" height="20" fill="none" xmlns="http://www.w3.org/2000/svg" viewBox="0 0 20 20"><path d="M14.392 3H6.131C3.652 3 2 4.234 2 7.115v5.76c0 2.88 1.652 4.115 4.13 4.115h8.262c2.479 0 4.131-1.234 4.131-4.114V7.115c0-2.88-1.652-4.115-4.13-4.115zm.389 5.012l-2.586 2.057c-.546.436-1.24.65-1.934.65-.693 0-1.396-.214-1.933-.65L5.742 8.012a.631.631 0 01-.099-.873.62.62 0 01.868-.098l2.586 2.057c.627.502 1.693.502 2.321 0l2.586-2.057a.611.611 0 01.867.098.623.623 0 01-.09.873z" fill="#FF6A3D"/></svg>