<?xml version="1.0" encoding="utf-8"?><svg width="26" height="27" fill="none" xmlns="http://www.w3.org/2000/svg" viewBox="0 0 26 27"><path d="M18.416 4.292H7.583c-3.25 0-5.417 1.625-5.417 5.417v7.583c0 3.792 2.167 5.417 5.417 5.417h10.833c3.25 0 5.417-1.625 5.417-5.417V9.709c0-3.792-2.167-5.417-5.417-5.417zm.51 6.598l-3.392 2.708c-.715.574-1.625.856-2.535.856-.91 0-1.83-.282-2.535-.856l-3.39-2.709a.833.833 0 01-.13-1.148.81.81 0 011.137-.13l3.39 2.708c.824.661 2.222.661 3.045 0l3.39-2.708a.8.8 0 011.138.13.822.822 0 01-.119 1.149z" fill="#FF6A3D"/></svg>