<?xml version="1.0" encoding="utf-8"?><svg width="22" height="22" fill="none" xmlns="http://www.w3.org/2000/svg" viewBox="0 0 22 22"><path d="M0 22l1.555-5.646A10.796 10.796 0 01.095 10.9C.095 4.888 5.01 0 11.047 0c2.931 0 5.684 1.135 7.749 3.194 2.07 2.06 3.21 4.8 3.204 7.712 0 6.012-4.917 10.9-10.958 10.9h-.005c-1.834 0-3.635-.46-5.238-1.327L0 22zm6.078-3.492l.33.198c1.398.826 3 1.26 4.634 1.265h.005c5.017 0 9.104-4.062 9.104-9.06 0-2.42-.946-4.695-2.663-6.41a9.057 9.057 0 00-6.44-2.655C6.03 1.84 1.943 5.903 1.943 10.9c0 1.71.478 3.377 1.392 4.82l.215.345-.92 3.34 3.447-.898z" fill="currentColor"/><path d="M.383 21.62l1.502-5.453a10.437 10.437 0 01-1.418-5.26C.472 5.104 5.216.383 11.047.383a10.53 10.53 0 017.48 3.084 10.434 10.434 0 013.094 7.445c0 5.803-4.749 10.524-10.574 10.524h-.006c-1.77 0-3.509-.444-5.053-1.28L.383 21.619z" fill="currentColor"/><path d="M0 22l1.555-5.646A10.796 10.796 0 01.095 10.9C.095 4.888 5.01 0 11.047 0c2.931 0 5.684 1.135 7.749 3.194 2.07 2.06 3.21 4.8 3.204 7.712 0 6.012-4.917 10.9-10.958 10.9h-.005c-1.834 0-3.635-.46-5.238-1.327L0 22zm6.078-3.492l.33.198c1.398.826 3 1.26 4.634 1.265h.005c5.017 0 9.104-4.062 9.104-9.06 0-2.42-.946-4.695-2.663-6.41a9.057 9.057 0 00-6.44-2.655C6.03 1.84 1.943 5.903 1.943 10.9c0 1.71.478 3.377 1.392 4.82l.215.345-.92 3.34 3.447-.898z" fill="currentColor"/><path fill-rule="evenodd" clip-rule="evenodd" d="M8.31 6.341c-.204-.455-.42-.465-.614-.47-.158-.006-.342-.006-.525-.006a1.01 1.01 0 00-.73.34c-.253.272-.957.93-.957 2.274 0 1.339.983 2.635 1.12 2.818.136.183 1.896 3.022 4.674 4.115 2.312.91 2.785.726 3.284.68.499-.048 1.618-.66 1.849-1.297.226-.638.226-1.182.157-1.297-.068-.115-.252-.183-.525-.319s-1.618-.794-1.87-.888c-.252-.09-.436-.136-.615.136-.184.271-.709.883-.866 1.066-.158.183-.32.204-.594.068-.273-.136-1.156-.423-2.201-1.354-.814-.722-1.366-1.616-1.523-1.887-.158-.272-.016-.419.12-.555.121-.12.274-.318.41-.475.137-.157.184-.272.273-.455.09-.183.048-.34-.02-.476-.069-.13-.605-1.48-.846-2.018z" fill="#1446A0"/></svg>