<?xml version="1.0" encoding="utf-8"?><svg width="28" height="28" fill="none" xmlns="http://www.w3.org/2000/svg" viewBox="0 0 28 28"><path fill-rule="evenodd" clip-rule="evenodd" d="M13.12 1.04c-1.513.198-2.53.52-3.683 1.413A6.436 6.436 0 008.185 3.73c-.36.459-.695 1.079-.918 1.637-.892 2.33-.409 4.674 1.005 6.62.62.844 1.946 1.823 2.926 2.158.98.335 1.773.496 2.913.434 4.786-.298 7.787-5.505 5.53-9.907-.21-.409-.422-.694-.67-1.029C17.72 1.933 15.178.767 13.12 1.04zm.024 4.004c-1.587.323-2.542 1.711-2.306 3.212.223 1.376 1.562 2.628 3.26 2.33 2.468-.434 3.113-3.57 1.253-4.984-.52-.397-1.364-.731-2.207-.558zM10.144 26.469c.298-.298 3.298-3.31 3.472-3.422.186.111.446.409.62.582l2.988 3c.409.422.892.72 1.773.683.67-.174 1.165-.434 1.475-1.017.1-.173.186-.384.223-.607.211-1.153-.545-1.76-1.004-2.232-.235-.236-3.186-3.125-3.298-3.31a13.266 13.266 0 003.46-1.377c.57-.31.991-.57 1.214-1.215a1.99 1.99 0 00-1.91-2.69c-.78.025-1.127.421-1.698.694-2.603 1.203-5.244 1.215-7.81-.074-.534-.273-1.005-.695-1.774-.645-1.475.074-2.231 1.612-1.71 2.802.272.608.681.83 1.252 1.153 1.016.595 2.17 1.042 3.434 1.351-.112.174-3.112 3.125-3.348 3.36-.483.472-1.215 1.067-.98 2.257.36 1.86 2.307 2.033 3.621.707z" fill="#193762"/></svg>