<?xml version="1.0" encoding="utf-8"?><svg viewBox="0 0 61 61" xmlns="http://www.w3.org/2000/svg" xmlns:xlink="http://www.w3.org/1999/xlink"><style>:root>svg{display:none}:root>svg:target{display:block}</style><svg fill="none" viewBox="0 0 14 9" id="accordion-arrow" xmlns="http://www.w3.org/2000/svg"><path d="M13 8L7 2 1 8" stroke="#fff" stroke-width="1.5"/></svg><svg viewBox="0 0 14 11" fill="none" id="arrow-right" xmlns="http://www.w3.org/2000/svg"><path d="M12.869 5.363L1.402 5.228m6.72-4.158l4.747 4.293L8.123 1.07zm4.747 4.293L8.697 9.552l4.172-4.189z" stroke="currentColor" stroke-width="2" stroke-linecap="round" stroke-linejoin="round"/></svg><svg fill="none" viewBox="0 0 13 3" id="basket-minus" xmlns="http://www.w3.org/2000/svg"><path d="M0 1.658a1 1 0 011-1h11a1 1 0 110 2H1a1 1 0 01-1-1z" fill="#193762"/></svg><svg fill="none" viewBox="0 0 15 14" id="basket-plus" xmlns="http://www.w3.org/2000/svg"><path d="M13.031 6.953H7.257V1.178M1.828 7.065h5.775v5.775" stroke="#193762" stroke-width="2" stroke-linecap="round" stroke-linejoin="round"/></svg><svg fill="none" viewBox="0 0 17 17" id="basket-remove" xmlns="http://www.w3.org/2000/svg"><path d="M12.086 12.664L8.003 8.581l4.083-4.084M4.086 4.821l4.083 4.084-4.083 4.083" stroke="#193762" stroke-width="2" stroke-linecap="round" stroke-linejoin="round"/></svg><svg fill="none" viewBox="0 0 36 36" id="blind" xmlns="http://www.w3.org/2000/svg"><g fill="currentColor"><circle cx="9" cy="18" r="5.4"/><circle cx="27" cy="18" r="5.4"/><path d="M34.875 16.2H33.3c-.9-2.7-3.375-4.5-6.3-4.5s-5.4 2.025-6.3 4.725c-.675-.9-1.575-1.35-2.7-1.35-1.125 0-2.025.45-2.7 1.35-.9-2.7-3.375-4.725-6.3-4.725s-5.4 2.025-6.3 4.5H1.125C.45 16.2 0 16.65 0 17.325s.45 1.125 1.125 1.125H2.25c0 3.825 2.925 6.75 6.75 6.75 3.375 0 6.075-2.475 6.75-5.625.675 0 1.125-.45 1.125-1.125s.45-1.125 1.125-1.125 1.125.45 1.125 1.125.45 1.125 1.125 1.125c.45 3.15 3.375 5.625 6.75 5.625 3.825 0 6.75-2.925 6.75-6.75h1.125C35.55 18.45 36 18 36 17.325s-.45-1.125-1.125-1.125zM9 22.95a4.513 4.513 0 01-4.5-4.5c0-2.475 2.025-4.5 4.5-4.5s4.5 2.025 4.5 4.5-2.025 4.5-4.5 4.5zm18 0a4.513 4.513 0 01-4.5-4.5c0-2.475 2.025-4.5 4.5-4.5s4.5 2.025 4.5 4.5-2.025 4.5-4.5 4.5z"/></g></svg><svg fill="none" viewBox="0 0 14 14" id="btn-arrow" xmlns="http://www.w3.org/2000/svg"><path d="M10.71 3.288l-7.424 7.425m1.65-7.425h5.774-5.774zm5.774 0v5.775-5.775z" stroke="currentColor" stroke-width="2" stroke-linecap="round" stroke-linejoin="round"/></svg><svg fill="none" viewBox="0 0 16 14" id="btn-arrow-right" xmlns="http://www.w3.org/2000/svg"><g clip-path="url(#ahclip0_3220_11058)"><path d="M13.365 7H2.342m6.736-4.084l4.287 4.083-4.287-4.083zm4.287 4.083l-4.287 4.084 4.287-4.084z" stroke="#fff" stroke-width="2" stroke-linecap="round" stroke-linejoin="round"/></g><defs><clipPath id="ahclip0_3220_11058"><path fill="#fff" transform="rotate(-90 7.253 6.747)" d="M0 0h14v14.698H0z"/></clipPath></defs></svg><svg viewBox="0 0 26 26" fill="none" id="call" xmlns="http://www.w3.org/2000/svg"><path d="M2.2 19.858c0 .39.086.79.27 1.18.185.39.423.759.737 1.106.531.585 1.116 1.007 1.777 1.278a5.44 5.44 0 002.112.412c1.105 0 2.286-.26 3.532-.791s2.492-1.246 3.727-2.145a31.147 31.147 0 003.553-3.034 30.791 30.791 0 003.023-3.542c.888-1.235 1.603-2.47 2.123-3.694.52-1.235.78-2.416.78-3.543 0-.736-.13-1.44-.39-2.09a4.987 4.987 0 00-1.246-1.81c-.693-.682-1.451-1.018-2.253-1.018-.303 0-.607.065-.878.195-.281.13-.53.325-.726.607L15.829 6.51c-.195.271-.336.52-.433.758a1.712 1.712 0 00-.152.661c0 .26.076.52.228.77.14.249.346.509.606.769l.824.856c.119.119.173.26.173.433 0 .087-.01.162-.033.249-.032.087-.064.152-.086.217-.195.357-.531.823-1.008 1.386a37.056 37.056 0 01-1.57 1.712 32.56 32.56 0 01-1.723 1.593c-.563.476-1.03.801-1.397.996-.055.022-.12.054-.195.087a.748.748 0 01-.271.043.596.596 0 01-.444-.184l-.824-.813c-.27-.27-.53-.476-.78-.606a1.443 1.443 0 00-.769-.228c-.206 0-.423.044-.66.141a4.188 4.188 0 00-.76.423L2.97 18.32a1.643 1.643 0 00-.596.693c-.108.27-.173.541-.173.845z" fill="#FF6A3D"/></svg><svg fill="none" viewBox="0 0 25 25" id="cart" xmlns="http://www.w3.org/2000/svg"><g fill="currentColor"><path d="M19.544 1.706A2.488 2.488 0 0017.177 0H7.815a2.488 2.488 0 00-2.367 1.706L3.742 6.781h2.26l1.472-4.393a.355.355 0 01.341-.245h9.362c.15 0 .288.096.341.245l1.461 4.393h2.26l-1.695-5.075zM24.279 8.923H.714A.714.714 0 000 9.637v3.572c0 .395.32.715.714.715h1.227l1.45 9.5a1.432 1.432 0 001.407 1.216h15.397c.704 0 1.3-.512 1.407-1.216l1.45-9.5h1.227c.394 0 .714-.32.714-.715V9.637a.714.714 0 00-.714-.714zM8.562 20.705a1.07 1.07 0 01-1.066 1.066 1.07 1.07 0 01-1.066-1.066v-4.638c0-.587.48-1.066 1.066-1.066.586 0 1.066.48 1.066 1.066v4.638zm5 0a1.07 1.07 0 01-1.065 1.066 1.07 1.07 0 01-1.067-1.066v-4.638c0-.587.48-1.066 1.067-1.066.586 0 1.066.48 1.066 1.066v4.638zm5.002 0a1.07 1.07 0 01-1.067 1.066 1.07 1.07 0 01-1.066-1.066v-4.638c0-.587.48-1.066 1.066-1.066.587 0 1.067.48 1.067 1.066v4.638z"/></g></svg><svg fill="none" viewBox="0 0 8 3" id="catalog-cart-minus" xmlns="http://www.w3.org/2000/svg"><path fill-rule="evenodd" clip-rule="evenodd" d="M7.5 1.5a1 1 0 01-1 1H1a1 1 0 010-2h5.5a1 1 0 011 1z" fill="#1B316D"/></svg><svg fill="none" viewBox="0 0 9 9" id="catalog-cart-plus" xmlns="http://www.w3.org/2000/svg"><path d="M7.725 4.466H4.258V.999M1 4.533h3.467V8" stroke="#1B316D" stroke-width="2" stroke-linecap="round" stroke-linejoin="round"/></svg><svg fill="none" viewBox="0 0 18 20" id="catalog-detail-description" xmlns="http://www.w3.org/2000/svg"><path d="M1.8 18c-.495 0-.919-.176-1.272-.528A1.736 1.736 0 010 16.2V3.6c0-.495.176-.919.528-1.272A1.736 1.736 0 011.8 1.8h3.78c.195-.54.521-.975.98-1.305A2.57 2.57 0 018.1 0c.57 0 1.084.165 1.542.495.457.33.783.765.978 1.305h3.78c.495 0 .919.176 1.272.528.352.353.528.777.528 1.272v6.03a7.42 7.42 0 00-.877-.35 5.52 5.52 0 00-.923-.213V3.6H1.8v12.6h5.445c.045.33.116.645.214.945.097.3.214.585.349.855H1.8zm0-1.8V3.6v5.467V9v7.2zm1.8-1.8h3.667a5.52 5.52 0 01.214-.923c.098-.3.207-.592.327-.877H3.6v1.8zm0-3.6h5.49a6.894 6.894 0 011.608-1.125 6.342 6.342 0 011.902-.608V9h-9v1.8zm0-3.6h9V5.4h-9v1.8zm4.5-4.275a.656.656 0 00.675-.675.658.658 0 00-.19-.484.658.658 0 00-.485-.191.655.655 0 00-.675.675.653.653 0 00.675.675zM13.5 19.8c-1.245 0-2.306-.439-3.183-1.316C9.439 17.606 9 16.545 9 15.3s.439-2.306 1.317-3.184c.877-.877 1.938-1.316 3.183-1.316 1.245 0 2.306.439 3.184 1.316.877.878 1.316 1.939 1.316 3.184s-.439 2.306-1.316 3.184c-.878.877-1.939 1.316-3.184 1.316zm-.45-1.8h.9v-2.25h2.25v-.9h-2.25V12.6h-.9v2.25H10.8v.9h2.25V18z" fill="currentColor"/></svg><svg fill="none" viewBox="0 0 11 13" id="catalog-file-download" xmlns="http://www.w3.org/2000/svg"><path d="M5.083 11.5V1m4.083 6.417L5.083 11.5l4.083-4.083zM5.083 11.5L.999 7.417 5.083 11.5z" stroke="#193762" stroke-width="2" stroke-linecap="round" stroke-linejoin="round"/></svg><svg fill="none" viewBox="0 0 61 61" id="catalog-file-pdf" xmlns="http://www.w3.org/2000/svg"><path d="M15.25 0a3.824 3.824 0 00-3.813 3.813v53.374A3.824 3.824 0 0015.25 61h38.125a3.824 3.824 0 003.813-3.813V15.25L41.938 0H15.25z" fill="#fff"/><path d="M45.75 15.25h11.438L41.938 0v11.438a3.824 3.824 0 003.812 3.812z" fill="#B0B7BD"/><path d="M57.188 26.688L45.75 15.25h11.438v11.438z" fill="#CAD1D8"/><path d="M49.563 49.563a1.912 1.912 0 01-1.907 1.906H5.72a1.912 1.912 0 01-1.907-1.907V30.5c0-1.048.858-1.906 1.907-1.906h41.937c1.049 0 1.907.858 1.907 1.906v19.063z" fill="#F15642"/><path d="M12.121 36.119c0-.504.397-1.053 1.035-1.053h3.521c1.983 0 3.767 1.327 3.767 3.87 0 2.41-1.784 3.752-3.767 3.752h-2.545V44.7c0 .67-.427 1.05-.976 1.05-.503 0-1.035-.38-1.035-1.05v-8.582zm2.011.867v3.797h2.545c1.022 0 1.83-.901 1.83-1.847 0-1.066-.808-1.95-1.83-1.95h-2.545zM23.43 45.75c-.504 0-1.053-.274-1.053-.943v-8.658c0-.547.549-.946 1.052-.946h3.49c6.966 0 6.814 10.547.138 10.547h-3.628zm.96-8.686v6.828h2.53c4.115 0 4.298-6.828 0-6.828h-2.53zM36.203 37.188v2.422h3.887c.549 0 1.098.55 1.098 1.081 0 .503-.55.915-1.098.915h-3.887v3.2c0 .535-.38.944-.913.944-.671 0-1.081-.41-1.081-.943v-8.658c0-.547.412-.946 1.08-.946h5.352c.67 0 1.067.398 1.067.946 0 .488-.396 1.037-1.067 1.037h-4.438v.002z" fill="#fff"/><path d="M47.656 51.469H11.438v1.906h36.218a1.912 1.912 0 001.907-1.906v-1.907a1.912 1.912 0 01-1.907 1.907z" fill="#CAD1D8"/></svg><svg fill="none" viewBox="0 0 15 14" id="catalog-filters-icon" xmlns="http://www.w3.org/2000/svg"><g clip-path="url(#apclip0_3760_10662)" fill="#fff"><path d="M0 7a1 1 0 011-1h13a1 1 0 110 2H1a1 1 0 01-1-1zM0 1a1 1 0 011-1h13a1 1 0 110 2H1a1 1 0 01-1-1zM0 13a1 1 0 011-1h13a1 1 0 110 2H1a1 1 0 01-1-1z"/></g><defs><clipPath id="apclip0_3760_10662"><path fill="#fff" transform="rotate(-90 7 7)" d="M0 0h14v15H0z"/></clipPath></defs></svg><svg fill="inherit" viewBox="0 0 32 32" id="catlog-switch-grid" xmlns="http://www.w3.org/2000/svg"><path d="M6.666 13.334h2.667c2.666 0 4-1.334 4-4V6.667c0-2.667-1.334-4-4-4H6.666c-2.667 0-4 1.333-4 4v2.667c0 2.666 1.333 4 4 4zM22.666 13.334h2.667c2.666 0 4-1.334 4-4V6.667c0-2.667-1.334-4-4-4h-2.667c-2.667 0-4 1.333-4 4v2.667c0 2.666 1.333 4 4 4zM22.666 29.334h2.667c2.666 0 4-1.334 4-4v-2.667c0-2.667-1.334-4-4-4h-2.667c-2.667 0-4 1.333-4 4v2.667c0 2.666 1.333 4 4 4zM6.666 29.334h2.667c2.666 0 4-1.334 4-4v-2.667c0-2.667-1.334-4-4-4H6.666c-2.667 0-4 1.333-4 4v2.667c0 2.666 1.333 4 4 4z" stroke="inherit" stroke-width="2" stroke-miterlimit="10" stroke-linecap="round" stroke-linejoin="round"/></svg><svg fill="inherit" viewBox="0 0 38 30" id="catlog-switch-list" xmlns="http://www.w3.org/2000/svg"><path d="M5 12.334h2.667c2.666 0 4-1.334 4-4V5.667c0-2.667-1.334-4-4-4H5c-2.667 0-4 1.333-4 4v2.667c0 2.666 1.333 4 4 4zM5 28.667h2.667c2.666 0 4-1.334 4-4V22c0-2.667-1.334-4-4-4H5c-2.667 0-4 1.333-4 4v2.667c0 2.666 1.333 4 4 4z" stroke="inherit" stroke-width="2" stroke-miterlimit="10" stroke-linecap="round" stroke-linejoin="round"/><rect x="17" y="4" width="21" height="6" rx="2"/><rect x="17" y="20.333" width="21" height="6" rx="2"/></svg><svg fill="none" viewBox="0 0 22 23" id="comments-icon" xmlns="http://www.w3.org/2000/svg"><path d="M21.367 18.379l-.981-2.936a.638.638 0 01.04-.503 7.647 7.647 0 00.722-4.891c-.486-2.726-2.482-4.989-5.07-5.857a9.157 9.157 0 01.536 5.183 8.972 8.972 0 01-7.203 7.13c-.47.081-.94.122-1.411.138a7.564 7.564 0 004.21 2.328c1.768.316 3.439.024 4.866-.706a.637.637 0 01.503-.04l2.945.981a.658.658 0 00.843-.827z" fill="#fff"/><path d="M6.313.137C3.255.704.805 3.187.253 6.252a7.646 7.646 0 00.723 4.891.638.638 0 01.04.503l-.981 2.937a.66.66 0 00.835.835l2.944-.981a.64.64 0 01.503.04 7.676 7.676 0 004.867.706c3.058-.552 5.532-2.993 6.108-6.043A7.665 7.665 0 006.312.137zm1.946 9.895H4.455a.68.68 0 110-1.362H8.26a.68.68 0 110 1.362zm2.718-2.717H4.455a.68.68 0 110-1.363h6.522a.68.68 0 110 1.363z" fill="#fff"/></svg><svg fill="none" viewBox="0 0 21 25" id="contacts-map" xmlns="http://www.w3.org/2000/svg"><path fill-rule="evenodd" clip-rule="evenodd" d="M20.779 10.552c0 5.566-8.675 13.176-9.665 14.025a1.105 1.105 0 01-1.445-.004C8.675 23.728 0 16.118 0 10.553 0 4.723 4.651 0 10.39 0c5.737 0 10.389 4.724 10.389 10.552zM15.112 9.9c0 2.485-2.114 4.5-4.722 4.5-2.609 0-4.723-2.015-4.723-4.5s2.114-4.5 4.723-4.5c2.608 0 4.722 2.015 4.722 4.5z" fill="#193762"/></svg><svg fill="none" viewBox="0 0 21 22" id="file-inp-clip" xmlns="http://www.w3.org/2000/svg"><path d="M1.757 1.664h0l-.022.023a5.296 5.296 0 000 7.652l-.07.072.07-.072L12.99 20.255c1.514 1.467 3.976 1.467 5.49 0a3.681 3.681 0 000-5.315L7.222 4.025a2.232 2.232 0 00-3.076 0l-.07-.072.07.072a2.065 2.065 0 000 2.975l-.07.072.07-.072 10.452 10.136.015.014a.478.478 0 00.655-.009.442.442 0 00.136-.321h0a.443.443 0 00-.14-.32h0-.002L4.811 6.364a1.165 1.165 0 010-1.703 1.247 1.247 0 011.748 0h0l11.256 10.915a2.78 2.78 0 010 4.042 2.986 2.986 0 01-4.16 0L2.4 8.703l.07-.072-.07.072C.57 6.93.57 4.096 2.4 2.323a4.725 4.725 0 016.57 0l10.452 10.135h0l-.053.055.054-.054a.477.477 0 00.334.138h0a.477.477 0 00.336-.133h0a.442.442 0 00.136-.322h.1-.1a.444.444 0 00-.141-.32h0-.001L9.635 1.686C7.461-.422 3.94-.429 1.757 1.664z" fill="#FF6A3D" stroke="#FF6A3D" stroke-width=".2"/></svg><svg fill="none" viewBox="0 0 11 7" id="filter-select-arrow" xmlns="http://www.w3.org/2000/svg"><path d="M9.167 1L5.084 5.083 1 1" stroke="#193762" stroke-width="2" stroke-linecap="round" stroke-linejoin="round"/></svg><svg fill="none" viewBox="0 0 12 12" id="filters-cross" xmlns="http://www.w3.org/2000/svg"><path d="M11 11.235l-4.91-4.91L11 1.417" stroke="#193762" stroke-width="1.5"/><path d="M1.46 1.416l4.91 4.91-4.91 4.909" stroke="#193762" stroke-width="1.5"/></svg><svg fill="none" viewBox="0 0 20 20" id="icon-clock" xmlns="http://www.w3.org/2000/svg"><circle cx="10" cy="10" r="10" fill="#FF6A3D"/><path d="M9.5 9.5L15 4" stroke="#fff" stroke-width="2"/></svg><svg fill="none" viewBox="0 0 16 20" id="icon-location" xmlns="http://www.w3.org/2000/svg"><path fill-rule="evenodd" clip-rule="evenodd" d="M16 8.375c0 4.417-6.68 10.457-7.442 11.13a.836.836 0 01-1.113-.003C6.68 18.832 0 12.792 0 8.375 0 3.749 3.582 0 8 0s8 3.75 8 8.375zm-4.364-.518c0 1.973-1.628 3.572-3.636 3.572s-3.636-1.6-3.636-3.572S5.992 4.286 8 4.286s3.636 1.599 3.636 3.571z" fill="#FF6A3D"/></svg><svg fill="none" viewBox="0 0 20 20" id="icon-location-20x20" xmlns="http://www.w3.org/2000/svg"><path fill-rule="evenodd" clip-rule="evenodd" d="M16 8.375c0 4.417-6.68 10.456-7.442 11.13a.836.836 0 01-1.113-.003C6.68 18.832 0 12.792 0 8.375 0 3.749 3.582 0 8 0s8 3.75 8 8.375zm-4.364-.518c0 1.973-1.628 3.572-3.636 3.572s-3.636-1.6-3.636-3.572S5.992 4.286 8 4.286s3.636 1.599 3.636 3.571z" fill="#FF6A3D"/></svg><svg fill="none" viewBox="0 0 20 20" id="icon-orange-email" xmlns="http://www.w3.org/2000/svg"><path d="M14.392 3H6.131C3.652 3 2 4.234 2 7.115v5.76c0 2.88 1.652 4.115 4.13 4.115h8.262c2.479 0 4.131-1.234 4.131-4.114V7.115c0-2.88-1.652-4.115-4.13-4.115zm.389 5.012l-2.586 2.057c-.546.436-1.24.65-1.934.65-.693 0-1.396-.214-1.933-.65L5.742 8.012a.631.631 0 01-.099-.873.62.62 0 01.868-.098l2.586 2.057c.627.502 1.693.502 2.321 0l2.586-2.057a.611.611 0 01.867.098.623.623 0 01-.09.873z" fill="#FF6A3D"/></svg><svg fill="none" viewBox="0 0 20 20" id="icon-orange-phone" xmlns="http://www.w3.org/2000/svg"><path d="M1.502 15.439c0 .296.066.6.206.897.14.296.323.576.562.84.405.444.851.765 1.355.97a4.162 4.162 0 001.611.313c.843 0 1.743-.197 2.693-.6.95-.404 1.9-.947 2.842-1.63.95-.691 1.85-1.457 2.71-2.304a23.41 23.41 0 002.305-2.691c.677-.939 1.223-1.877 1.62-2.807.396-.938.594-1.835.594-2.69 0-.56-.1-1.095-.297-1.59a3.787 3.787 0 00-.95-1.373C16.223 2.255 15.646 2 15.034 2c-.231 0-.463.05-.669.148a1.346 1.346 0 00-.554.461L11.895 5.3a2.816 2.816 0 00-.33.576 1.298 1.298 0 00-.116.502c0 .198.058.395.173.584a2.8 2.8 0 00.463.585l.628.65a.44.44 0 01.132.33.745.745 0 01-.025.188c-.025.066-.05.116-.066.165-.149.271-.405.625-.768 1.053a28.14 28.14 0 01-1.198 1.3c-.446.437-.876.84-1.314 1.21-.43.362-.785.61-1.066.758-.04.016-.09.04-.148.065a.572.572 0 01-.207.033.455.455 0 01-.339-.14l-.627-.617a2.536 2.536 0 00-.595-.46 1.103 1.103 0 00-.587-.174c-.157 0-.322.033-.504.107a3.196 3.196 0 00-.578.321L2.088 14.27a1.25 1.25 0 00-.454.527 1.683 1.683 0 00-.132.642z" fill="#FF6A3D"/></svg><svg fill="none" viewBox="0 0 14 9" id="large-select-arrow" xmlns="http://www.w3.org/2000/svg"><path d="M13 1L7 7 1 1" stroke="#193762" stroke-width="1.5"/></svg><svg fill="none" viewBox="0 0 21 25" id="map-pointer" xmlns="http://www.w3.org/2000/svg"><path fill-rule="evenodd" clip-rule="evenodd" d="M20.779 10.552c0 5.566-8.675 13.176-9.665 14.025a1.105 1.105 0 01-1.445-.004C8.675 23.728 0 16.118 0 10.553 0 4.723 4.651 0 10.39 0c5.737 0 10.389 4.724 10.389 10.552zM15.112 9.9c0 2.485-2.114 4.5-4.722 4.5-2.609 0-4.723-2.015-4.723-4.5s2.114-4.5 4.723-4.5c2.608 0 4.722 2.015 4.722 4.5z" fill="#FF6A3D"/></svg><svg viewBox="0 0 35 35" fill="none" id="menu-brands" xmlns="http://www.w3.org/2000/svg"><path fill-rule="evenodd" clip-rule="evenodd" d="M12 7h16.49L35 13.444V34h-6.964a1.059 1.059 0 110-2.118h4.825V14.321l-5.258-5.203H14.14v3.165a1.07 1.07 0 11-2.139 0V7zM13.665 18.666c.378-.972 1.746-.992 2.153-.032l5.768 13.606a1.044 1.044 0 01-1.923.815L14.786 21.55l-4.454 11.462a1.045 1.045 0 11-1.948-.756l5.281-13.59z" fill="currentColor"/><path d="M11 29h8" stroke="currentColor" stroke-width="2"/></svg><svg fill="none" viewBox="0 0 32 32" id="menu-catalog" xmlns="http://www.w3.org/2000/svg"><g stroke="currentColor" stroke-width="2" stroke-miterlimit="10" stroke-linecap="round" stroke-linejoin="round"><path d="M6.666 13.334h2.667c2.666 0 4-1.334 4-4V6.667c0-2.667-1.334-4-4-4H6.666c-2.667 0-4 1.333-4 4v2.667c0 2.666 1.333 4 4 4z"/><path d="M22.666 13.334h2.667c2.666 0 4-1.334 4-4V6.667c0-2.667-1.334-4-4-4h-2.667c-2.667 0-4 1.333-4 4v2.667c0 2.666 1.333 4 4 4z" fill="currentColor"/><path d="M22.666 29.334h2.667c2.666 0 4-1.334 4-4v-2.667c0-2.667-1.334-4-4-4h-2.667c-2.667 0-4 1.333-4 4v2.667c0 2.666 1.333 4 4 4z"/><path d="M6.666 29.334h2.667c2.666 0 4-1.334 4-4v-2.667c0-2.667-1.334-4-4-4H6.666c-2.667 0-4 1.333-4 4v2.667c0 2.666 1.333 4 4 4z" fill="currentColor"/></g></svg><svg fill="none" viewBox="0 0 7 11" id="modal-right-arrow" xmlns="http://www.w3.org/2000/svg"><path d="M1 1l4.083 4.083L1 9.167" stroke="#193762" stroke-width="2" stroke-linecap="round" stroke-linejoin="round"/></svg><svg fill="none" stroke="inherit" viewBox="0 0 14 12" id="pagination-next" xmlns="http://www.w3.org/2000/svg"><path d="M12.047 6H1.023M7.76 1.917L12.047 6 7.76 1.917zM12.047 6L7.76 10.084 12.047 6z" stroke-width="2" stroke-linecap="round" stroke-linejoin="round"/></svg><svg fill="none" viewBox="0 0 6 9" id="pagintaion-arrow" xmlns="http://www.w3.org/2000/svg"><path d="M1 1l4 3.333-4 3.334" stroke="#454B56"/></svg><svg fill="none" viewBox="0 0 20 21" id="search" xmlns="http://www.w3.org/2000/svg"><g stroke="currentColor" stroke-width="2" stroke-linecap="round" stroke-linejoin="round"><path d="M18 9.5a8.5 8.5 0 11-17 0 8.5 8.5 0 0117 0zM19 20l-2-2"/></g></svg><svg fill="none" viewBox="0 0 13 11" id="slider-arrow-blue" xmlns="http://www.w3.org/2000/svg"><path d="M11.5 5.083H1M7.417 1L11.5 5.083 7.417 1zM11.5 5.083L7.417 9.167 11.5 5.083z" stroke="#1B316D" stroke-width="2" stroke-linecap="round" stroke-linejoin="round"/></svg><svg fill="none" viewBox="0 0 11 8" id="small-circle-btn-arrow" xmlns="http://www.w3.org/2000/svg"><path d="M9.822 4.167H1.291m5.213-3.001l3.318 3-3.318-3zm3.318 3L6.504 7.168l3.318-3z" stroke="#fff" stroke-width="1.335" stroke-linecap="round" stroke-linejoin="round"/></svg><svg fill="none" viewBox="0 0 26 27" id="sms" xmlns="http://www.w3.org/2000/svg"><path d="M18.416 4.292H7.583c-3.25 0-5.417 1.625-5.417 5.417v7.583c0 3.792 2.167 5.417 5.417 5.417h10.833c3.25 0 5.417-1.625 5.417-5.417V9.709c0-3.792-2.167-5.417-5.417-5.417zm.51 6.598l-3.392 2.708c-.715.574-1.625.856-2.535.856-.91 0-1.83-.282-2.535-.856l-3.39-2.709a.833.833 0 01-.13-1.148.81.81 0 011.137-.13l3.39 2.708c.824.661 2.222.661 3.045 0l3.39-2.708a.8.8 0 011.138.13.822.822 0 01-.119 1.149z" fill="#FF6A3D"/></svg><svg fill="none" viewBox="0 0 25 26" id="soc-vk" xmlns="http://www.w3.org/2000/svg"><path d="M24.434 6.266c-.281.92-.66 1.72-1.135 2.447l.02-.032a131.31 131.31 0 01-1.672 2.803c-.556.838-.85 1.27-.883 1.3a1.415 1.415 0 00-.278.67v.007c.027.23.13.43.278.58l.417.483c2.23 2.383 3.483 4.025 3.761 4.927a.991.991 0 01-.117.898l.003-.003a.987.987 0 01-.817.313h.004-2.745c-.351 0-.674-.128-.928-.34l.004.002a7.365 7.365 0 01-.991-1.027l-.01-.013a31.594 31.594 0 00-1.276-1.424c-1.238-1.224-2.151-1.836-2.74-1.836a.799.799 0 00-.538.146l.003-.002a.852.852 0 00-.166.633v-.004a14.082 14.082 0 00-.04 1.52v-.019 1.256a.858.858 0 01-.277.82v.001a3.205 3.205 0 01-1.685.29h.013a8.43 8.43 0 01-4.453-1.373l.037.021a12.65 12.65 0 01-3.872-3.818l-.028-.046a28.768 28.768 0 01-2.574-4.325l-.073-.166A27.266 27.266 0 01.39 7.919l-.062-.2a7.452 7.452 0 01-.323-1.663l-.002-.027c0-.548.31-.821.93-.821h2.739a1.076 1.076 0 01.77.244l-.003-.003c.209.237.363.529.439.854l.003.013a28.117 28.117 0 001.653 3.916l-.07-.148a15.872 15.872 0 001.691 2.79l-.024-.033c.556.709.989 1.064 1.3 1.064h.033a.415.415 0 00.362-.216v-.002a2 2 0 00.116-.853v.007-4.203a3.591 3.591 0 00-.333-1.372l.008.02a3.22 3.22 0 00-.468-.752l.003.004a1.208 1.208 0 01-.324-.67l-.001-.007c0-.184.081-.35.208-.458l.001-.002a.692.692 0 01.48-.192h4.327a.65.65 0 01.582.24v.001a1.52 1.52 0 01.166.827V6.27v5.605a1.093 1.093 0 00.142.633l-.002-.005a.414.414 0 00.347.193.96.96 0 00.492-.176l-.004.002c.284-.202.527-.433.739-.694l.004-.006a16.896 16.896 0 001.724-2.437l.04-.076c.36-.617.747-1.378 1.098-2.159l.064-.16.465-.966c.161-.483.595-.823 1.104-.823l.06.001h-.004 2.74c.741 0 1.019.354.834 1.063z" fill="currentColor"/></svg><svg fill="none" viewBox="0 0 23 23" id="soc-wa" xmlns="http://www.w3.org/2000/svg"><path d="M0 23l1.626-5.903a11.287 11.287 0 01-1.527-5.7C.099 5.11 5.239 0 11.549 0c3.065 0 5.943 1.186 8.1 3.34A11.274 11.274 0 0123 11.402c0 6.285-5.14 11.396-11.456 11.396h-.006c-1.916 0-3.8-.481-5.475-1.388L0 23zm6.354-3.651l.346.208a9.58 9.58 0 004.844 1.322h.005c5.245 0 9.518-4.247 9.518-9.472 0-2.53-.989-4.908-2.785-6.701a9.468 9.468 0 00-6.733-2.777c-5.244-.005-9.517 4.242-9.517 9.467a9.4 9.4 0 001.455 5.04l.226.36-.962 3.493 3.603-.94z" fill="#fff"/><path d="M.4 22.601l1.571-5.7a10.912 10.912 0 01-1.483-5.499C.494 5.335 5.453.399 11.548.399a11.01 11.01 0 017.821 3.225 10.909 10.909 0 013.235 7.784c0 6.066-4.965 11.002-11.055 11.002h-.006c-1.85 0-3.668-.465-5.283-1.339L.4 22.601z" fill="currentColor"/><path d="M0 23l1.626-5.903a11.287 11.287 0 01-1.527-5.7C.099 5.11 5.239 0 11.549 0c3.065 0 5.943 1.186 8.1 3.34A11.274 11.274 0 0123 11.402c0 6.285-5.14 11.396-11.456 11.396h-.006c-1.916 0-3.8-.481-5.475-1.388L0 23zm6.354-3.651l.346.208a9.58 9.58 0 004.844 1.322h.005c5.245 0 9.518-4.247 9.518-9.472 0-2.53-.989-4.908-2.785-6.701a9.468 9.468 0 00-6.733-2.777c-5.244-.005-9.517 4.242-9.517 9.467a9.4 9.4 0 001.455 5.04l.226.36-.962 3.493 3.603-.94z" fill="currentColor"/><path fill-rule="evenodd" clip-rule="evenodd" d="M8.689 6.63c-.214-.475-.44-.486-.643-.492-.164-.005-.357-.005-.549-.005-.192 0-.5.07-.763.355-.264.284-1 .973-1 2.378 0 1.399 1.027 2.755 1.17 2.946.143.191 1.983 3.159 4.888 4.301 2.416.951 2.91.76 3.432.71.522-.048 1.692-.688 1.933-1.355.237-.666.237-1.235.165-1.355-.071-.12-.263-.191-.549-.334-.285-.142-1.691-.83-1.955-.929-.264-.093-.456-.142-.643.142-.192.285-.741.924-.906 1.115-.165.192-.335.214-.62.071-.286-.142-1.209-.442-2.301-1.415-.852-.755-1.428-1.69-1.593-1.973-.165-.285-.017-.438.126-.58.127-.125.286-.333.429-.497.142-.164.192-.284.285-.476.094-.19.05-.355-.022-.497-.071-.137-.631-1.547-.884-2.11z" fill="#fff"/></svg><svg fill="none" viewBox="0 0 22 22" id="soc-wa-f" xmlns="http://www.w3.org/2000/svg"><path d="M0 22l1.555-5.646A10.796 10.796 0 01.095 10.9C.095 4.888 5.01 0 11.047 0c2.931 0 5.684 1.135 7.749 3.194 2.07 2.06 3.21 4.8 3.204 7.712 0 6.012-4.917 10.9-10.958 10.9h-.005c-1.834 0-3.635-.46-5.238-1.327L0 22zm6.078-3.492l.33.198c1.398.826 3 1.26 4.634 1.265h.005c5.017 0 9.104-4.062 9.104-9.06 0-2.42-.946-4.695-2.663-6.41a9.057 9.057 0 00-6.44-2.655C6.03 1.84 1.943 5.903 1.943 10.9c0 1.71.478 3.377 1.392 4.82l.215.345-.92 3.34 3.447-.898z" fill="currentColor"/><path d="M.383 21.62l1.502-5.453a10.437 10.437 0 01-1.418-5.26C.472 5.104 5.216.383 11.047.383a10.53 10.53 0 017.48 3.084 10.434 10.434 0 013.094 7.445c0 5.803-4.749 10.524-10.574 10.524h-.006c-1.77 0-3.509-.444-5.053-1.28L.383 21.619z" fill="currentColor"/><path d="M0 22l1.555-5.646A10.796 10.796 0 01.095 10.9C.095 4.888 5.01 0 11.047 0c2.931 0 5.684 1.135 7.749 3.194 2.07 2.06 3.21 4.8 3.204 7.712 0 6.012-4.917 10.9-10.958 10.9h-.005c-1.834 0-3.635-.46-5.238-1.327L0 22zm6.078-3.492l.33.198c1.398.826 3 1.26 4.634 1.265h.005c5.017 0 9.104-4.062 9.104-9.06 0-2.42-.946-4.695-2.663-6.41a9.057 9.057 0 00-6.44-2.655C6.03 1.84 1.943 5.903 1.943 10.9c0 1.71.478 3.377 1.392 4.82l.215.345-.92 3.34 3.447-.898z" fill="currentColor"/><path fill-rule="evenodd" clip-rule="evenodd" d="M8.31 6.341c-.204-.455-.42-.465-.614-.47-.158-.006-.342-.006-.525-.006a1.01 1.01 0 00-.73.34c-.253.272-.957.93-.957 2.274 0 1.339.983 2.635 1.12 2.818.136.183 1.896 3.022 4.674 4.115 2.312.91 2.785.726 3.284.68.499-.048 1.618-.66 1.849-1.297.226-.638.226-1.182.157-1.297-.068-.115-.252-.183-.525-.319s-1.618-.794-1.87-.888c-.252-.09-.436-.136-.615.136-.184.271-.709.883-.866 1.066-.158.183-.32.204-.594.068-.273-.136-1.156-.423-2.201-1.354-.814-.722-1.366-1.616-1.523-1.887-.158-.272-.016-.419.12-.555.121-.12.274-.318.41-.475.137-.157.184-.272.273-.455.09-.183.048-.34-.02-.476-.069-.13-.605-1.48-.846-2.018z" fill="#1446A0"/></svg><svg fill="none" viewBox="0 0 25 20" id="soc-youtube" xmlns="http://www.w3.org/2000/svg"><path d="M24.485 3.749c-.288-1.114-1.133-1.992-2.203-2.292C20.325.9 12.5.9 12.5.9s-7.825 0-9.782.536c-1.05.3-1.915 1.2-2.203 2.313C0 5.783 0 10.002 0 10.002s0 4.241.515 6.254c.288 1.114 1.132 1.992 2.203 2.292 1.977.557 9.782.557 9.782.557s7.825 0 9.782-.536c1.07-.3 1.915-1.178 2.203-2.291.515-2.035.515-6.254.515-6.254s.02-4.24-.515-6.275z" fill="currentColor"/><path d="M10.008 13.9l6.507-3.898-6.507-3.898V13.9z" fill="#fff"/></svg><svg fill="none" viewBox="0 0 24 24" id="soc-youtube-f" xmlns="http://www.w3.org/2000/svg"><path d="M23.506 6.229a3.007 3.007 0 00-2.116-2.115C19.512 3.6 12 3.6 12 3.6s-7.512 0-9.39.494A3.069 3.069 0 00.494 6.229C0 8.107 0 12 0 12s0 3.915.494 5.773A3.007 3.007 0 002.61 19.89c1.897.514 9.39.514 9.39.514s7.512 0 9.39-.495a3.007 3.007 0 002.116-2.115C24 15.916 24 12.02 24 12.02s.02-3.914-.494-5.792z" fill="currentColor"/><path d="M9.607 15.6l6.248-3.598-6.248-3.598V15.6z" fill="#193762"/></svg><svg fill="none" viewBox="0 0 28 28" id="social-blue-ok" xmlns="http://www.w3.org/2000/svg"><path fill-rule="evenodd" clip-rule="evenodd" d="M13.12 1.04c-1.513.198-2.53.52-3.683 1.413A6.436 6.436 0 008.185 3.73c-.36.459-.695 1.079-.918 1.637-.892 2.33-.409 4.674 1.005 6.62.62.844 1.946 1.823 2.926 2.158.98.335 1.773.496 2.913.434 4.786-.298 7.787-5.505 5.53-9.907-.21-.409-.422-.694-.67-1.029C17.72 1.933 15.178.767 13.12 1.04zm.024 4.004c-1.587.323-2.542 1.711-2.306 3.212.223 1.376 1.562 2.628 3.26 2.33 2.468-.434 3.113-3.57 1.253-4.984-.52-.397-1.364-.731-2.207-.558zM10.144 26.469c.298-.298 3.298-3.31 3.472-3.422.186.111.446.409.62.582l2.988 3c.409.422.892.72 1.773.683.67-.174 1.165-.434 1.475-1.017.1-.173.186-.384.223-.607.211-1.153-.545-1.76-1.004-2.232-.235-.236-3.186-3.125-3.298-3.31a13.266 13.266 0 003.46-1.377c.57-.31.991-.57 1.214-1.215a1.99 1.99 0 00-1.91-2.69c-.78.025-1.127.421-1.698.694-2.603 1.203-5.244 1.215-7.81-.074-.534-.273-1.005-.695-1.774-.645-1.475.074-2.231 1.612-1.71 2.802.272.608.681.83 1.252 1.153 1.016.595 2.17 1.042 3.434 1.351-.112.174-3.112 3.125-3.348 3.36-.483.472-1.215 1.067-.98 2.257.36 1.86 2.307 2.033 3.621.707z" fill="#193762"/></svg><svg fill="none" viewBox="0 0 28 28" id="social-blue-tg" xmlns="http://www.w3.org/2000/svg"><g clip-path="url(#btclip0_3635_10411)"><path fill-rule="evenodd" clip-rule="evenodd" d="M3.297 12.724C10.102 9.759 14.64 7.805 16.91 6.861c6.482-2.696 7.83-3.165 8.707-3.18.193-.004.625.044.905.271.236.192.3.45.332.632.03.182.07.596.039.92-.351 3.69-1.871 12.646-2.645 16.78-.327 1.75-.971 2.336-1.595 2.393-1.355.125-2.385-.896-3.697-1.756-2.055-1.347-3.215-2.185-5.21-3.5-2.304-1.518-.81-2.352.504-3.716.343-.357 6.315-5.79 6.431-6.282.014-.062.028-.292-.109-.413-.136-.121-.338-.08-.483-.047-.206.047-3.488 2.216-9.845 6.508-.932.64-1.776.95-2.532.934-.833-.018-2.436-.47-3.628-.858-1.462-.475-2.623-.727-2.522-1.533.053-.42.631-.85 1.736-1.29z" fill="#193762"/></g><defs><clipPath id="btclip0_3635_10411"><path fill="#fff" transform="translate(1.063 .333)" d="M0 0h26.333v26.333H0z"/></clipPath></defs></svg><svg fill="none" viewBox="0 0 28 28" id="social-blue-vk" xmlns="http://www.w3.org/2000/svg"><path d="M1.909 5.916h3.113c.395 0 .701.263.833.614.395 1.14 1.272 3.64 2.28 5.35 1.36 2.236 2.236 3.069 2.806 2.981.57-.132.395-1.622.395-2.806s.132-3.201-.438-4.122l-.877-1.272a.438.438 0 01.35-.701h5a.88.88 0 01.876.877v6.358s.22 1.14 1.447-.044c1.228-1.184 2.543-3.376 3.64-5.613l.438-1.052a.866.866 0 01.79-.526h3.244c.614 0 1.052.614.833 1.184l-.35.92s-1.185 2.368-2.412 4.035c-1.228 1.71-1.491 2.104-1.316 2.543.175.438 3.333 3.376 4.122 4.78.22.394.395.745.57 1.052.307.57-.132 1.315-.79 1.315H22.78c-.306 0-.614-.175-.745-.439l-.35-.57s-2.237-2.63-3.596-3.463c-1.403-.79-1.36.35-1.36.35v2.324a1.76 1.76 0 01-1.754 1.754h-.877s-4.823 0-8.681-5.744C2.39 11.53 1.383 8.635 1.032 6.968c-.088-.526.307-1.052.877-1.052z" fill="#193762"/></svg><svg fill="none" viewBox="0 0 14 12" id="submit-btn-arrow" xmlns="http://www.w3.org/2000/svg"><path d="M12.278 6H1.255M7.99 1.915l4.287 4.083-4.287-4.083zm4.287 4.083l-4.287 4.084 4.287-4.084z" stroke="#fff" stroke-width="2" stroke-linecap="round" stroke-linejoin="round"/></svg><svg fill="none" viewBox="0 0 18 19" id="user" xmlns="http://www.w3.org/2000/svg"><g stroke="currentColor" stroke-width="1.5" stroke-linecap="round" stroke-linejoin="round"><path d="M9 9.5A3.75 3.75 0 109 2a3.75 3.75 0 000 7.5zM15.442 17c0-2.902-2.888-5.25-6.443-5.25-3.555 0-6.442 2.348-6.442 5.25"/></g></svg></svg>