<svg width="217" height="85" viewBox="0 0 217 85" fill="none" xmlns="http://www.w3.org/2000/svg">
<path d="M83.7719 42.5012C83.7719 64.6351 65.5668 82.5785 43.1056 82.5785C20.6464 82.5785 2.43738 64.6351 2.43738 42.5012C2.43738 20.3652 20.6464 2.42188 43.1056 2.42188C65.5668 2.42188 83.7719 20.3652 83.7719 42.5012Z" fill="white"/>
<path d="M182.591 21.6072H173.228V63.6764H182.591C196.876 63.6764 204.84 55.3531 204.84 42.6418C204.84 29.8356 197.011 21.6072 182.591 21.6072ZM183.218 72.4545H168.322C165.598 72.4545 163.418 70.4298 163.418 67.6212V17.5773C163.418 14.8906 165.598 12.833 168.322 12.833H183.218C203.41 12.833 214.56 26.1715 214.56 42.6418C214.56 59.1179 203.291 72.4545 183.218 72.4545ZM135.068 45.3285H117.183V63.5931H135.068C142.233 63.5931 145.523 59.027 145.523 54.4608C145.523 49.8966 142.278 45.3285 135.068 45.3285ZM132.847 21.6072H117.183V36.6471H132.847C139.059 36.6471 141.984 33.2423 141.984 29.1233C141.984 24.9191 139.24 21.6072 132.847 21.6072ZM134.717 72.4545H112.275C109.551 72.4545 107.461 70.3059 107.461 67.6212V17.5773C107.461 14.8906 109.551 12.833 112.275 12.833H133.263C144.796 12.833 151.7 19.4471 151.7 28.0413C151.7 36.7304 146.313 39.8274 144.435 40.4952C147.348 41.2191 155.243 44.5136 155.243 55.3802C155.243 64.6926 147.623 72.4545 134.717 72.4545Z" fill="#04589C"/>
<path d="M56.2866 31.5503C56.3554 31.5503 56.4202 31.5387 56.4928 31.5213C56.6618 31.4787 80.0795 25.7744 80.0795 25.7744C76.8505 18.8564 71.685 13.0011 65.2644 8.884C65.2644 8.884 56.157 31.0199 56.1098 31.1303C56.0726 31.2232 56.0627 31.2812 56.0627 31.3277C56.0627 31.4555 56.1629 31.5503 56.2866 31.5503ZM47.7743 26.0666C47.8096 26.2544 47.9216 26.3163 48.0237 26.3163C48.1239 26.3163 48.2044 26.2506 48.3164 26.1363C48.8585 25.5731 65.0111 8.72335 65.0111 8.72335C58.728 4.75916 51.2684 2.45189 43.2608 2.42285C43.2608 2.42285 47.5622 24.9614 47.7743 26.0666ZM60.4053 40.3981C60.5408 40.4427 83.3811 48.1213 83.3811 48.1213C83.6443 46.2844 83.7798 44.4087 83.7798 42.5002C83.7798 36.6391 82.5031 31.0722 80.2091 26.0531C80.2091 26.0531 60.4387 39.7961 60.3169 39.8813C60.1971 39.9665 60.1421 40.0419 60.1421 40.131C60.1421 40.2878 60.2677 40.3536 60.4053 40.3981ZM30.1604 31.3277C30.1604 31.2812 30.1531 31.2232 30.1133 31.1303C30.0681 31.0199 20.9607 8.884 20.9607 8.884C14.5401 13.0011 9.37262 18.8564 6.14368 25.7744C6.14368 25.7744 29.5614 31.4787 29.7323 31.5213C29.8049 31.5387 29.8678 31.5503 29.9385 31.5503C30.0603 31.5503 30.1604 31.4555 30.1604 31.3277ZM42.9643 2.42285C34.9567 2.45189 27.4952 4.75916 21.2141 8.72335C21.2141 8.72335 37.3647 25.5731 37.9087 26.1363C38.0207 26.2506 38.1012 26.3163 38.2014 26.3163C38.3035 26.3163 38.4135 26.2543 38.4508 26.0666C38.6629 24.9614 42.9643 2.42285 42.9643 2.42285ZM25.8179 40.3981C25.6823 40.4427 2.84207 48.1213 2.84207 48.1213C2.58083 46.2844 2.44531 44.4087 2.44531 42.5002C2.44531 36.6391 3.72197 31.0722 6.01601 26.0531C6.01601 26.0531 25.7864 39.7961 25.9062 39.8813C26.0281 39.9665 26.0811 40.0419 26.0811 40.131C26.0811 40.2878 25.9554 40.3536 25.8179 40.3981Z" fill="#F26925"/>
<path d="M43.109 82.5775C63.4903 82.5775 80.3676 67.8028 83.3176 48.5316L68.1609 50.6143C67.9271 50.6453 67.8309 50.7673 67.7739 50.9299C64.7689 59.5589 57.1974 66.1246 47.8071 67.8086C51.3837 66.0917 53.8486 62.474 53.8486 58.2891C53.8486 52.4435 49.0405 47.7051 43.109 47.7051C37.1795 47.7051 32.3694 52.4435 32.3694 58.2891C32.3694 62.474 34.8344 66.0917 38.4109 67.8086C29.0207 66.1246 21.4472 59.5589 18.4422 50.9299C18.3852 50.7673 18.2909 50.6453 18.0572 50.6143L2.89844 48.5316C5.85045 67.8028 22.7278 82.5775 43.109 82.5775Z" fill="#F26925"/>
</svg>
