<svg width="28" height="31" viewBox="0 0 28 31" fill="none" xmlns="http://www.w3.org/2000/svg">
<path fill-rule="evenodd" clip-rule="evenodd" d="M0.747559 0.582833C1.70639 0.43745 2.68278 0.348801 3.65215 0.405536C6.40572 0.519006 9.11714 1.51187 11.2982 3.21037C12.3343 4.00821 13.2545 4.95852 14.0237 6.02231C14.1326 6.16769 14.2239 6.32371 14.3398 6.462C15.4251 4.81669 16.8756 3.41959 18.5474 2.39481C20.6618 1.08636 23.1308 0.391353 25.6034 0.387807C26.3831 0.384261 27.1629 0.465817 27.932 0.582833C27.932 5.23511 27.932 9.88383 27.932 14.5361C26.3902 14.5361 24.8483 14.5397 23.3029 14.5361C23.3029 11.515 23.3029 8.49737 23.3029 5.47623C21.9718 5.80246 20.7144 6.45136 19.6783 7.35913C18.4245 8.44418 17.4797 9.89447 16.988 11.4866C16.837 11.9618 16.7316 12.4511 16.6578 12.944C16.6333 13.2879 16.6649 13.6354 16.6438 13.9794C16.6333 14.1496 16.6508 14.3198 16.6297 14.4865C15.0984 14.4971 13.5671 14.49 12.0393 14.49C12.0393 14.0219 12.0393 13.5574 12.0393 13.0894C12.0393 12.9333 12.0042 12.7809 11.9796 12.6284C11.7548 11.3554 11.2596 10.1285 10.529 9.06472C9.32085 7.28466 7.44885 5.97266 5.36611 5.47268C5.3626 8.49383 5.36611 11.515 5.36611 14.5361C3.82776 14.5361 2.28942 14.5397 0.751071 14.5361C0.747559 9.88383 0.747559 5.23156 0.747559 0.582833Z" fill="#E61B50"/>
<path fill-rule="evenodd" clip-rule="evenodd" d="M0.824707 15.905C2.33144 15.9015 3.83467 15.905 5.3414 15.905C5.33438 16.6106 5.32384 17.3234 5.44326 18.0219C5.73828 20.0254 6.72872 21.9118 8.20034 23.2912C9.37693 24.4011 10.8521 25.1918 12.4325 25.5287C14.0833 25.8939 15.8359 25.7734 17.4199 25.1847C18.7264 24.706 19.9206 23.9117 20.8759 22.8905C22.3089 21.3728 23.1904 19.3339 23.3204 17.2418C23.352 16.7986 23.3379 16.3518 23.3415 15.905C24.8447 15.9015 26.3514 15.9015 27.8582 15.905C27.8617 16.8021 27.8406 17.7028 27.7141 18.5928C27.5034 20.0715 27.0539 21.5182 26.3795 22.848C25.1608 25.2663 23.208 27.3017 20.8513 28.6066C19.471 29.3725 17.9572 29.8902 16.4013 30.1313C13.4546 30.5923 10.3568 30.0427 7.75429 28.5676C6.41614 27.8123 5.20794 26.8265 4.19642 25.667C2.75642 24.0217 1.72032 22.0217 1.21105 19.8906C1.01788 19.0715 0.891439 18.2311 0.849292 17.3872C0.81417 16.8943 0.828219 16.3979 0.824707 15.905Z" fill="#11727B"/>
</svg>
